<mxfile host="Electron" agent="Mozilla/5.0 (Windows NT 10.0; Win64; x64) AppleWebKit/537.36 (KHTML, like Gecko) draw.io/27.0.5 Chrome/134.0.6998.205 Electron/35.3.0 Safari/537.36" version="27.0.5">
  <diagram name="mine" id="u7xvWh2mja8eZVhPt00p">
    <mxGraphModel dx="13340" dy="7120" grid="1" gridSize="10" guides="1" tooltips="1" connect="1" arrows="0" fold="1" page="0" pageScale="1" pageWidth="850" pageHeight="1100" background="none" math="0" shadow="0">
      <root>
        <mxCell id="0" />
        <mxCell id="1" parent="0" />
        <mxCell id="3kRf3ehpMCgD7gB9vPQS-1" value="&lt;font&gt;AbstractCommand&lt;/font&gt;&lt;div&gt;&lt;font&gt;(Command)&lt;/font&gt;&lt;/div&gt;" style="swimlane;fontStyle=0;childLayout=stackLayout;horizontal=1;startSize=40;fillColor=none;horizontalStack=0;resizeParent=1;resizeParentMax=0;resizeLast=0;collapsible=1;marginBottom=0;html=1;fontFamily=Helvetica;fontSize=12;fontColor=default;labelBackgroundColor=default;" parent="1" vertex="1">
          <mxGeometry x="1690" y="-680" width="140" height="66" as="geometry" />
        </mxCell>
        <mxCell id="3kRf3ehpMCgD7gB9vPQS-2" value="&lt;font&gt;execute()&lt;/font&gt;" style="text;strokeColor=none;fillColor=none;align=left;verticalAlign=top;spacingLeft=4;spacingRight=4;overflow=hidden;rotatable=0;points=[[0,0.5],[1,0.5]];portConstraint=eastwest;whiteSpace=wrap;html=1;fontFamily=Helvetica;fontSize=12;fontColor=default;labelBackgroundColor=default;" parent="3kRf3ehpMCgD7gB9vPQS-1" vertex="1">
          <mxGeometry y="40" width="140" height="26" as="geometry" />
        </mxCell>
        <mxCell id="4Qk5KGnltrxv7nooNEwD-6" value="TransformCommand" style="swimlane;fontStyle=0;childLayout=stackLayout;horizontal=1;startSize=26;fillColor=none;horizontalStack=0;resizeParent=1;resizeParentMax=0;resizeLast=0;collapsible=1;marginBottom=0;html=1;fontFamily=Helvetica;fontSize=12;fontColor=default;labelBackgroundColor=default;" parent="1" vertex="1">
          <mxGeometry x="1510" y="-360" width="160" height="52" as="geometry" />
        </mxCell>
        <mxCell id="4Qk5KGnltrxv7nooNEwD-7" value="execute()" style="text;strokeColor=none;fillColor=none;align=left;verticalAlign=top;spacingLeft=4;spacingRight=4;overflow=hidden;rotatable=0;points=[[0,0.5],[1,0.5]];portConstraint=eastwest;whiteSpace=wrap;html=1;fontFamily=Helvetica;fontSize=12;fontColor=default;labelBackgroundColor=default;" parent="4Qk5KGnltrxv7nooNEwD-6" vertex="1">
          <mxGeometry y="26" width="160" height="26" as="geometry" />
        </mxCell>
        <mxCell id="diFloX-7bK_cXEiW6560-3" value="ScaleCommand" style="swimlane;fontStyle=0;childLayout=stackLayout;horizontal=1;startSize=26;fillColor=none;horizontalStack=0;resizeParent=1;resizeParentMax=0;resizeLast=0;collapsible=1;marginBottom=0;html=1;fontFamily=Helvetica;fontSize=12;fontColor=default;labelBackgroundColor=default;" parent="1" vertex="1">
          <mxGeometry x="1850" y="-360" width="130" height="52" as="geometry" />
        </mxCell>
        <mxCell id="diFloX-7bK_cXEiW6560-4" value="execute()" style="text;strokeColor=none;fillColor=none;align=left;verticalAlign=top;spacingLeft=4;spacingRight=4;overflow=hidden;rotatable=0;points=[[0,0.5],[1,0.5]];portConstraint=eastwest;whiteSpace=wrap;html=1;fontFamily=Helvetica;fontSize=12;fontColor=default;labelBackgroundColor=default;" parent="diFloX-7bK_cXEiW6560-3" vertex="1">
          <mxGeometry y="26" width="130" height="26" as="geometry" />
        </mxCell>
        <mxCell id="FDf2tdCzrQthrolSkbi6-1" value="" style="endArrow=block;endSize=12;endFill=0;html=1;rounded=0;strokeColor=default;align=left;verticalAlign=bottom;fontFamily=Helvetica;fontSize=12;fontColor=default;labelBackgroundColor=default;edgeStyle=orthogonalEdgeStyle;startSize=14;" parent="1" source="diFloX-7bK_cXEiW6560-1" target="3kRf3ehpMCgD7gB9vPQS-1" edge="1">
          <mxGeometry width="160" relative="1" as="geometry">
            <mxPoint x="1910" y="-500.0000000000001" as="sourcePoint" />
            <mxPoint x="1760.1111111111104" y="-458" as="targetPoint" />
          </mxGeometry>
        </mxCell>
        <mxCell id="f6b9FppCXZIkNFy2HD0m-8" value="&lt;span&gt;Команды. Применяются&lt;/span&gt;&lt;div&gt;&lt;span&gt;к готовым объектам&lt;/span&gt;&lt;/div&gt;&lt;div&gt;&lt;span&gt;View&lt;/span&gt;&lt;/div&gt;" style="shape=umlFrame;whiteSpace=wrap;html=1;pointerEvents=0;recursiveResize=0;container=1;collapsible=0;width=170;fontFamily=Helvetica;fontSize=12;fontColor=default;labelBackgroundColor=default;height=60;align=center;" parent="1" vertex="1">
          <mxGeometry x="1480" y="-720" width="1410" height="450" as="geometry" />
        </mxCell>
        <mxCell id="tgRIsvCtbk0ig_NsHpIB-1" value="&lt;font&gt;Объекты&lt;/font&gt;&lt;div&gt;&lt;font&gt;Model&lt;/font&gt;&lt;/div&gt;" style="shape=umlFrame;whiteSpace=wrap;html=1;pointerEvents=0;recursiveResize=0;container=0;collapsible=0;width=150;fontFamily=Helvetica;fontSize=12;fontColor=default;labelBackgroundColor=default;height=40;" parent="1" vertex="1">
          <mxGeometry x="120" y="-900" width="1350" height="1180" as="geometry" />
        </mxCell>
        <mxCell id="gnXy6fIS7-A-US88n-Kp-5" value="&lt;font&gt;AbstractObjectVisitor&lt;/font&gt;&lt;div&gt;&lt;font&gt;(Visitor)&lt;/font&gt;&lt;/div&gt;" style="swimlane;fontStyle=1;align=center;verticalAlign=top;childLayout=stackLayout;horizontal=1;startSize=40;horizontalStack=0;resizeParent=1;resizeParentMax=0;resizeLast=0;collapsible=1;marginBottom=0;whiteSpace=wrap;html=1;fontFamily=Helvetica;fontSize=12;fontColor=default;labelBackgroundColor=default;" parent="1" vertex="1">
          <mxGeometry x="1700" y="-1350" width="180" height="120" as="geometry" />
        </mxCell>
        <mxCell id="gnXy6fIS7-A-US88n-Kp-7" value="" style="line;strokeWidth=1;fillColor=none;align=left;verticalAlign=middle;spacingTop=-1;spacingLeft=3;spacingRight=3;rotatable=0;labelPosition=right;points=[];portConstraint=eastwest;strokeColor=inherit;fontFamily=Helvetica;fontSize=12;fontColor=default;labelBackgroundColor=default;" parent="gnXy6fIS7-A-US88n-Kp-5" vertex="1">
          <mxGeometry y="40" width="180" height="8" as="geometry" />
        </mxCell>
        <mxCell id="ijFdt0kmVho1ybQM2Piw-1" value="+ visit(Composite)" style="text;strokeColor=none;fillColor=none;align=left;verticalAlign=top;spacingLeft=4;spacingRight=4;overflow=hidden;rotatable=0;points=[[0,0.5],[1,0.5]];portConstraint=eastwest;whiteSpace=wrap;html=1;fontFamily=Helvetica;fontSize=12;fontColor=default;labelBackgroundColor=default;" parent="gnXy6fIS7-A-US88n-Kp-5" vertex="1">
          <mxGeometry y="48" width="180" height="22" as="geometry" />
        </mxCell>
        <mxCell id="741dTHGRRmLdHf4GMGE5-1" value="&lt;font&gt;+ visit(MeshModel)&lt;br&gt;&lt;/font&gt;" style="text;strokeColor=none;fillColor=none;align=left;verticalAlign=top;spacingLeft=4;spacingRight=4;overflow=hidden;rotatable=0;points=[[0,0.5],[1,0.5]];portConstraint=eastwest;whiteSpace=wrap;html=1;fontFamily=Helvetica;fontSize=12;fontColor=default;labelBackgroundColor=default;" parent="gnXy6fIS7-A-US88n-Kp-5" vertex="1">
          <mxGeometry y="70" width="180" height="26" as="geometry" />
        </mxCell>
        <mxCell id="741dTHGRRmLdHf4GMGE5-2" value="&lt;font&gt;+ visit(PerspectiveCamera)&lt;/font&gt;" style="text;strokeColor=none;fillColor=none;align=left;verticalAlign=top;spacingLeft=4;spacingRight=4;overflow=hidden;rotatable=0;points=[[0,0.5],[1,0.5]];portConstraint=eastwest;whiteSpace=wrap;html=1;fontFamily=Helvetica;fontSize=12;fontColor=default;labelBackgroundColor=default;" parent="gnXy6fIS7-A-US88n-Kp-5" vertex="1">
          <mxGeometry y="96" width="180" height="24" as="geometry" />
        </mxCell>
        <mxCell id="gSOwB_hZw_o_BJHu1u8D-1" value="" style="endArrow=open;endFill=1;endSize=12;html=1;rounded=0;strokeColor=default;align=left;verticalAlign=bottom;fontFamily=Helvetica;fontSize=12;fontColor=default;labelBackgroundColor=default;edgeStyle=orthogonalEdgeStyle;" parent="1" source="XKCMbLRjZycL2p7mwECD-11" target="gnXy6fIS7-A-US88n-Kp-5" edge="1">
          <mxGeometry width="160" relative="1" as="geometry">
            <mxPoint x="1480" y="-810" as="sourcePoint" />
            <mxPoint x="1570" y="-810" as="targetPoint" />
            <Array as="points">
              <mxPoint x="1000" y="-664" />
              <mxPoint x="1000" y="-1300" />
            </Array>
          </mxGeometry>
        </mxCell>
        <mxCell id="gSOwB_hZw_o_BJHu1u8D-2" value="" style="endArrow=open;endFill=1;endSize=12;html=1;rounded=0;strokeColor=default;align=left;verticalAlign=bottom;fontFamily=Helvetica;fontSize=12;fontColor=default;labelBackgroundColor=default;edgeStyle=orthogonalEdgeStyle;" parent="1" source="gnXy6fIS7-A-US88n-Kp-5" target="XKCMbLRjZycL2p7mwECD-12" edge="1">
          <mxGeometry width="160" relative="1" as="geometry">
            <mxPoint x="1310" y="-690" as="sourcePoint" />
            <mxPoint x="1500" y="-820" as="targetPoint" />
            <Array as="points">
              <mxPoint x="1250" y="-1270" />
              <mxPoint x="1250" y="-989" />
              <mxPoint x="620" y="-989" />
            </Array>
          </mxGeometry>
        </mxCell>
        <mxCell id="gSOwB_hZw_o_BJHu1u8D-3" value="&lt;font&gt;Дружба&lt;/font&gt;" style="text;html=1;align=center;verticalAlign=middle;resizable=0;points=[];autosize=1;strokeColor=none;fillColor=none;fontFamily=Helvetica;fontSize=12;fontColor=default;labelBackgroundColor=default;" parent="1" vertex="1">
          <mxGeometry x="1618" y="-1294" width="70" height="30" as="geometry" />
        </mxCell>
        <mxCell id="gSOwB_hZw_o_BJHu1u8D-6" value="" style="endArrow=open;endFill=1;endSize=12;html=1;rounded=0;strokeColor=default;align=left;verticalAlign=bottom;fontFamily=Helvetica;fontSize=12;fontColor=default;labelBackgroundColor=default;edgeStyle=orthogonalEdgeStyle;" parent="1" source="gnXy6fIS7-A-US88n-Kp-5" target="XKCMbLRjZycL2p7mwECD-22" edge="1">
          <mxGeometry width="160" relative="1" as="geometry">
            <mxPoint x="2150" y="-960" as="sourcePoint" />
            <mxPoint x="1450" y="-750" as="targetPoint" />
            <Array as="points">
              <mxPoint x="1280" y="-1240" />
              <mxPoint x="1280" y="-940" />
              <mxPoint x="950" y="-940" />
            </Array>
          </mxGeometry>
        </mxCell>
        <mxCell id="gSOwB_hZw_o_BJHu1u8D-7" value="&lt;font&gt;Дружба&lt;/font&gt;" style="text;html=1;align=center;verticalAlign=middle;resizable=0;points=[];autosize=1;strokeColor=none;fillColor=none;fontFamily=Helvetica;fontSize=12;fontColor=default;labelBackgroundColor=default;" parent="1" vertex="1">
          <mxGeometry x="1618.75" y="-1264" width="70" height="30" as="geometry" />
        </mxCell>
        <mxCell id="Uov1ejId3y4MkhDZgzij-1" value="&lt;font&gt;Drawer&lt;/font&gt;&lt;div&gt;&lt;font&gt;(AbstractFactory/Bridge)&lt;/font&gt;&lt;/div&gt;" style="swimlane;fontStyle=1;align=center;verticalAlign=top;childLayout=stackLayout;horizontal=1;startSize=40;horizontalStack=0;resizeParent=1;resizeParentMax=0;resizeLast=0;collapsible=1;marginBottom=0;whiteSpace=wrap;html=1;fontFamily=Helvetica;fontSize=12;fontColor=default;labelBackgroundColor=none;fillColor=none;" parent="1" vertex="1">
          <mxGeometry x="-1630" y="-608" width="180" height="126" as="geometry" />
        </mxCell>
        <mxCell id="UeiFVOSWFEQmsvZjEIMp-14" value="&lt;font&gt;- impl: DrawerImpl&lt;/font&gt;" style="text;strokeColor=none;fillColor=none;align=left;verticalAlign=top;spacingLeft=4;spacingRight=4;overflow=hidden;rotatable=0;points=[[0,0.5],[1,0.5]];portConstraint=eastwest;whiteSpace=wrap;html=1;fontFamily=Helvetica;fontSize=12;fontColor=default;labelBackgroundColor=default;" parent="Uov1ejId3y4MkhDZgzij-1" vertex="1">
          <mxGeometry y="40" width="180" height="26" as="geometry" />
        </mxCell>
        <mxCell id="Uov1ejId3y4MkhDZgzij-3" value="" style="line;strokeWidth=1;fillColor=none;align=left;verticalAlign=middle;spacingTop=-1;spacingLeft=3;spacingRight=3;rotatable=0;labelPosition=right;points=[];portConstraint=eastwest;strokeColor=inherit;fontFamily=Helvetica;fontSize=12;fontColor=default;labelBackgroundColor=default;" parent="Uov1ejId3y4MkhDZgzij-1" vertex="1">
          <mxGeometry y="66" width="180" height="8" as="geometry" />
        </mxCell>
        <mxCell id="Uov1ejId3y4MkhDZgzij-4" value="&lt;font&gt;+ drawLine(Point, Point)&lt;/font&gt;" style="text;strokeColor=none;fillColor=none;align=left;verticalAlign=top;spacingLeft=4;spacingRight=4;overflow=hidden;rotatable=0;points=[[0,0.5],[1,0.5]];portConstraint=eastwest;whiteSpace=wrap;html=1;fontFamily=Helvetica;fontSize=12;fontColor=default;labelBackgroundColor=default;" parent="Uov1ejId3y4MkhDZgzij-1" vertex="1">
          <mxGeometry y="74" width="180" height="26" as="geometry" />
        </mxCell>
        <mxCell id="iSdfUpTWg0YYM34dTh7M-1" value="&lt;font&gt;+ clear()&lt;/font&gt;" style="text;strokeColor=none;fillColor=none;align=left;verticalAlign=top;spacingLeft=4;spacingRight=4;overflow=hidden;rotatable=0;points=[[0,0.5],[1,0.5]];portConstraint=eastwest;whiteSpace=wrap;html=1;fontFamily=Helvetica;fontSize=12;fontColor=default;labelBackgroundColor=default;" parent="Uov1ejId3y4MkhDZgzij-1" vertex="1">
          <mxGeometry y="100" width="180" height="26" as="geometry" />
        </mxCell>
        <mxCell id="sILZ3Hs0Noe2dMSN0Bch-1" value="&lt;font style=&quot;font-size: 12px;&quot;&gt;QtDrawerImpl&lt;/font&gt;" style="swimlane;fontStyle=1;align=center;verticalAlign=top;childLayout=stackLayout;horizontal=1;startSize=26;horizontalStack=0;resizeParent=1;resizeParentMax=0;resizeLast=0;collapsible=1;marginBottom=0;whiteSpace=wrap;html=1;fontFamily=Helvetica;fontSize=11;fontColor=default;labelBackgroundColor=default;fillColor=none;" parent="1" vertex="1">
          <mxGeometry x="-1930" y="-448" width="170" height="112" as="geometry" />
        </mxCell>
        <mxCell id="5urwvVWARFL6wCoIM7oV-2" value="&lt;font style=&quot;font-size: 12px;&quot;&gt;- canvas: QTCanvas&lt;/font&gt;" style="text;strokeColor=none;fillColor=none;align=left;verticalAlign=top;spacingLeft=4;spacingRight=4;overflow=hidden;rotatable=0;points=[[0,0.5],[1,0.5]];portConstraint=eastwest;whiteSpace=wrap;html=1;fontFamily=Helvetica;fontSize=11;fontColor=default;labelBackgroundColor=default;" parent="sILZ3Hs0Noe2dMSN0Bch-1" vertex="1">
          <mxGeometry y="26" width="170" height="26" as="geometry" />
        </mxCell>
        <mxCell id="sILZ3Hs0Noe2dMSN0Bch-3" value="" style="line;strokeWidth=1;fillColor=none;align=left;verticalAlign=middle;spacingTop=-1;spacingLeft=3;spacingRight=3;rotatable=0;labelPosition=right;points=[];portConstraint=eastwest;strokeColor=inherit;fontFamily=Helvetica;fontSize=11;fontColor=default;labelBackgroundColor=default;" parent="sILZ3Hs0Noe2dMSN0Bch-1" vertex="1">
          <mxGeometry y="52" width="170" height="8" as="geometry" />
        </mxCell>
        <mxCell id="sILZ3Hs0Noe2dMSN0Bch-4" value="&lt;font style=&quot;font-size: 12px;&quot;&gt;+ drawLine(int, int, int, int)&lt;/font&gt;" style="text;strokeColor=none;fillColor=none;align=left;verticalAlign=top;spacingLeft=4;spacingRight=4;overflow=hidden;rotatable=0;points=[[0,0.5],[1,0.5]];portConstraint=eastwest;whiteSpace=wrap;html=1;fontFamily=Helvetica;fontSize=11;fontColor=default;labelBackgroundColor=default;" parent="sILZ3Hs0Noe2dMSN0Bch-1" vertex="1">
          <mxGeometry y="60" width="170" height="26" as="geometry" />
        </mxCell>
        <mxCell id="5urwvVWARFL6wCoIM7oV-1" value="&lt;font style=&quot;font-size: 12px;&quot;&gt;+ clear()&lt;/font&gt;" style="text;strokeColor=none;fillColor=none;align=left;verticalAlign=top;spacingLeft=4;spacingRight=4;overflow=hidden;rotatable=0;points=[[0,0.5],[1,0.5]];portConstraint=eastwest;whiteSpace=wrap;html=1;fontFamily=Helvetica;fontSize=11;fontColor=default;labelBackgroundColor=default;" parent="sILZ3Hs0Noe2dMSN0Bch-1" vertex="1">
          <mxGeometry y="86" width="170" height="26" as="geometry" />
        </mxCell>
        <mxCell id="A-vl7zENeRD7EasqMvzy-1" value="" style="endArrow=open;endFill=1;endSize=12;html=1;rounded=0;strokeColor=default;align=left;verticalAlign=bottom;fontFamily=Helvetica;fontSize=11;fontColor=default;labelBackgroundColor=default;edgeStyle=orthogonalEdgeStyle;" parent="1" source="Uov1ejId3y4MkhDZgzij-1" target="cPvdEGlNGaqBh6omg6_h-73" edge="1">
          <mxGeometry width="160" relative="1" as="geometry">
            <mxPoint x="-780" y="-580" as="sourcePoint" />
            <mxPoint x="-800" y="-190" as="targetPoint" />
            <Array as="points">
              <mxPoint x="-1530" y="72" />
            </Array>
          </mxGeometry>
        </mxCell>
        <mxCell id="283JZqaPMmOEa5WBt7aY-1" value="1" style="endArrow=open;html=1;endSize=12;startArrow=diamondThin;startSize=14;startFill=1;edgeStyle=orthogonalEdgeStyle;align=left;verticalAlign=bottom;rounded=0;" parent="1" source="FzEgh_9gIUIp0z8psVSO-2" target="pGzQgoBuDEdEnm5LL7FR-1" edge="1">
          <mxGeometry x="-1" y="3" relative="1" as="geometry">
            <mxPoint x="1310" y="-1350" as="sourcePoint" />
            <mxPoint x="1280" y="-1316.63" as="targetPoint" />
            <Array as="points">
              <mxPoint x="1200" y="-1311" />
            </Array>
          </mxGeometry>
        </mxCell>
        <mxCell id="8gjAg4jhmarQGSUSvd6p-1" value="1" style="endArrow=open;html=1;endSize=12;startArrow=diamondThin;startSize=14;startFill=1;edgeStyle=orthogonalEdgeStyle;align=left;verticalAlign=bottom;rounded=0;" parent="1" source="ZTmcAJ3pDBRZLvcQVgv7-2" target="Uov1ejId3y4MkhDZgzij-1" edge="1">
          <mxGeometry x="-0.9681" relative="1" as="geometry">
            <mxPoint x="-290" y="-1090" as="sourcePoint" />
            <mxPoint x="-130" y="-1090" as="targetPoint" />
            <mxPoint as="offset" />
          </mxGeometry>
        </mxCell>
        <mxCell id="6VpPPDPWI-whZi6yTtxH-1" value="&lt;span style=&quot;font-size: 14px;&quot;&gt;Посетители&lt;/span&gt;" style="shape=umlFrame;whiteSpace=wrap;html=1;pointerEvents=0;recursiveResize=0;container=1;collapsible=0;width=160;fontFamily=Helvetica;fontSize=11;fontColor=default;labelBackgroundColor=default;" parent="1" vertex="1">
          <mxGeometry x="1500" y="-1398" width="570" height="330" as="geometry" />
        </mxCell>
        <mxCell id="c2rE2XwYI8c6K55yIRtU-1" value="&lt;font style=&quot;font-size: 24px;&quot;&gt;Приложение&lt;/font&gt;" style="shape=umlFrame;whiteSpace=wrap;html=1;pointerEvents=0;recursiveResize=0;container=0;collapsible=0;width=190;fontFamily=Helvetica;fontSize=11;fontColor=default;labelBackgroundColor=default;height=60;" parent="1" vertex="1">
          <mxGeometry x="-2100" y="-1790" width="5050" height="2640" as="geometry" />
        </mxCell>
        <mxCell id="0jYDQ7I854NcU4zELbIV-7" value="" style="html=1;verticalAlign=bottom;labelBackgroundColor=none;endArrow=none;endFill=0;endSize=12;align=left;rounded=0;startSize=14;" parent="1" source="4Qk5KGnltrxv7nooNEwD-6" edge="1">
          <mxGeometry x="-1" relative="1" as="geometry">
            <mxPoint x="1590" y="-410" as="sourcePoint" />
            <mxPoint x="1760" y="-400" as="targetPoint" />
            <Array as="points">
              <mxPoint x="1590" y="-400" />
            </Array>
          </mxGeometry>
        </mxCell>
        <mxCell id="0jYDQ7I854NcU4zELbIV-9" value="" style="html=1;verticalAlign=bottom;labelBackgroundColor=none;endArrow=none;endFill=0;endSize=12;align=left;rounded=0;startSize=14;" parent="1" edge="1">
          <mxGeometry x="-1" relative="1" as="geometry">
            <mxPoint x="1760" y="-400" as="sourcePoint" />
            <mxPoint x="1920" y="-360" as="targetPoint" />
            <Array as="points">
              <mxPoint x="1920" y="-400" />
            </Array>
          </mxGeometry>
        </mxCell>
        <mxCell id="zwMOwET7UwCbSNvbeqeT-19" value="" style="html=1;verticalAlign=bottom;labelBackgroundColor=none;endArrow=none;endFill=0;endSize=12;align=left;rounded=0;startSize=14;entryX=0.5;entryY=0;entryDx=0;entryDy=0;" parent="1" target="zwMOwET7UwCbSNvbeqeT-5" edge="1">
          <mxGeometry x="-1" relative="1" as="geometry">
            <mxPoint x="1920" y="-400" as="sourcePoint" />
            <mxPoint x="2050" y="-440" as="targetPoint" />
            <Array as="points">
              <mxPoint x="2060" y="-400" />
            </Array>
          </mxGeometry>
        </mxCell>
        <mxCell id="zwMOwET7UwCbSNvbeqeT-20" value="" style="html=1;verticalAlign=bottom;labelBackgroundColor=none;endArrow=none;endFill=0;endSize=12;align=left;rounded=0;startSize=14;" parent="1" target="zwMOwET7UwCbSNvbeqeT-7" edge="1">
          <mxGeometry x="-1" relative="1" as="geometry">
            <mxPoint x="2060" y="-400" as="sourcePoint" />
            <mxPoint x="2240" y="-370" as="targetPoint" />
            <Array as="points">
              <mxPoint x="2210" y="-400" />
            </Array>
          </mxGeometry>
        </mxCell>
        <mxCell id="Mvj8UcWhHONBCkcRYDLu-3" value="" style="html=1;verticalAlign=bottom;labelBackgroundColor=none;endArrow=none;endFill=0;endSize=12;align=left;rounded=0;startSize=14;exitX=0.533;exitY=0;exitDx=0;exitDy=0;exitPerimeter=0;" parent="1" source="Mvj8UcWhHONBCkcRYDLu-1" edge="1">
          <mxGeometry x="-1" relative="1" as="geometry">
            <mxPoint x="2440" y="-400" as="sourcePoint" />
            <mxPoint x="2210" y="-400" as="targetPoint" />
            <Array as="points">
              <mxPoint x="2380" y="-400" />
            </Array>
          </mxGeometry>
        </mxCell>
        <mxCell id="Mvj8UcWhHONBCkcRYDLu-7" value="" style="html=1;verticalAlign=bottom;labelBackgroundColor=none;endArrow=none;endFill=0;endSize=12;align=left;rounded=0;startSize=14;" parent="1" target="Mvj8UcWhHONBCkcRYDLu-5" edge="1">
          <mxGeometry x="-1" relative="1" as="geometry">
            <mxPoint x="2600" y="-400" as="sourcePoint" />
            <mxPoint x="2760" y="-370" as="targetPoint" />
            <Array as="points">
              <mxPoint x="2770" y="-400" />
            </Array>
          </mxGeometry>
        </mxCell>
        <mxCell id="cPvdEGlNGaqBh6omg6_h-155" value="Vector" style="swimlane;fontStyle=0;childLayout=stackLayout;horizontal=1;startSize=26;fillColor=none;horizontalStack=0;resizeParent=1;resizeParentMax=0;resizeLast=0;collapsible=1;marginBottom=0;html=1;fontSize=12;" parent="1" vertex="1">
          <mxGeometry x="610" y="190" width="140" height="52" as="geometry" />
        </mxCell>
        <mxCell id="pGzQgoBuDEdEnm5LL7FR-1" value="&lt;div style=&quot;text-wrap-mode: nowrap;&quot;&gt;&lt;div&gt;&lt;span&gt;&lt;b style=&quot;&quot;&gt;Scene&lt;/b&gt;&lt;/span&gt;&lt;/div&gt;&lt;/div&gt;" style="swimlane;fontStyle=0;align=center;verticalAlign=top;childLayout=stackLayout;horizontal=1;startSize=29;horizontalStack=0;resizeParent=1;resizeParentMax=0;resizeLast=0;collapsible=1;marginBottom=0;whiteSpace=wrap;html=1;fontFamily=Helvetica;fontSize=12;fontColor=default;labelBackgroundColor=none;fillColor=default;" parent="1" vertex="1">
          <mxGeometry x="1090" y="-771" width="340" height="115" as="geometry" />
        </mxCell>
        <mxCell id="pGzQgoBuDEdEnm5LL7FR-2" value="&lt;font&gt;- objects: List&amp;lt;AbstractBaseObject&amp;gt;&lt;/font&gt;" style="text;strokeColor=none;fillColor=none;align=left;verticalAlign=top;spacingLeft=4;spacingRight=4;overflow=hidden;rotatable=0;points=[[0,0.5],[1,0.5]];portConstraint=eastwest;whiteSpace=wrap;html=1;fontFamily=Helvetica;fontSize=12;fontColor=default;labelBackgroundColor=default;" parent="pGzQgoBuDEdEnm5LL7FR-1" vertex="1">
          <mxGeometry y="29" width="340" height="26" as="geometry" />
        </mxCell>
        <mxCell id="pGzQgoBuDEdEnm5LL7FR-3" value="" style="line;strokeWidth=1;fillColor=none;align=left;verticalAlign=middle;spacingTop=-1;spacingLeft=3;spacingRight=3;rotatable=0;labelPosition=right;points=[];portConstraint=eastwest;strokeColor=inherit;fontFamily=Helvetica;fontSize=12;fontColor=default;labelBackgroundColor=default;" parent="pGzQgoBuDEdEnm5LL7FR-1" vertex="1">
          <mxGeometry y="55" width="340" height="8" as="geometry" />
        </mxCell>
        <mxCell id="pGzQgoBuDEdEnm5LL7FR-4" value="&lt;font&gt;+ add(AbstractBaseObject)&lt;/font&gt;" style="text;strokeColor=none;fillColor=none;align=left;verticalAlign=top;spacingLeft=4;spacingRight=4;overflow=hidden;rotatable=0;points=[[0,0.5],[1,0.5]];portConstraint=eastwest;whiteSpace=wrap;html=1;fontFamily=Helvetica;fontSize=12;fontColor=default;labelBackgroundColor=default;" parent="pGzQgoBuDEdEnm5LL7FR-1" vertex="1">
          <mxGeometry y="63" width="340" height="26" as="geometry" />
        </mxCell>
        <mxCell id="NCGQzTMlk2PbVGK6uX_Y-1" value="&lt;font&gt;+ remove(&lt;span style=&quot;background-color: rgb(255, 255, 255);&quot;&gt;AbstractBaseObject&amp;nbsp;&lt;/span&gt;/ TypeId):&amp;nbsp;&lt;/font&gt;&lt;span style=&quot;background-color: rgb(255, 255, 255);&quot;&gt;AbstractBaseObject&lt;/span&gt;" style="text;strokeColor=none;fillColor=none;align=left;verticalAlign=top;spacingLeft=4;spacingRight=4;overflow=hidden;rotatable=0;points=[[0,0.5],[1,0.5]];portConstraint=eastwest;whiteSpace=wrap;html=1;fontFamily=Helvetica;fontSize=12;fontColor=default;labelBackgroundColor=none;" parent="pGzQgoBuDEdEnm5LL7FR-1" vertex="1">
          <mxGeometry y="89" width="340" height="26" as="geometry" />
        </mxCell>
        <mxCell id="ZXoyxhufJhOcj-TeiQkH-1" value="" style="endArrow=open;html=1;endSize=12;startArrow=diamondThin;startSize=14;startFill=0;edgeStyle=orthogonalEdgeStyle;align=left;verticalAlign=bottom;rounded=0;strokeColor=default;fontFamily=Helvetica;fontSize=12;fontColor=default;labelBackgroundColor=default;" parent="1" source="pGzQgoBuDEdEnm5LL7FR-1" target="XKCMbLRjZycL2p7mwECD-1" edge="1">
          <mxGeometry x="-0.8319" y="3" relative="1" as="geometry">
            <mxPoint x="940" y="-755.5000000000001" as="sourcePoint" />
            <mxPoint x="1100" y="-755.5000000000001" as="targetPoint" />
            <Array as="points">
              <mxPoint x="970" y="-713" />
              <mxPoint x="970" y="-713" />
            </Array>
            <mxPoint as="offset" />
          </mxGeometry>
        </mxCell>
        <mxCell id="XKCMbLRjZycL2p7mwECD-1" value="&lt;div style=&quot;font-size: 12px; text-wrap-mode: nowrap;&quot;&gt;AbstractBaseObject&lt;/div&gt;&lt;span style=&quot;font-size: 12px; text-wrap-mode: nowrap;&quot;&gt;&amp;nbsp;(Component)&lt;/span&gt;" style="swimlane;fontStyle=1;align=center;verticalAlign=top;childLayout=stackLayout;horizontal=1;startSize=39;horizontalStack=0;resizeParent=1;resizeParentMax=0;resizeLast=0;collapsible=1;marginBottom=0;whiteSpace=wrap;html=1;fontFamily=Helvetica;fontSize=11;fontColor=default;labelBackgroundColor=none;fillColor=default;" parent="1" vertex="1">
          <mxGeometry x="750" y="-880" width="170" height="255" as="geometry" />
        </mxCell>
        <mxCell id="XKCMbLRjZycL2p7mwECD-2" value="&lt;font style=&quot;font-size: 12px;&quot;&gt;- id: ID&lt;/font&gt;" style="text;strokeColor=none;fillColor=none;align=left;verticalAlign=top;spacingLeft=4;spacingRight=4;overflow=hidden;rotatable=0;points=[[0,0.5],[1,0.5]];portConstraint=eastwest;whiteSpace=wrap;html=1;fontFamily=Helvetica;fontSize=11;fontColor=default;labelBackgroundColor=default;" parent="XKCMbLRjZycL2p7mwECD-1" vertex="1">
          <mxGeometry y="39" width="170" height="26" as="geometry" />
        </mxCell>
        <mxCell id="XKCMbLRjZycL2p7mwECD-3" value="" style="line;strokeWidth=1;fillColor=none;align=left;verticalAlign=middle;spacingTop=-1;spacingLeft=3;spacingRight=3;rotatable=0;labelPosition=right;points=[];portConstraint=eastwest;strokeColor=inherit;fontFamily=Helvetica;fontSize=11;fontColor=default;labelBackgroundColor=default;" parent="XKCMbLRjZycL2p7mwECD-1" vertex="1">
          <mxGeometry y="65" width="170" height="8" as="geometry" />
        </mxCell>
        <mxCell id="XKCMbLRjZycL2p7mwECD-5" value="+ iterator()" style="text;strokeColor=none;fillColor=none;align=left;verticalAlign=top;spacingLeft=4;spacingRight=4;overflow=hidden;rotatable=0;points=[[0,0.5],[1,0.5]];portConstraint=eastwest;whiteSpace=wrap;html=1;fontSize=12;" parent="XKCMbLRjZycL2p7mwECD-1" vertex="1">
          <mxGeometry y="73" width="170" height="26" as="geometry" />
        </mxCell>
        <mxCell id="XKCMbLRjZycL2p7mwECD-6" value="+ add(AbstractBaseObject)" style="text;strokeColor=none;fillColor=none;align=left;verticalAlign=top;spacingLeft=4;spacingRight=4;overflow=hidden;rotatable=0;points=[[0,0.5],[1,0.5]];portConstraint=eastwest;whiteSpace=wrap;html=1;fontSize=12;" parent="XKCMbLRjZycL2p7mwECD-1" vertex="1">
          <mxGeometry y="99" width="170" height="26" as="geometry" />
        </mxCell>
        <mxCell id="XKCMbLRjZycL2p7mwECD-7" value="+ remove(Iterator)" style="text;strokeColor=none;fillColor=none;align=left;verticalAlign=top;spacingLeft=4;spacingRight=4;overflow=hidden;rotatable=0;points=[[0,0.5],[1,0.5]];portConstraint=eastwest;whiteSpace=wrap;html=1;fontSize=12;" parent="XKCMbLRjZycL2p7mwECD-1" vertex="1">
          <mxGeometry y="125" width="170" height="26" as="geometry" />
        </mxCell>
        <mxCell id="XKCMbLRjZycL2p7mwECD-8" value="+ transform(SomeData)&lt;div&gt;скорее всего не нужно&lt;/div&gt;&lt;div&gt;т.к. есть Visitor&lt;/div&gt;" style="text;strokeColor=none;fillColor=none;align=left;verticalAlign=top;spacingLeft=4;spacingRight=4;overflow=hidden;rotatable=0;points=[[0,0.5],[1,0.5]];portConstraint=eastwest;whiteSpace=wrap;html=1;fontSize=12;" parent="XKCMbLRjZycL2p7mwECD-1" vertex="1">
          <mxGeometry y="151" width="170" height="52" as="geometry" />
        </mxCell>
        <mxCell id="XKCMbLRjZycL2p7mwECD-11" value="+ accept(Visitor)" style="text;strokeColor=none;fillColor=none;align=left;verticalAlign=top;spacingLeft=4;spacingRight=4;overflow=hidden;rotatable=0;points=[[0,0.5],[1,0.5]];portConstraint=eastwest;whiteSpace=wrap;html=1;fontSize=12;" parent="XKCMbLRjZycL2p7mwECD-1" vertex="1">
          <mxGeometry y="203" width="170" height="26" as="geometry" />
        </mxCell>
        <mxCell id="XKCMbLRjZycL2p7mwECD-9" value="+ isComposite()" style="text;strokeColor=none;fillColor=none;align=left;verticalAlign=top;spacingLeft=4;spacingRight=4;overflow=hidden;rotatable=0;points=[[0,0.5],[1,0.5]];portConstraint=eastwest;whiteSpace=wrap;html=1;fontSize=12;" parent="XKCMbLRjZycL2p7mwECD-1" vertex="1">
          <mxGeometry y="229" width="170" height="26" as="geometry" />
        </mxCell>
        <mxCell id="XKCMbLRjZycL2p7mwECD-12" value="&lt;font style=&quot;font-size: 12px;&quot;&gt;MeshModel&lt;/font&gt;" style="swimlane;fontStyle=1;align=center;verticalAlign=top;childLayout=stackLayout;horizontal=1;startSize=26;horizontalStack=0;resizeParent=1;resizeParentMax=0;resizeLast=0;collapsible=1;marginBottom=0;whiteSpace=wrap;html=1;fontFamily=Helvetica;fontSize=11;fontColor=default;labelBackgroundColor=default;" parent="1" vertex="1">
          <mxGeometry x="380" y="-490" width="280" height="86" as="geometry" />
        </mxCell>
        <mxCell id="wG5N-X-KkEXGidf3OUgP-1" value="&lt;font style=&quot;font-size: 12px;&quot;&gt;- impl: shared_ptr&amp;lt;AbstractModelImplementation&amp;gt;&lt;/font&gt;" style="text;strokeColor=none;fillColor=none;align=left;verticalAlign=top;spacingLeft=4;spacingRight=4;overflow=hidden;rotatable=0;points=[[0,0.5],[1,0.5]];portConstraint=eastwest;whiteSpace=wrap;html=1;fontFamily=Helvetica;fontSize=11;fontColor=default;labelBackgroundColor=default;" parent="XKCMbLRjZycL2p7mwECD-12" vertex="1">
          <mxGeometry y="26" width="280" height="26" as="geometry" />
        </mxCell>
        <mxCell id="wKxoVZ1P2395qQsacJGO-1" value="&lt;font style=&quot;font-size: 12px;&quot;&gt;- isVisible: Bool&lt;/font&gt;" style="text;strokeColor=none;fillColor=none;align=left;verticalAlign=top;spacingLeft=4;spacingRight=4;overflow=hidden;rotatable=0;points=[[0,0.5],[1,0.5]];portConstraint=eastwest;whiteSpace=wrap;html=1;fontFamily=Helvetica;fontSize=11;fontColor=default;labelBackgroundColor=default;" parent="XKCMbLRjZycL2p7mwECD-12" vertex="1">
          <mxGeometry y="52" width="280" height="26" as="geometry" />
        </mxCell>
        <mxCell id="XKCMbLRjZycL2p7mwECD-14" value="" style="line;strokeWidth=1;fillColor=none;align=left;verticalAlign=middle;spacingTop=-1;spacingLeft=3;spacingRight=3;rotatable=0;labelPosition=right;points=[];portConstraint=eastwest;strokeColor=inherit;fontFamily=Helvetica;fontSize=11;fontColor=default;labelBackgroundColor=default;" parent="XKCMbLRjZycL2p7mwECD-12" vertex="1">
          <mxGeometry y="78" width="280" height="8" as="geometry" />
        </mxCell>
        <mxCell id="XKCMbLRjZycL2p7mwECD-22" value="&lt;font style=&quot;font-size: 12px;&quot;&gt;PerspectiveCamera&lt;/font&gt;" style="swimlane;fontStyle=1;align=center;verticalAlign=top;childLayout=stackLayout;horizontal=1;startSize=26;horizontalStack=0;resizeParent=1;resizeParentMax=0;resizeLast=0;collapsible=1;marginBottom=0;whiteSpace=wrap;html=1;fontFamily=Helvetica;fontSize=11;fontColor=default;labelBackgroundColor=default;" parent="1" vertex="1">
          <mxGeometry x="700" y="-486" width="290" height="60" as="geometry" />
        </mxCell>
        <mxCell id="RoPdo0o82Oh-xpY75AFl-33" value="&lt;font style=&quot;font-size: 12px;&quot;&gt;- impl: shared_ptr&amp;lt;AbstractCameraImplementation&amp;gt;&lt;/font&gt;" style="text;strokeColor=none;fillColor=none;align=left;verticalAlign=top;spacingLeft=4;spacingRight=4;overflow=hidden;rotatable=0;points=[[0,0.5],[1,0.5]];portConstraint=eastwest;whiteSpace=wrap;html=1;fontFamily=Helvetica;fontSize=11;fontColor=default;labelBackgroundColor=default;" parent="XKCMbLRjZycL2p7mwECD-22" vertex="1">
          <mxGeometry y="26" width="290" height="26" as="geometry" />
        </mxCell>
        <mxCell id="XKCMbLRjZycL2p7mwECD-24" value="" style="line;strokeWidth=1;fillColor=none;align=left;verticalAlign=middle;spacingTop=-1;spacingLeft=3;spacingRight=3;rotatable=0;labelPosition=right;points=[];portConstraint=eastwest;strokeColor=inherit;fontFamily=Helvetica;fontSize=11;fontColor=default;labelBackgroundColor=default;" parent="XKCMbLRjZycL2p7mwECD-22" vertex="1">
          <mxGeometry y="52" width="290" height="8" as="geometry" />
        </mxCell>
        <mxCell id="cPvdEGlNGaqBh6omg6_h-73" value="Point" style="swimlane;fontStyle=0;childLayout=stackLayout;horizontal=1;startSize=26;fillColor=none;horizontalStack=0;resizeParent=1;resizeParentMax=0;resizeLast=0;collapsible=1;marginBottom=0;html=1;fontSize=12;" parent="1" vertex="1">
          <mxGeometry x="200" y="20" width="70" height="104" as="geometry">
            <mxRectangle x="-150" y="-320" width="70" height="30" as="alternateBounds" />
          </mxGeometry>
        </mxCell>
        <mxCell id="cPvdEGlNGaqBh6omg6_h-75" value="x" style="text;strokeColor=none;fillColor=none;align=left;verticalAlign=top;spacingLeft=4;spacingRight=4;overflow=hidden;rotatable=0;points=[[0,0.5],[1,0.5]];portConstraint=eastwest;whiteSpace=wrap;html=1;fontSize=12;" parent="cPvdEGlNGaqBh6omg6_h-73" vertex="1">
          <mxGeometry y="26" width="70" height="26" as="geometry" />
        </mxCell>
        <mxCell id="cPvdEGlNGaqBh6omg6_h-76" value="y" style="text;strokeColor=none;fillColor=none;align=left;verticalAlign=top;spacingLeft=4;spacingRight=4;overflow=hidden;rotatable=0;points=[[0,0.5],[1,0.5]];portConstraint=eastwest;whiteSpace=wrap;html=1;fontSize=12;" parent="cPvdEGlNGaqBh6omg6_h-73" vertex="1">
          <mxGeometry y="52" width="70" height="26" as="geometry" />
        </mxCell>
        <mxCell id="cPvdEGlNGaqBh6omg6_h-77" value="z" style="text;strokeColor=none;fillColor=none;align=left;verticalAlign=top;spacingLeft=4;spacingRight=4;overflow=hidden;rotatable=0;points=[[0,0.5],[1,0.5]];portConstraint=eastwest;whiteSpace=wrap;html=1;fontSize=12;" parent="cPvdEGlNGaqBh6omg6_h-73" vertex="1">
          <mxGeometry y="78" width="70" height="26" as="geometry" />
        </mxCell>
        <mxCell id="cPvdEGlNGaqBh6omg6_h-79" value="Edge" style="swimlane;fontStyle=0;childLayout=stackLayout;horizontal=1;startSize=26;fillColor=none;horizontalStack=0;resizeParent=1;resizeParentMax=0;resizeLast=0;collapsible=1;marginBottom=0;html=1;fontSize=12;" parent="1" vertex="1">
          <mxGeometry x="495" y="20" width="70" height="78" as="geometry" />
        </mxCell>
        <mxCell id="cPvdEGlNGaqBh6omg6_h-81" value="start" style="text;strokeColor=none;fillColor=none;align=left;verticalAlign=top;spacingLeft=4;spacingRight=4;overflow=hidden;rotatable=0;points=[[0,0.5],[1,0.5]];portConstraint=eastwest;whiteSpace=wrap;html=1;fontSize=12;" parent="cPvdEGlNGaqBh6omg6_h-79" vertex="1">
          <mxGeometry y="26" width="70" height="26" as="geometry" />
        </mxCell>
        <mxCell id="cPvdEGlNGaqBh6omg6_h-82" value="end" style="text;strokeColor=none;fillColor=none;align=left;verticalAlign=top;spacingLeft=4;spacingRight=4;overflow=hidden;rotatable=0;points=[[0,0.5],[1,0.5]];portConstraint=eastwest;whiteSpace=wrap;html=1;fontSize=12;" parent="cPvdEGlNGaqBh6omg6_h-79" vertex="1">
          <mxGeometry y="52" width="70" height="26" as="geometry" />
        </mxCell>
        <mxCell id="cPvdEGlNGaqBh6omg6_h-90" value="&lt;div&gt;1...N&lt;/div&gt;" style="endArrow=open;html=1;endSize=12;startArrow=diamondThin;startSize=14;startFill=1;edgeStyle=orthogonalEdgeStyle;align=left;verticalAlign=bottom;rounded=0;fontSize=12;labelBackgroundColor=none;" parent="1" source="Hq7AZVbVP9MDkz0-afTN-1" target="cPvdEGlNGaqBh6omg6_h-73" edge="1">
          <mxGeometry x="-0.668" y="-5" relative="1" as="geometry">
            <mxPoint x="220" y="229.9999999999999" as="sourcePoint" />
            <mxPoint x="380" y="229.9999999999999" as="targetPoint" />
            <mxPoint as="offset" />
            <Array as="points">
              <mxPoint x="230" y="-65" />
            </Array>
          </mxGeometry>
        </mxCell>
        <mxCell id="cPvdEGlNGaqBh6omg6_h-92" value="&lt;div&gt;1...N&lt;/div&gt;" style="endArrow=open;html=1;endSize=12;startArrow=diamondThin;startSize=14;startFill=1;edgeStyle=orthogonalEdgeStyle;align=left;verticalAlign=bottom;rounded=0;fontSize=12;labelBackgroundColor=none;" parent="1" source="Hq7AZVbVP9MDkz0-afTN-2" target="cPvdEGlNGaqBh6omg6_h-79" edge="1">
          <mxGeometry x="-0.2903" y="5" relative="1" as="geometry">
            <mxPoint x="30" y="300" as="sourcePoint" />
            <mxPoint x="190" y="300" as="targetPoint" />
            <mxPoint as="offset" />
            <Array as="points">
              <mxPoint x="530" y="-91" />
            </Array>
          </mxGeometry>
        </mxCell>
        <mxCell id="cPvdEGlNGaqBh6omg6_h-184" value="start, end" style="endArrow=open;html=1;endSize=12;startArrow=diamondThin;startSize=14;startFill=1;edgeStyle=orthogonalEdgeStyle;align=left;verticalAlign=bottom;rounded=0;fontSize=12;" parent="1" source="cPvdEGlNGaqBh6omg6_h-155" target="cPvdEGlNGaqBh6omg6_h-73" edge="1">
          <mxGeometry x="-0.7484" y="-6" relative="1" as="geometry">
            <mxPoint x="590" y="-440.0000000000001" as="sourcePoint" />
            <mxPoint x="525" y="-280" as="targetPoint" />
            <Array as="points">
              <mxPoint x="225" y="216" />
            </Array>
            <mxPoint as="offset" />
          </mxGeometry>
        </mxCell>
        <mxCell id="cPvdEGlNGaqBh6omg6_h-159" value="&lt;div&gt;dir (нормаль куда&lt;/div&gt;&lt;div&gt;направлена камера)&lt;/div&gt;" style="endArrow=open;html=1;endSize=12;startArrow=diamondThin;startSize=14;startFill=1;edgeStyle=orthogonalEdgeStyle;align=left;verticalAlign=bottom;rounded=0;fontSize=12;labelBackgroundColor=none;" parent="1" source="RoPdo0o82Oh-xpY75AFl-45" target="cPvdEGlNGaqBh6omg6_h-155" edge="1">
          <mxGeometry x="-0.328" y="10" relative="1" as="geometry">
            <mxPoint x="760" y="-488.0000000000001" as="sourcePoint" />
            <mxPoint x="860" y="202" as="targetPoint" />
            <mxPoint as="offset" />
            <Array as="points">
              <mxPoint x="880" y="-43" />
              <mxPoint x="880" y="216" />
            </Array>
          </mxGeometry>
        </mxCell>
        <mxCell id="cPvdEGlNGaqBh6omg6_h-241" value="&lt;div&gt;&lt;font&gt;pos (положение&amp;nbsp;&lt;/font&gt;&lt;/div&gt;&lt;div&gt;&lt;font&gt;камеры)&lt;/font&gt;&lt;/div&gt;" style="text;html=1;align=center;verticalAlign=middle;resizable=0;points=[];autosize=1;strokeColor=none;fillColor=none;fontSize=12;" parent="1" vertex="1">
          <mxGeometry x="1150" y="-108" width="110" height="40" as="geometry" />
        </mxCell>
        <mxCell id="cPvdEGlNGaqBh6omg6_h-145" value="" style="endArrow=block;endSize=16;endFill=0;html=1;rounded=0;fontSize=12;exitX=0.75;exitY=0;exitDx=0;exitDy=0;" parent="1" source="XKCMbLRjZycL2p7mwECD-12" target="XKCMbLRjZycL2p7mwECD-1" edge="1">
          <mxGeometry width="160" relative="1" as="geometry">
            <mxPoint x="700" y="-497" as="sourcePoint" />
            <mxPoint x="840" y="-547" as="targetPoint" />
            <Array as="points">
              <mxPoint x="590" y="-520" />
              <mxPoint x="835" y="-520" />
            </Array>
          </mxGeometry>
        </mxCell>
        <mxCell id="c2rE2XwYI8c6K55yIRtU-3" value="&lt;span style=&quot;font-size: 12px;&quot;&gt;App&lt;/span&gt;&lt;div&gt;&lt;span style=&quot;font-size: 12px;&quot;&gt;(Facade)&lt;/span&gt;&lt;/div&gt;" style="swimlane;fontStyle=1;align=center;verticalAlign=top;childLayout=stackLayout;horizontal=1;startSize=40;horizontalStack=0;resizeParent=1;resizeParentMax=0;resizeLast=0;collapsible=1;marginBottom=0;whiteSpace=wrap;html=1;fontFamily=Helvetica;fontSize=11;fontColor=default;labelBackgroundColor=default;" parent="1" vertex="1">
          <mxGeometry x="1130" y="-1717" width="170" height="74" as="geometry" />
        </mxCell>
        <mxCell id="c2rE2XwYI8c6K55yIRtU-5" value="" style="line;strokeWidth=1;fillColor=none;align=left;verticalAlign=middle;spacingTop=-1;spacingLeft=3;spacingRight=3;rotatable=0;labelPosition=right;points=[];portConstraint=eastwest;strokeColor=inherit;fontFamily=Helvetica;fontSize=11;fontColor=default;labelBackgroundColor=default;" parent="c2rE2XwYI8c6K55yIRtU-3" vertex="1">
          <mxGeometry y="40" width="170" height="8" as="geometry" />
        </mxCell>
        <mxCell id="c2rE2XwYI8c6K55yIRtU-6" value="&lt;font style=&quot;font-size: 12px;&quot;&gt;+ run(AbstractCommand)&lt;/font&gt;" style="text;strokeColor=none;fillColor=none;align=left;verticalAlign=top;spacingLeft=4;spacingRight=4;overflow=hidden;rotatable=0;points=[[0,0.5],[1,0.5]];portConstraint=eastwest;whiteSpace=wrap;html=1;fontFamily=Helvetica;fontSize=11;fontColor=default;labelBackgroundColor=default;" parent="c2rE2XwYI8c6K55yIRtU-3" vertex="1">
          <mxGeometry y="48" width="170" height="26" as="geometry" />
        </mxCell>
        <mxCell id="zwMOwET7UwCbSNvbeqeT-5" value="AddCommand" style="swimlane;fontStyle=0;childLayout=stackLayout;horizontal=1;startSize=26;fillColor=none;horizontalStack=0;resizeParent=1;resizeParentMax=0;resizeLast=0;collapsible=1;marginBottom=0;html=1;fontFamily=Helvetica;fontSize=12;fontColor=default;labelBackgroundColor=default;" parent="1" vertex="1">
          <mxGeometry x="2000" y="-360" width="120" height="52" as="geometry" />
        </mxCell>
        <mxCell id="zwMOwET7UwCbSNvbeqeT-6" value="execute()" style="text;strokeColor=none;fillColor=none;align=left;verticalAlign=top;spacingLeft=4;spacingRight=4;overflow=hidden;rotatable=0;points=[[0,0.5],[1,0.5]];portConstraint=eastwest;whiteSpace=wrap;html=1;fontFamily=Helvetica;fontSize=12;fontColor=default;labelBackgroundColor=default;" parent="zwMOwET7UwCbSNvbeqeT-5" vertex="1">
          <mxGeometry y="26" width="120" height="26" as="geometry" />
        </mxCell>
        <mxCell id="zwMOwET7UwCbSNvbeqeT-7" value="RemoveCommand" style="swimlane;fontStyle=0;childLayout=stackLayout;horizontal=1;startSize=26;fillColor=none;horizontalStack=0;resizeParent=1;resizeParentMax=0;resizeLast=0;collapsible=1;marginBottom=0;html=1;fontFamily=Helvetica;fontSize=12;fontColor=default;labelBackgroundColor=default;" parent="1" vertex="1">
          <mxGeometry x="2140" y="-360" width="140" height="52" as="geometry" />
        </mxCell>
        <mxCell id="zwMOwET7UwCbSNvbeqeT-8" value="execute()" style="text;strokeColor=none;fillColor=none;align=left;verticalAlign=top;spacingLeft=4;spacingRight=4;overflow=hidden;rotatable=0;points=[[0,0.5],[1,0.5]];portConstraint=eastwest;whiteSpace=wrap;html=1;fontFamily=Helvetica;fontSize=12;fontColor=default;labelBackgroundColor=default;" parent="zwMOwET7UwCbSNvbeqeT-7" vertex="1">
          <mxGeometry y="26" width="140" height="26" as="geometry" />
        </mxCell>
        <mxCell id="diFloX-7bK_cXEiW6560-1" value="RotateCommand" style="swimlane;fontStyle=0;childLayout=stackLayout;horizontal=1;startSize=26;fillColor=none;horizontalStack=0;resizeParent=1;resizeParentMax=0;resizeLast=0;collapsible=1;marginBottom=0;html=1;fontFamily=Helvetica;fontSize=12;fontColor=default;labelBackgroundColor=default;" parent="1" vertex="1">
          <mxGeometry x="1688.75" y="-360" width="142.5" height="52" as="geometry" />
        </mxCell>
        <mxCell id="diFloX-7bK_cXEiW6560-2" value="execute()" style="text;strokeColor=none;fillColor=none;align=left;verticalAlign=top;spacingLeft=4;spacingRight=4;overflow=hidden;rotatable=0;points=[[0,0.5],[1,0.5]];portConstraint=eastwest;whiteSpace=wrap;html=1;fontFamily=Helvetica;fontSize=12;fontColor=default;labelBackgroundColor=default;" parent="diFloX-7bK_cXEiW6560-1" vertex="1">
          <mxGeometry y="26" width="142.5" height="26" as="geometry" />
        </mxCell>
        <mxCell id="Mvj8UcWhHONBCkcRYDLu-1" value="SelectCommand" style="swimlane;fontStyle=0;childLayout=stackLayout;horizontal=1;startSize=26;fillColor=none;horizontalStack=0;resizeParent=1;resizeParentMax=0;resizeLast=0;collapsible=1;marginBottom=0;html=1;fontFamily=Helvetica;fontSize=12;fontColor=default;labelBackgroundColor=default;" parent="1" vertex="1">
          <mxGeometry x="2300" y="-360" width="150" height="52" as="geometry" />
        </mxCell>
        <mxCell id="Mvj8UcWhHONBCkcRYDLu-2" value="execute()" style="text;strokeColor=none;fillColor=none;align=left;verticalAlign=top;spacingLeft=4;spacingRight=4;overflow=hidden;rotatable=0;points=[[0,0.5],[1,0.5]];portConstraint=eastwest;whiteSpace=wrap;html=1;fontFamily=Helvetica;fontSize=12;fontColor=default;labelBackgroundColor=default;" parent="Mvj8UcWhHONBCkcRYDLu-1" vertex="1">
          <mxGeometry y="26" width="150" height="26" as="geometry" />
        </mxCell>
        <mxCell id="TeB88FTle7vYlqC0S7K_-5" value="DrawCommand" style="swimlane;fontStyle=0;childLayout=stackLayout;horizontal=1;startSize=26;fillColor=none;horizontalStack=0;resizeParent=1;resizeParentMax=0;resizeLast=0;collapsible=1;marginBottom=0;html=1;fontFamily=Helvetica;fontSize=12;fontColor=default;labelBackgroundColor=default;" parent="1" vertex="1">
          <mxGeometry x="2490" y="-360" width="140" height="52" as="geometry" />
        </mxCell>
        <mxCell id="TeB88FTle7vYlqC0S7K_-6" value="execute()" style="text;strokeColor=none;fillColor=none;align=left;verticalAlign=top;spacingLeft=4;spacingRight=4;overflow=hidden;rotatable=0;points=[[0,0.5],[1,0.5]];portConstraint=eastwest;whiteSpace=wrap;html=1;fontFamily=Helvetica;fontSize=12;fontColor=default;labelBackgroundColor=default;" parent="TeB88FTle7vYlqC0S7K_-5" vertex="1">
          <mxGeometry y="26" width="140" height="26" as="geometry" />
        </mxCell>
        <mxCell id="FDf2tdCzrQthrolSkbi6-3" value="" style="endArrow=block;endSize=16;endFill=0;html=1;rounded=0;strokeColor=default;align=left;verticalAlign=bottom;fontFamily=Helvetica;fontSize=12;fontColor=default;labelBackgroundColor=default;edgeStyle=orthogonalEdgeStyle;" parent="1" source="TeB88FTle7vYlqC0S7K_-5" target="3kRf3ehpMCgD7gB9vPQS-1" edge="1">
          <mxGeometry width="160" relative="1" as="geometry">
            <mxPoint x="3530" y="-360" as="sourcePoint" />
            <mxPoint x="3400.000000000002" y="-458" as="targetPoint" />
            <Array as="points">
              <mxPoint x="2600" y="-400" />
              <mxPoint x="1760" y="-400" />
            </Array>
          </mxGeometry>
        </mxCell>
        <mxCell id="Mvj8UcWhHONBCkcRYDLu-5" value="ClearCommand" style="swimlane;fontStyle=0;childLayout=stackLayout;horizontal=1;startSize=26;fillColor=none;horizontalStack=0;resizeParent=1;resizeParentMax=0;resizeLast=0;collapsible=1;marginBottom=0;html=1;fontFamily=Helvetica;fontSize=12;fontColor=default;labelBackgroundColor=default;" parent="1" vertex="1">
          <mxGeometry x="2690" y="-360" width="160" height="52" as="geometry" />
        </mxCell>
        <mxCell id="Mvj8UcWhHONBCkcRYDLu-6" value="execute()" style="text;strokeColor=none;fillColor=none;align=left;verticalAlign=top;spacingLeft=4;spacingRight=4;overflow=hidden;rotatable=0;points=[[0,0.5],[1,0.5]];portConstraint=eastwest;whiteSpace=wrap;html=1;fontFamily=Helvetica;fontSize=12;fontColor=default;labelBackgroundColor=default;" parent="Mvj8UcWhHONBCkcRYDLu-5" vertex="1">
          <mxGeometry y="26" width="160" height="26" as="geometry" />
        </mxCell>
        <mxCell id="ICXXM0nMkD0NIZgYnPHD-2" value="&lt;font style=&quot;font-size: 12px;&quot;&gt;Memento&lt;/font&gt;" style="swimlane;fontStyle=1;align=center;verticalAlign=top;childLayout=stackLayout;horizontal=1;startSize=26;horizontalStack=0;resizeParent=1;resizeParentMax=0;resizeLast=0;collapsible=1;marginBottom=0;whiteSpace=wrap;html=1;fontFamily=Helvetica;fontSize=11;fontColor=default;labelBackgroundColor=none;" parent="1" vertex="1">
          <mxGeometry x="305" y="-647.5" width="180" height="112" as="geometry" />
        </mxCell>
        <mxCell id="ICXXM0nMkD0NIZgYnPHD-3" value="&lt;font style=&quot;font-size: 12px;&quot;&gt;- originator:&amp;nbsp;&lt;/font&gt;&lt;span style=&quot;font-size: 12px; background-color: rgb(255, 255, 255);&quot;&gt;ReverseCommand&lt;/span&gt;" style="text;strokeColor=none;fillColor=none;align=left;verticalAlign=top;spacingLeft=4;spacingRight=4;overflow=hidden;rotatable=0;points=[[0,0.5],[1,0.5]];portConstraint=eastwest;whiteSpace=wrap;html=1;fontFamily=Helvetica;fontSize=11;fontColor=default;labelBackgroundColor=none;" parent="ICXXM0nMkD0NIZgYnPHD-2" vertex="1">
          <mxGeometry y="26" width="180" height="26" as="geometry" />
        </mxCell>
        <mxCell id="ICXXM0nMkD0NIZgYnPHD-4" value="" style="line;strokeWidth=1;fillColor=none;align=left;verticalAlign=middle;spacingTop=-1;spacingLeft=3;spacingRight=3;rotatable=0;labelPosition=right;points=[];portConstraint=eastwest;strokeColor=inherit;fontFamily=Helvetica;fontSize=11;fontColor=default;labelBackgroundColor=default;" parent="ICXXM0nMkD0NIZgYnPHD-2" vertex="1">
          <mxGeometry y="52" width="180" height="8" as="geometry" />
        </mxCell>
        <mxCell id="ICXXM0nMkD0NIZgYnPHD-5" value="&lt;font style=&quot;font-size: 12px;&quot;&gt;+ set(&lt;span style=&quot;background-color: rgb(255, 255, 255);&quot;&gt;ReverseCommand&lt;/span&gt;)&lt;/font&gt;" style="text;strokeColor=none;fillColor=none;align=left;verticalAlign=top;spacingLeft=4;spacingRight=4;overflow=hidden;rotatable=0;points=[[0,0.5],[1,0.5]];portConstraint=eastwest;whiteSpace=wrap;html=1;fontFamily=Helvetica;fontSize=11;fontColor=default;labelBackgroundColor=none;" parent="ICXXM0nMkD0NIZgYnPHD-2" vertex="1">
          <mxGeometry y="60" width="180" height="26" as="geometry" />
        </mxCell>
        <mxCell id="ICXXM0nMkD0NIZgYnPHD-6" value="&lt;font style=&quot;font-size: 12px;&quot;&gt;+ get():&amp;nbsp;&lt;/font&gt;&lt;span style=&quot;font-size: 12px; background-color: rgb(255, 255, 255);&quot;&gt;ReverseCommand&lt;/span&gt;" style="text;strokeColor=none;fillColor=none;align=left;verticalAlign=top;spacingLeft=4;spacingRight=4;overflow=hidden;rotatable=0;points=[[0,0.5],[1,0.5]];portConstraint=eastwest;whiteSpace=wrap;html=1;fontFamily=Helvetica;fontSize=11;fontColor=default;labelBackgroundColor=none;" parent="ICXXM0nMkD0NIZgYnPHD-2" vertex="1">
          <mxGeometry y="86" width="180" height="26" as="geometry" />
        </mxCell>
        <mxCell id="u2FI89r8CwK6sa5D9h_b-1" value="&lt;font&gt;Создание объекта&lt;/font&gt;" style="shape=umlFrame;whiteSpace=wrap;html=1;pointerEvents=0;recursiveResize=0;container=0;collapsible=0;width=160;fontFamily=Helvetica;fontSize=12;fontColor=default;labelBackgroundColor=default;" parent="1" vertex="1">
          <mxGeometry x="-1400" y="-1020" width="1500" height="1000" as="geometry" />
        </mxCell>
        <mxCell id="UeiFVOSWFEQmsvZjEIMp-3" value="&lt;font style=&quot;font-size: 12px;&quot;&gt;CareTaker&lt;/font&gt;&lt;div&gt;&lt;font style=&quot;font-size: 12px;&quot;&gt;(Memento)&lt;/font&gt;&lt;/div&gt;" style="swimlane;fontStyle=1;align=center;verticalAlign=top;childLayout=stackLayout;horizontal=1;startSize=40;horizontalStack=0;resizeParent=1;resizeParentMax=0;resizeLast=0;collapsible=1;marginBottom=0;whiteSpace=wrap;html=1;fontFamily=Helvetica;fontSize=11;fontColor=default;labelBackgroundColor=default;" parent="1" vertex="1">
          <mxGeometry x="285" y="-840" width="220" height="126" as="geometry" />
        </mxCell>
        <mxCell id="UeiFVOSWFEQmsvZjEIMp-4" value="&lt;font style=&quot;font-size: 12px;&quot;&gt;- mementoes: List&amp;lt;ReverseCommand&amp;gt;&lt;/font&gt;" style="text;strokeColor=none;fillColor=none;align=left;verticalAlign=top;spacingLeft=4;spacingRight=4;overflow=hidden;rotatable=0;points=[[0,0.5],[1,0.5]];portConstraint=eastwest;whiteSpace=wrap;html=1;fontFamily=Helvetica;fontSize=11;fontColor=default;labelBackgroundColor=default;" parent="UeiFVOSWFEQmsvZjEIMp-3" vertex="1">
          <mxGeometry y="40" width="220" height="26" as="geometry" />
        </mxCell>
        <mxCell id="UeiFVOSWFEQmsvZjEIMp-5" value="" style="line;strokeWidth=1;fillColor=none;align=left;verticalAlign=middle;spacingTop=-1;spacingLeft=3;spacingRight=3;rotatable=0;labelPosition=right;points=[];portConstraint=eastwest;strokeColor=inherit;fontFamily=Helvetica;fontSize=11;fontColor=default;labelBackgroundColor=default;" parent="UeiFVOSWFEQmsvZjEIMp-3" vertex="1">
          <mxGeometry y="66" width="220" height="8" as="geometry" />
        </mxCell>
        <mxCell id="UeiFVOSWFEQmsvZjEIMp-6" value="&lt;font style=&quot;font-size: 12px;&quot;&gt;+ set(Memento)&lt;/font&gt;" style="text;strokeColor=none;fillColor=none;align=left;verticalAlign=top;spacingLeft=4;spacingRight=4;overflow=hidden;rotatable=0;points=[[0,0.5],[1,0.5]];portConstraint=eastwest;whiteSpace=wrap;html=1;fontFamily=Helvetica;fontSize=11;fontColor=default;labelBackgroundColor=default;" parent="UeiFVOSWFEQmsvZjEIMp-3" vertex="1">
          <mxGeometry y="74" width="220" height="26" as="geometry" />
        </mxCell>
        <mxCell id="UeiFVOSWFEQmsvZjEIMp-8" value="&lt;font style=&quot;font-size: 12px;&quot;&gt;+ get(): Memento&lt;/font&gt;" style="text;strokeColor=none;fillColor=none;align=left;verticalAlign=top;spacingLeft=4;spacingRight=4;overflow=hidden;rotatable=0;points=[[0,0.5],[1,0.5]];portConstraint=eastwest;whiteSpace=wrap;html=1;fontFamily=Helvetica;fontSize=11;fontColor=default;labelBackgroundColor=default;" parent="UeiFVOSWFEQmsvZjEIMp-3" vertex="1">
          <mxGeometry y="100" width="220" height="26" as="geometry" />
        </mxCell>
        <mxCell id="UeiFVOSWFEQmsvZjEIMp-7" value="0..*" style="endArrow=open;html=1;endSize=12;startArrow=diamondThin;startSize=14;startFill=0;edgeStyle=orthogonalEdgeStyle;align=left;verticalAlign=bottom;rounded=0;labelBackgroundColor=none;" parent="1" source="UeiFVOSWFEQmsvZjEIMp-3" target="ICXXM0nMkD0NIZgYnPHD-2" edge="1">
          <mxGeometry x="-0.5451" y="10" relative="1" as="geometry">
            <mxPoint x="550" y="-739.75" as="sourcePoint" />
            <mxPoint x="710" y="-739.75" as="targetPoint" />
            <mxPoint as="offset" />
          </mxGeometry>
        </mxCell>
        <mxCell id="NRLG7sIxvqWeJf_N3PLe-5" value="&lt;font&gt;LoadService&lt;/font&gt;" style="swimlane;fontStyle=1;align=center;verticalAlign=top;childLayout=stackLayout;horizontal=1;startSize=26;horizontalStack=0;resizeParent=1;resizeParentMax=0;resizeLast=0;collapsible=1;marginBottom=0;whiteSpace=wrap;html=1;fontFamily=Helvetica;fontSize=12;fontColor=default;labelBackgroundColor=default;" parent="1" vertex="1">
          <mxGeometry x="500" y="-1360" width="170" height="86" as="geometry" />
        </mxCell>
        <mxCell id="NRLG7sIxvqWeJf_N3PLe-6" value="&lt;font&gt;-&lt;/font&gt;" style="text;strokeColor=none;fillColor=none;align=left;verticalAlign=top;spacingLeft=4;spacingRight=4;overflow=hidden;rotatable=0;points=[[0,0.5],[1,0.5]];portConstraint=eastwest;whiteSpace=wrap;html=1;fontFamily=Helvetica;fontSize=12;fontColor=default;labelBackgroundColor=default;" parent="NRLG7sIxvqWeJf_N3PLe-5" vertex="1">
          <mxGeometry y="26" width="170" height="26" as="geometry" />
        </mxCell>
        <mxCell id="NRLG7sIxvqWeJf_N3PLe-7" value="" style="line;strokeWidth=1;fillColor=none;align=left;verticalAlign=middle;spacingTop=-1;spacingLeft=3;spacingRight=3;rotatable=0;labelPosition=right;points=[];portConstraint=eastwest;strokeColor=inherit;fontFamily=Helvetica;fontSize=12;fontColor=default;labelBackgroundColor=default;" parent="NRLG7sIxvqWeJf_N3PLe-5" vertex="1">
          <mxGeometry y="52" width="170" height="8" as="geometry" />
        </mxCell>
        <mxCell id="NRLG7sIxvqWeJf_N3PLe-9" value="&lt;font&gt;+ load():&amp;nbsp;&lt;/font&gt;&lt;span style=&quot;text-align: center; text-wrap-mode: nowrap;&quot;&gt;AbstractBaseObject&lt;/span&gt;" style="text;strokeColor=none;fillColor=none;align=left;verticalAlign=top;spacingLeft=4;spacingRight=4;overflow=hidden;rotatable=0;points=[[0,0.5],[1,0.5]];portConstraint=eastwest;whiteSpace=wrap;html=1;fontFamily=Helvetica;fontSize=12;fontColor=default;labelBackgroundColor=none;" parent="NRLG7sIxvqWeJf_N3PLe-5" vertex="1">
          <mxGeometry y="60" width="170" height="26" as="geometry" />
        </mxCell>
        <mxCell id="810LwUm_DHEYBSZ7W7pD-4" value="" style="endArrow=none;dashed=1;html=1;rounded=0;exitX=0.5;exitY=0;exitDx=0;exitDy=0;" parent="1" source="ZTmcAJ3pDBRZLvcQVgv7-1" edge="1">
          <mxGeometry width="50" height="50" relative="1" as="geometry">
            <mxPoint x="220" y="-1360" as="sourcePoint" />
            <mxPoint x="400" y="-1430" as="targetPoint" />
            <Array as="points">
              <mxPoint x="-15" y="-1430" />
            </Array>
          </mxGeometry>
        </mxCell>
        <mxCell id="FzEgh_9gIUIp0z8psVSO-1" value="&lt;font&gt;SceneService&lt;/font&gt;" style="swimlane;fontStyle=1;align=center;verticalAlign=top;childLayout=stackLayout;horizontal=1;startSize=26;horizontalStack=0;resizeParent=1;resizeParentMax=0;resizeLast=0;collapsible=1;marginBottom=0;whiteSpace=wrap;html=1;fontFamily=Helvetica;fontSize=12;fontColor=default;labelBackgroundColor=default;" parent="1" vertex="1">
          <mxGeometry x="690" y="-1360" width="170" height="86" as="geometry" />
        </mxCell>
        <mxCell id="FzEgh_9gIUIp0z8psVSO-2" value="&lt;font&gt;- scene: Scene&lt;/font&gt;" style="text;strokeColor=none;fillColor=none;align=left;verticalAlign=top;spacingLeft=4;spacingRight=4;overflow=hidden;rotatable=0;points=[[0,0.5],[1,0.5]];portConstraint=eastwest;whiteSpace=wrap;html=1;fontFamily=Helvetica;fontSize=12;fontColor=default;labelBackgroundColor=default;" parent="FzEgh_9gIUIp0z8psVSO-1" vertex="1">
          <mxGeometry y="26" width="170" height="26" as="geometry" />
        </mxCell>
        <mxCell id="FzEgh_9gIUIp0z8psVSO-3" value="" style="line;strokeWidth=1;fillColor=none;align=left;verticalAlign=middle;spacingTop=-1;spacingLeft=3;spacingRight=3;rotatable=0;labelPosition=right;points=[];portConstraint=eastwest;strokeColor=inherit;fontFamily=Helvetica;fontSize=12;fontColor=default;labelBackgroundColor=default;" parent="FzEgh_9gIUIp0z8psVSO-1" vertex="1">
          <mxGeometry y="52" width="170" height="8" as="geometry" />
        </mxCell>
        <mxCell id="FzEgh_9gIUIp0z8psVSO-5" value="&lt;font&gt;+ getScene(): Scene&lt;/font&gt;" style="text;strokeColor=none;fillColor=none;align=left;verticalAlign=top;spacingLeft=4;spacingRight=4;overflow=hidden;rotatable=0;points=[[0,0.5],[1,0.5]];portConstraint=eastwest;whiteSpace=wrap;html=1;fontFamily=Helvetica;fontSize=12;fontColor=default;labelBackgroundColor=default;" parent="FzEgh_9gIUIp0z8psVSO-1" vertex="1">
          <mxGeometry y="60" width="170" height="26" as="geometry" />
        </mxCell>
        <mxCell id="FzEgh_9gIUIp0z8psVSO-6" value="" style="endArrow=none;dashed=1;html=1;rounded=0;" parent="1" edge="1">
          <mxGeometry width="50" height="50" relative="1" as="geometry">
            <mxPoint x="780" y="-1360" as="sourcePoint" />
            <mxPoint x="400" y="-1430" as="targetPoint" />
            <Array as="points">
              <mxPoint x="780" y="-1430" />
            </Array>
          </mxGeometry>
        </mxCell>
        <mxCell id="n1mxjAAYdrzuUSr4x3EM-1" value="" style="endArrow=open;html=1;endSize=12;startArrow=diamondThin;startSize=14;startFill=0;edgeStyle=orthogonalEdgeStyle;align=left;verticalAlign=bottom;rounded=0;" parent="1" source="ZTmcAJ3pDBRZLvcQVgv7-1" target="FzEgh_9gIUIp0z8psVSO-1" edge="1">
          <mxGeometry x="-0.8439" y="-90" relative="1" as="geometry">
            <mxPoint x="290" y="-1190" as="sourcePoint" />
            <mxPoint x="450" y="-1190" as="targetPoint" />
            <Array as="points">
              <mxPoint x="100" y="-1304" />
              <mxPoint x="100" y="-1220" />
              <mxPoint x="775" y="-1220" />
            </Array>
            <mxPoint as="offset" />
          </mxGeometry>
        </mxCell>
        <mxCell id="HS2BynOPkBKycT6sax5F-1" value="&lt;font style=&quot;font-size: 14px;&quot;&gt;Пункт управления&lt;/font&gt;&lt;div&gt;&lt;font style=&quot;font-size: 14px;&quot;&gt;Service&lt;/font&gt;&lt;/div&gt;" style="shape=umlFrame;whiteSpace=wrap;html=1;pointerEvents=0;recursiveResize=0;container=0;collapsible=0;width=160;fontFamily=Helvetica;fontSize=11;fontColor=default;labelBackgroundColor=default;height=40;" parent="1" vertex="1">
          <mxGeometry x="-170" y="-1550" width="1080" height="350" as="geometry" />
        </mxCell>
        <mxCell id="hptr62GPd82l45nY70tC-1" value="" style="endArrow=open;html=1;endSize=12;startArrow=diamondThin;startSize=14;startFill=1;edgeStyle=orthogonalEdgeStyle;align=left;verticalAlign=bottom;rounded=0;" parent="1" source="c2rE2XwYI8c6K55yIRtU-3" target="lUi3iKVNbrLK-EijGhGv-1" edge="1">
          <mxGeometry x="-0.8947" y="20" relative="1" as="geometry">
            <mxPoint x="1280" y="-1629.888888888889" as="sourcePoint" />
            <mxPoint x="1130" y="-1420" as="targetPoint" />
            <mxPoint as="offset" />
          </mxGeometry>
        </mxCell>
        <mxCell id="pGmreadEKi0EWXG7oij1-1" value="" style="endArrow=open;html=1;endSize=12;startArrow=diamondThin;startSize=14;startFill=0;edgeStyle=orthogonalEdgeStyle;align=left;verticalAlign=bottom;rounded=0;" parent="1" source="ZTmcAJ3pDBRZLvcQVgv7-1" target="FzEgh_9gIUIp0z8psVSO-1" edge="1">
          <mxGeometry x="-0.8114" y="-20" relative="1" as="geometry">
            <mxPoint x="720" y="-1160" as="sourcePoint" />
            <mxPoint x="880" y="-1160" as="targetPoint" />
            <Array as="points">
              <mxPoint x="20" y="-1410" />
              <mxPoint x="760" y="-1410" />
            </Array>
            <mxPoint as="offset" />
          </mxGeometry>
        </mxCell>
        <mxCell id="fLmFWIi3DFZ6zmxl1F2I-1" value="" style="endArrow=open;html=1;endSize=12;startArrow=diamondThin;startSize=14;startFill=0;edgeStyle=orthogonalEdgeStyle;align=left;verticalAlign=bottom;rounded=0;exitX=0.498;exitY=1.04;exitDx=0;exitDy=0;exitPerimeter=0;" parent="1" source="NRLG7sIxvqWeJf_N3PLe-9" target="SluWU2ijYfoVzkfLN9AI-1" edge="1">
          <mxGeometry x="-0.8782" y="25" relative="1" as="geometry">
            <mxPoint x="670" y="-1030" as="sourcePoint" />
            <mxPoint x="830" y="-1030" as="targetPoint" />
            <Array as="points">
              <mxPoint x="585" y="-1160" />
            </Array>
            <mxPoint as="offset" />
          </mxGeometry>
        </mxCell>
        <mxCell id="c1MUPeKeGwzt3wXR6Me--1" value="" style="endArrow=open;html=1;endSize=12;startArrow=diamondThin;startSize=14;startFill=0;edgeStyle=orthogonalEdgeStyle;align=left;verticalAlign=bottom;rounded=0;" parent="1" source="NRLG7sIxvqWeJf_N3PLe-10" target="FzEgh_9gIUIp0z8psVSO-1" edge="1">
          <mxGeometry x="-1" y="-10" relative="1" as="geometry">
            <mxPoint x="565" y="-1460" as="sourcePoint" />
            <mxPoint x="725" y="-1460" as="targetPoint" />
            <Array as="points">
              <mxPoint x="420" y="-1390" />
              <mxPoint x="740" y="-1390" />
            </Array>
            <mxPoint as="offset" />
          </mxGeometry>
        </mxCell>
        <mxCell id="UeiFVOSWFEQmsvZjEIMp-9" value="1" style="endArrow=open;html=1;endSize=12;startArrow=diamondThin;startSize=14;startFill=1;edgeStyle=orthogonalEdgeStyle;align=left;verticalAlign=bottom;rounded=0;" parent="1" source="NRLG7sIxvqWeJf_N3PLe-10" target="UeiFVOSWFEQmsvZjEIMp-3" edge="1">
          <mxGeometry x="-1" y="3" relative="1" as="geometry">
            <mxPoint x="410" y="-970.0000000000001" as="sourcePoint" />
            <mxPoint x="570" y="-970.0000000000001" as="targetPoint" />
          </mxGeometry>
        </mxCell>
        <mxCell id="c1MUPeKeGwzt3wXR6Me--2" value="" style="html=1;verticalAlign=bottom;labelBackgroundColor=none;endArrow=none;endFill=0;endSize=12;align=left;rounded=0;startSize=14;dashed=1;" parent="1" source="NRLG7sIxvqWeJf_N3PLe-5" edge="1">
          <mxGeometry x="-1" relative="1" as="geometry">
            <mxPoint x="590" y="-1460" as="sourcePoint" />
            <mxPoint x="585" y="-1430" as="targetPoint" />
          </mxGeometry>
        </mxCell>
        <mxCell id="NRLG7sIxvqWeJf_N3PLe-10" value="&lt;font&gt;TransformService&lt;/font&gt;" style="swimlane;fontStyle=1;align=center;verticalAlign=top;childLayout=stackLayout;horizontal=1;startSize=26;horizontalStack=0;resizeParent=1;resizeParentMax=0;resizeLast=0;collapsible=1;marginBottom=0;whiteSpace=wrap;html=1;fontFamily=Helvetica;fontSize=12;fontColor=default;labelBackgroundColor=default;" parent="1" vertex="1">
          <mxGeometry x="310" y="-1360" width="170" height="86" as="geometry" />
        </mxCell>
        <mxCell id="NRLG7sIxvqWeJf_N3PLe-11" value="&lt;font&gt;- careTaker: ModelCareTaker&lt;/font&gt;" style="text;strokeColor=none;fillColor=none;align=left;verticalAlign=top;spacingLeft=4;spacingRight=4;overflow=hidden;rotatable=0;points=[[0,0.5],[1,0.5]];portConstraint=eastwest;whiteSpace=wrap;html=1;fontFamily=Helvetica;fontSize=12;fontColor=default;labelBackgroundColor=default;" parent="NRLG7sIxvqWeJf_N3PLe-10" vertex="1">
          <mxGeometry y="26" width="170" height="26" as="geometry" />
        </mxCell>
        <mxCell id="NRLG7sIxvqWeJf_N3PLe-12" value="" style="line;strokeWidth=1;fillColor=none;align=left;verticalAlign=middle;spacingTop=-1;spacingLeft=3;spacingRight=3;rotatable=0;labelPosition=right;points=[];portConstraint=eastwest;strokeColor=inherit;fontFamily=Helvetica;fontSize=12;fontColor=default;labelBackgroundColor=default;" parent="NRLG7sIxvqWeJf_N3PLe-10" vertex="1">
          <mxGeometry y="52" width="170" height="8" as="geometry" />
        </mxCell>
        <mxCell id="NRLG7sIxvqWeJf_N3PLe-14" value="&lt;font&gt;+ apply()&lt;/font&gt;" style="text;strokeColor=none;fillColor=none;align=left;verticalAlign=top;spacingLeft=4;spacingRight=4;overflow=hidden;rotatable=0;points=[[0,0.5],[1,0.5]];portConstraint=eastwest;whiteSpace=wrap;html=1;fontFamily=Helvetica;fontSize=12;fontColor=default;labelBackgroundColor=default;" parent="NRLG7sIxvqWeJf_N3PLe-10" vertex="1">
          <mxGeometry y="60" width="170" height="26" as="geometry" />
        </mxCell>
        <mxCell id="ZTmcAJ3pDBRZLvcQVgv7-1" value="&lt;font&gt;DrawService&lt;/font&gt;" style="swimlane;fontStyle=1;align=center;verticalAlign=top;childLayout=stackLayout;horizontal=1;startSize=26;horizontalStack=0;resizeParent=1;resizeParentMax=0;resizeLast=0;collapsible=1;marginBottom=0;whiteSpace=wrap;html=1;fontFamily=Helvetica;fontSize=12;fontColor=default;labelBackgroundColor=default;" parent="1" vertex="1">
          <mxGeometry x="-100" y="-1360" width="170" height="112" as="geometry" />
        </mxCell>
        <mxCell id="ZTmcAJ3pDBRZLvcQVgv7-2" value="&lt;font&gt;- drawer: Drawer&lt;/font&gt;" style="text;strokeColor=none;fillColor=none;align=left;verticalAlign=top;spacingLeft=4;spacingRight=4;overflow=hidden;rotatable=0;points=[[0,0.5],[1,0.5]];portConstraint=eastwest;whiteSpace=wrap;html=1;fontFamily=Helvetica;fontSize=12;fontColor=default;labelBackgroundColor=default;" parent="ZTmcAJ3pDBRZLvcQVgv7-1" vertex="1">
          <mxGeometry y="26" width="170" height="26" as="geometry" />
        </mxCell>
        <mxCell id="ZTmcAJ3pDBRZLvcQVgv7-3" value="" style="line;strokeWidth=1;fillColor=none;align=left;verticalAlign=middle;spacingTop=-1;spacingLeft=3;spacingRight=3;rotatable=0;labelPosition=right;points=[];portConstraint=eastwest;strokeColor=inherit;fontFamily=Helvetica;fontSize=12;fontColor=default;labelBackgroundColor=default;" parent="ZTmcAJ3pDBRZLvcQVgv7-1" vertex="1">
          <mxGeometry y="52" width="170" height="8" as="geometry" />
        </mxCell>
        <mxCell id="ZTmcAJ3pDBRZLvcQVgv7-4" value="&lt;font&gt;+ drawScene(Scene)&lt;/font&gt;" style="text;strokeColor=none;fillColor=none;align=left;verticalAlign=top;spacingLeft=4;spacingRight=4;overflow=hidden;rotatable=0;points=[[0,0.5],[1,0.5]];portConstraint=eastwest;whiteSpace=wrap;html=1;fontFamily=Helvetica;fontSize=12;fontColor=default;labelBackgroundColor=default;" parent="ZTmcAJ3pDBRZLvcQVgv7-1" vertex="1">
          <mxGeometry y="60" width="170" height="26" as="geometry" />
        </mxCell>
        <mxCell id="jgS95PMO8R6cFEwYChvG-1" value="&lt;font&gt;+ clear()&lt;/font&gt;" style="text;strokeColor=none;fillColor=none;align=left;verticalAlign=top;spacingLeft=4;spacingRight=4;overflow=hidden;rotatable=0;points=[[0,0.5],[1,0.5]];portConstraint=eastwest;whiteSpace=wrap;html=1;fontFamily=Helvetica;fontSize=12;fontColor=default;labelBackgroundColor=default;" parent="ZTmcAJ3pDBRZLvcQVgv7-1" vertex="1">
          <mxGeometry y="86" width="170" height="26" as="geometry" />
        </mxCell>
        <mxCell id="lUi3iKVNbrLK-EijGhGv-1" value="&lt;font&gt;AbstractService&lt;/font&gt;" style="swimlane;fontStyle=1;align=center;verticalAlign=top;childLayout=stackLayout;horizontal=1;startSize=26;horizontalStack=0;resizeParent=1;resizeParentMax=0;resizeLast=0;collapsible=1;marginBottom=0;whiteSpace=wrap;html=1;fontFamily=Helvetica;fontSize=12;fontColor=default;labelBackgroundColor=default;" parent="1" vertex="1">
          <mxGeometry x="310" y="-1510" width="170" height="34" as="geometry" />
        </mxCell>
        <mxCell id="lUi3iKVNbrLK-EijGhGv-3" value="" style="line;strokeWidth=1;fillColor=none;align=left;verticalAlign=middle;spacingTop=-1;spacingLeft=3;spacingRight=3;rotatable=0;labelPosition=right;points=[];portConstraint=eastwest;strokeColor=inherit;fontFamily=Helvetica;fontSize=12;fontColor=default;labelBackgroundColor=default;" parent="lUi3iKVNbrLK-EijGhGv-1" vertex="1">
          <mxGeometry y="26" width="170" height="8" as="geometry" />
        </mxCell>
        <mxCell id="810LwUm_DHEYBSZ7W7pD-3" value="" style="endArrow=block;dashed=1;endFill=0;endSize=12;html=1;rounded=0;" parent="1" source="NRLG7sIxvqWeJf_N3PLe-10" target="lUi3iKVNbrLK-EijGhGv-1" edge="1">
          <mxGeometry width="160" relative="1" as="geometry">
            <mxPoint x="325" y="-1402" as="sourcePoint" />
            <mxPoint x="485" y="-1402" as="targetPoint" />
          </mxGeometry>
        </mxCell>
        <mxCell id="UeiFVOSWFEQmsvZjEIMp-10" value="&lt;font style=&quot;font-size: 12px;&quot;&gt;DrawerImpl&lt;/font&gt;&lt;div&gt;&lt;font style=&quot;font-size: 12px;&quot;&gt;(Bridge)&lt;/font&gt;&lt;/div&gt;" style="swimlane;fontStyle=1;align=center;verticalAlign=top;childLayout=stackLayout;horizontal=1;startSize=44;horizontalStack=0;resizeParent=1;resizeParentMax=0;resizeLast=0;collapsible=1;marginBottom=0;whiteSpace=wrap;html=1;fontFamily=Helvetica;fontSize=11;fontColor=default;labelBackgroundColor=none;fillColor=none;" parent="1" vertex="1">
          <mxGeometry x="-1930" y="-606.75" width="170" height="104" as="geometry" />
        </mxCell>
        <mxCell id="UeiFVOSWFEQmsvZjEIMp-12" value="" style="line;strokeWidth=1;fillColor=none;align=left;verticalAlign=middle;spacingTop=-1;spacingLeft=3;spacingRight=3;rotatable=0;labelPosition=right;points=[];portConstraint=eastwest;strokeColor=inherit;fontFamily=Helvetica;fontSize=11;fontColor=default;labelBackgroundColor=default;" parent="UeiFVOSWFEQmsvZjEIMp-10" vertex="1">
          <mxGeometry y="44" width="170" height="8" as="geometry" />
        </mxCell>
        <mxCell id="UeiFVOSWFEQmsvZjEIMp-13" value="&lt;font style=&quot;font-size: 12px;&quot;&gt;+ drawLineImpl(Point, Point)&lt;/font&gt;" style="text;strokeColor=none;fillColor=none;align=left;verticalAlign=top;spacingLeft=4;spacingRight=4;overflow=hidden;rotatable=0;points=[[0,0.5],[1,0.5]];portConstraint=eastwest;whiteSpace=wrap;html=1;fontFamily=Helvetica;fontSize=11;fontColor=default;labelBackgroundColor=default;" parent="UeiFVOSWFEQmsvZjEIMp-10" vertex="1">
          <mxGeometry y="52" width="170" height="26" as="geometry" />
        </mxCell>
        <mxCell id="5urwvVWARFL6wCoIM7oV-3" value="&lt;font&gt;+ clear()&lt;/font&gt;" style="text;strokeColor=none;fillColor=none;align=left;verticalAlign=top;spacingLeft=4;spacingRight=4;overflow=hidden;rotatable=0;points=[[0,0.5],[1,0.5]];portConstraint=eastwest;whiteSpace=wrap;html=1;fontFamily=Helvetica;fontSize=12;fontColor=default;labelBackgroundColor=default;" parent="UeiFVOSWFEQmsvZjEIMp-10" vertex="1">
          <mxGeometry y="78" width="170" height="26" as="geometry" />
        </mxCell>
        <mxCell id="UeiFVOSWFEQmsvZjEIMp-15" value="1" style="endArrow=open;html=1;endSize=12;startArrow=diamondThin;startSize=14;startFill=0;edgeStyle=orthogonalEdgeStyle;align=left;verticalAlign=bottom;rounded=0;" parent="1" source="UeiFVOSWFEQmsvZjEIMp-14" target="UeiFVOSWFEQmsvZjEIMp-10" edge="1">
          <mxGeometry x="-0.6931" relative="1" as="geometry">
            <mxPoint x="-1530" y="-538.0000000000001" as="sourcePoint" />
            <mxPoint x="-1370" y="-538.0000000000001" as="targetPoint" />
            <mxPoint as="offset" />
          </mxGeometry>
        </mxCell>
        <mxCell id="5urwvVWARFL6wCoIM7oV-4" value="Это реализация&lt;div&gt;под конкретную&lt;/div&gt;&lt;div&gt;библиотеку&lt;/div&gt;" style="text;html=1;align=center;verticalAlign=middle;resizable=0;points=[];autosize=1;strokeColor=none;fillColor=none;" parent="1" vertex="1">
          <mxGeometry x="-2040" y="-432.5" width="110" height="60" as="geometry" />
        </mxCell>
        <mxCell id="5urwvVWARFL6wCoIM7oV-5" value="" style="endArrow=block;endSize=16;endFill=0;html=1;rounded=0;" parent="1" source="sILZ3Hs0Noe2dMSN0Bch-1" target="UeiFVOSWFEQmsvZjEIMp-10" edge="1">
          <mxGeometry x="-1" y="-135" width="160" relative="1" as="geometry">
            <mxPoint x="-1660" y="-468.0000000000001" as="sourcePoint" />
            <mxPoint x="-1500" y="-468.0000000000001" as="targetPoint" />
            <mxPoint as="offset" />
          </mxGeometry>
        </mxCell>
        <mxCell id="75fbW_tO2r3ob0Y1kBhd-1" value="&lt;font style=&quot;font-size: 14px;&quot;&gt;Изо&lt;/font&gt;" style="shape=umlFrame;whiteSpace=wrap;html=1;pointerEvents=0;recursiveResize=0;container=1;collapsible=0;width=70;fontFamily=Helvetica;fontSize=11;fontColor=default;labelBackgroundColor=default;height=30;" parent="1" vertex="1">
          <mxGeometry x="-2060" y="-668" width="640" height="360" as="geometry" />
        </mxCell>
        <mxCell id="cPvdEGlNGaqBh6omg6_h-163" value="TXTMeshModelLoader" style="swimlane;fontStyle=0;childLayout=stackLayout;horizontal=1;startSize=26;fillColor=none;horizontalStack=0;resizeParent=1;resizeParentMax=0;resizeLast=0;collapsible=1;marginBottom=0;html=1;fontSize=12;" parent="1" vertex="1">
          <mxGeometry x="-1335" y="-148" width="140" height="78" as="geometry" />
        </mxCell>
        <mxCell id="cPvdEGlNGaqBh6omg6_h-223" value="scanPoints()" style="text;strokeColor=none;fillColor=none;align=left;verticalAlign=top;spacingLeft=4;spacingRight=4;overflow=hidden;rotatable=0;points=[[0,0.5],[1,0.5]];portConstraint=eastwest;whiteSpace=wrap;html=1;fontSize=12;" parent="cPvdEGlNGaqBh6omg6_h-163" vertex="1">
          <mxGeometry y="26" width="140" height="26" as="geometry" />
        </mxCell>
        <mxCell id="cPvdEGlNGaqBh6omg6_h-222" value="&lt;div&gt;scanEdges()&lt;/div&gt;" style="text;strokeColor=none;fillColor=none;align=left;verticalAlign=top;spacingLeft=4;spacingRight=4;overflow=hidden;rotatable=0;points=[[0,0.5],[1,0.5]];portConstraint=eastwest;whiteSpace=wrap;html=1;fontSize=12;" parent="cPvdEGlNGaqBh6omg6_h-163" vertex="1">
          <mxGeometry y="52" width="140" height="26" as="geometry" />
        </mxCell>
        <mxCell id="cPvdEGlNGaqBh6omg6_h-180" value="AbstractMeshModelLoader" style="swimlane;fontStyle=0;childLayout=stackLayout;horizontal=1;startSize=26;fillColor=none;horizontalStack=0;resizeParent=1;resizeParentMax=0;resizeLast=0;collapsible=1;marginBottom=0;html=1;fontSize=12;" parent="1" vertex="1">
          <mxGeometry x="-1350" y="-279" width="170" height="78" as="geometry" />
        </mxCell>
        <mxCell id="cPvdEGlNGaqBh6omg6_h-214" value="scanPoints(FILE): Points" style="text;strokeColor=none;fillColor=none;align=left;verticalAlign=top;spacingLeft=4;spacingRight=4;overflow=hidden;rotatable=0;points=[[0,0.5],[1,0.5]];portConstraint=eastwest;whiteSpace=wrap;html=1;fontSize=12;" parent="cPvdEGlNGaqBh6omg6_h-180" vertex="1">
          <mxGeometry y="26" width="170" height="26" as="geometry" />
        </mxCell>
        <mxCell id="cPvdEGlNGaqBh6omg6_h-213" value="&lt;div&gt;scanEdges(FILE): Edges&lt;/div&gt;" style="text;strokeColor=none;fillColor=none;align=left;verticalAlign=top;spacingLeft=4;spacingRight=4;overflow=hidden;rotatable=0;points=[[0,0.5],[1,0.5]];portConstraint=eastwest;whiteSpace=wrap;html=1;fontSize=12;" parent="cPvdEGlNGaqBh6omg6_h-180" vertex="1">
          <mxGeometry y="52" width="170" height="26" as="geometry" />
        </mxCell>
        <mxCell id="cPvdEGlNGaqBh6omg6_h-185" value="MeshModelLoaderSolution&lt;div&gt;(Factory method)&lt;/div&gt;" style="swimlane;fontStyle=0;childLayout=stackLayout;horizontal=1;startSize=40;fillColor=none;horizontalStack=0;resizeParent=1;resizeParentMax=0;resizeLast=0;collapsible=1;marginBottom=0;html=1;fontSize=12;" parent="1" vertex="1">
          <mxGeometry x="-1200" y="-419" width="330" height="90" as="geometry" />
        </mxCell>
        <mxCell id="cPvdEGlNGaqBh6omg6_h-188" value="createModelLoaderCreator(fileName): AbstractModelLoader" style="text;strokeColor=none;fillColor=none;align=left;verticalAlign=top;spacingLeft=4;spacingRight=4;overflow=hidden;rotatable=0;points=[[0,0.5],[1,0.5]];portConstraint=eastwest;whiteSpace=wrap;html=1;fontSize=12;" parent="cPvdEGlNGaqBh6omg6_h-185" vertex="1">
          <mxGeometry y="40" width="330" height="50" as="geometry" />
        </mxCell>
        <mxCell id="cPvdEGlNGaqBh6omg6_h-189" value="AbstractMeshModelLoaderCreator" style="swimlane;fontStyle=0;childLayout=stackLayout;horizontal=1;startSize=26;fillColor=none;horizontalStack=0;resizeParent=1;resizeParentMax=0;resizeLast=0;collapsible=1;marginBottom=0;html=1;fontSize=12;" parent="1" vertex="1">
          <mxGeometry x="-1130" y="-266" width="190" height="52" as="geometry" />
        </mxCell>
        <mxCell id="cPvdEGlNGaqBh6omg6_h-192" value="createModelLoader()" style="text;strokeColor=none;fillColor=none;align=left;verticalAlign=top;spacingLeft=4;spacingRight=4;overflow=hidden;rotatable=0;points=[[0,0.5],[1,0.5]];portConstraint=eastwest;whiteSpace=wrap;html=1;fontSize=12;" parent="cPvdEGlNGaqBh6omg6_h-189" vertex="1">
          <mxGeometry y="26" width="190" height="26" as="geometry" />
        </mxCell>
        <mxCell id="cPvdEGlNGaqBh6omg6_h-197" value="" style="endArrow=open;endFill=1;endSize=12;html=1;rounded=0;fontSize=12;" parent="1" source="cPvdEGlNGaqBh6omg6_h-185" target="cPvdEGlNGaqBh6omg6_h-189" edge="1">
          <mxGeometry width="160" relative="1" as="geometry">
            <mxPoint x="-900" y="-319" as="sourcePoint" />
            <mxPoint x="-470" y="-329" as="targetPoint" />
          </mxGeometry>
        </mxCell>
        <mxCell id="cPvdEGlNGaqBh6omg6_h-200" value="" style="endArrow=block;endSize=16;endFill=0;html=1;rounded=0;fontSize=12;" parent="1" source="cPvdEGlNGaqBh6omg6_h-163" target="cPvdEGlNGaqBh6omg6_h-180" edge="1">
          <mxGeometry width="160" relative="1" as="geometry">
            <mxPoint x="-1180" y="-58" as="sourcePoint" />
            <mxPoint x="-1020" y="-58" as="targetPoint" />
            <Array as="points" />
          </mxGeometry>
        </mxCell>
        <mxCell id="cPvdEGlNGaqBh6omg6_h-203" value="" style="endArrow=open;endFill=1;endSize=12;html=1;rounded=0;fontSize=12;" parent="1" source="cPvdEGlNGaqBh6omg6_h-189" target="cPvdEGlNGaqBh6omg6_h-180" edge="1">
          <mxGeometry width="160" relative="1" as="geometry">
            <mxPoint x="-930" y="-38" as="sourcePoint" />
            <mxPoint x="-860" y="-252.00000000000023" as="targetPoint" />
          </mxGeometry>
        </mxCell>
        <mxCell id="cPvdEGlNGaqBh6omg6_h-205" value="TXTMeshModelLoaderCreator" style="swimlane;fontStyle=0;childLayout=stackLayout;horizontal=1;startSize=26;fillColor=none;horizontalStack=0;resizeParent=1;resizeParentMax=0;resizeLast=0;collapsible=1;marginBottom=0;html=1;fontSize=12;" parent="1" vertex="1">
          <mxGeometry x="-1120" y="-135" width="170" height="52" as="geometry" />
        </mxCell>
        <mxCell id="cPvdEGlNGaqBh6omg6_h-209" value="createModelLoader()" style="text;strokeColor=none;fillColor=none;align=left;verticalAlign=top;spacingLeft=4;spacingRight=4;overflow=hidden;rotatable=0;points=[[0,0.5],[1,0.5]];portConstraint=eastwest;whiteSpace=wrap;html=1;fontSize=12;" parent="cPvdEGlNGaqBh6omg6_h-205" vertex="1">
          <mxGeometry y="26" width="170" height="26" as="geometry" />
        </mxCell>
        <mxCell id="cPvdEGlNGaqBh6omg6_h-210" value="" style="endArrow=block;endSize=16;endFill=0;html=1;rounded=0;fontSize=12;" parent="1" source="cPvdEGlNGaqBh6omg6_h-205" target="cPvdEGlNGaqBh6omg6_h-189" edge="1">
          <mxGeometry width="160" relative="1" as="geometry">
            <mxPoint x="-1140" y="-98" as="sourcePoint" />
            <mxPoint x="-980" y="-98" as="targetPoint" />
          </mxGeometry>
        </mxCell>
        <mxCell id="cPvdEGlNGaqBh6omg6_h-228" value="&lt;div&gt;MeshModelDirector&lt;/div&gt;&lt;div&gt;(Builder)&lt;/div&gt;" style="swimlane;fontStyle=0;childLayout=stackLayout;horizontal=1;startSize=42;fillColor=none;horizontalStack=0;resizeParent=1;resizeParentMax=0;resizeLast=0;collapsible=1;marginBottom=0;html=1;fontSize=12;" parent="1" vertex="1">
          <mxGeometry x="-1120" y="-810" width="170" height="68" as="geometry" />
        </mxCell>
        <mxCell id="cPvdEGlNGaqBh6omg6_h-231" value="create(fileName): Model" style="text;strokeColor=none;fillColor=none;align=left;verticalAlign=top;spacingLeft=4;spacingRight=4;overflow=hidden;rotatable=0;points=[[0,0.5],[1,0.5]];portConstraint=eastwest;whiteSpace=wrap;html=1;fontSize=12;" parent="cPvdEGlNGaqBh6omg6_h-228" vertex="1">
          <mxGeometry y="42" width="170" height="26" as="geometry" />
        </mxCell>
        <mxCell id="cPvdEGlNGaqBh6omg6_h-233" value="&lt;div&gt;&lt;span style=&quot;background-color: transparent; color: light-dark(rgb(0, 0, 0), rgb(255, 255, 255));&quot;&gt;MeshModelBuilder&lt;/span&gt;&lt;/div&gt;" style="swimlane;fontStyle=0;childLayout=stackLayout;horizontal=1;startSize=26;fillColor=none;horizontalStack=0;resizeParent=1;resizeParentMax=0;resizeLast=0;collapsible=1;marginBottom=0;html=1;fontSize=12;" parent="1" vertex="1">
          <mxGeometry x="-1120" y="-640" width="170" height="78" as="geometry">
            <mxRectangle x="-260" y="-634.5" width="110" height="30" as="alternateBounds" />
          </mxGeometry>
        </mxCell>
        <mxCell id="cPvdEGlNGaqBh6omg6_h-234" value="buildPoints()" style="text;strokeColor=none;fillColor=none;align=left;verticalAlign=top;spacingLeft=4;spacingRight=4;overflow=hidden;rotatable=0;points=[[0,0.5],[1,0.5]];portConstraint=eastwest;whiteSpace=wrap;html=1;fontSize=12;" parent="cPvdEGlNGaqBh6omg6_h-233" vertex="1">
          <mxGeometry y="26" width="170" height="26" as="geometry" />
        </mxCell>
        <mxCell id="cPvdEGlNGaqBh6omg6_h-235" value="buildEdges()" style="text;strokeColor=none;fillColor=none;align=left;verticalAlign=top;spacingLeft=4;spacingRight=4;overflow=hidden;rotatable=0;points=[[0,0.5],[1,0.5]];portConstraint=eastwest;whiteSpace=wrap;html=1;fontSize=12;" parent="cPvdEGlNGaqBh6omg6_h-233" vertex="1">
          <mxGeometry y="52" width="170" height="26" as="geometry" />
        </mxCell>
        <mxCell id="_CJmV-ZNArkASE3RE6sA-1" value="" style="html=1;verticalAlign=bottom;labelBackgroundColor=none;endArrow=open;endFill=0;dashed=1;rounded=0;fontSize=12;" parent="1" source="cPvdEGlNGaqBh6omg6_h-205" target="cPvdEGlNGaqBh6omg6_h-163" edge="1">
          <mxGeometry width="160" relative="1" as="geometry">
            <mxPoint x="-680" y="-145" as="sourcePoint" />
            <mxPoint x="-520" y="-145" as="targetPoint" />
          </mxGeometry>
        </mxCell>
        <mxCell id="sD8Df_NonfkDbG-9SvNq-3" value="" style="endArrow=open;html=1;endSize=12;startArrow=diamondThin;startSize=14;startFill=0;edgeStyle=orthogonalEdgeStyle;align=left;verticalAlign=bottom;rounded=0;fontSize=12;" parent="1" source="cPvdEGlNGaqBh6omg6_h-228" target="cPvdEGlNGaqBh6omg6_h-233" edge="1">
          <mxGeometry x="0.1667" y="75" relative="1" as="geometry">
            <mxPoint x="-870" y="-780" as="sourcePoint" />
            <mxPoint x="-710" y="-780" as="targetPoint" />
            <mxPoint y="1" as="offset" />
          </mxGeometry>
        </mxCell>
        <mxCell id="sD8Df_NonfkDbG-9SvNq-4" value="loader&lt;div&gt;создавать его&lt;/div&gt;&lt;div&gt;в конструкторе&lt;/div&gt;" style="endArrow=open;html=1;endSize=12;startArrow=diamondThin;startSize=14;startFill=1;edgeStyle=orthogonalEdgeStyle;align=left;verticalAlign=bottom;rounded=0;labelBackgroundColor=none;fontSize=12;" parent="1" source="cPvdEGlNGaqBh6omg6_h-233" target="cPvdEGlNGaqBh6omg6_h-185" edge="1">
          <mxGeometry x="-0.1329" y="15" relative="1" as="geometry">
            <mxPoint x="-460" y="-427.25" as="sourcePoint" />
            <mxPoint x="-300" y="-427.25" as="targetPoint" />
            <mxPoint as="offset" />
          </mxGeometry>
        </mxCell>
        <mxCell id="sD8Df_NonfkDbG-9SvNq-8" value="" style="endArrow=none;dashed=1;html=1;rounded=0;strokeColor=default;align=left;verticalAlign=bottom;fontFamily=Helvetica;fontSize=12;fontColor=default;labelBackgroundColor=default;edgeStyle=orthogonalEdgeStyle;startSize=14;endSize=12;" parent="1" source="sD8Df_NonfkDbG-9SvNq-7" target="cPvdEGlNGaqBh6omg6_h-234" edge="1">
          <mxGeometry width="50" height="50" relative="1" as="geometry">
            <mxPoint x="-1280" y="-512" as="sourcePoint" />
            <mxPoint x="-1230" y="-562" as="targetPoint" />
          </mxGeometry>
        </mxCell>
        <mxCell id="f6b9FppCXZIkNFy2HD0m-7" value="&lt;font&gt;Загрузка из файла&lt;/font&gt;" style="shape=umlFrame;whiteSpace=wrap;html=1;pointerEvents=0;recursiveResize=0;container=0;collapsible=0;width=150;fontFamily=Helvetica;fontSize=12;fontColor=default;labelBackgroundColor=default;height=40;dashed=1;" parent="1" vertex="1">
          <mxGeometry x="-1370" y="-470" width="1460" height="417.25" as="geometry" />
        </mxCell>
        <mxCell id="sD8Df_NonfkDbG-9SvNq-7" value="myModel.points = loader.scanPoints(FILE)" style="rounded=0;whiteSpace=wrap;html=1;fontFamily=Helvetica;fontSize=12;fontColor=default;labelBackgroundColor=default;" parent="1" vertex="1">
          <mxGeometry x="-1370" y="-631" width="160" height="60" as="geometry" />
        </mxCell>
        <mxCell id="InHQhLC0djkmLk5vjAGZ-2" value="&lt;font style=&quot;font-size: 12px;&quot;&gt;PerspectiveCameraDirector&lt;/font&gt;" style="swimlane;fontStyle=1;align=center;verticalAlign=top;childLayout=stackLayout;horizontal=1;startSize=26;horizontalStack=0;resizeParent=1;resizeParentMax=0;resizeLast=0;collapsible=1;marginBottom=0;whiteSpace=wrap;html=1;fontFamily=Helvetica;fontSize=11;fontColor=default;labelBackgroundColor=default;" parent="1" vertex="1">
          <mxGeometry x="-700" y="-800" width="180" height="60" as="geometry" />
        </mxCell>
        <mxCell id="InHQhLC0djkmLk5vjAGZ-4" value="" style="line;strokeWidth=1;fillColor=none;align=left;verticalAlign=middle;spacingTop=-1;spacingLeft=3;spacingRight=3;rotatable=0;labelPosition=right;points=[];portConstraint=eastwest;strokeColor=inherit;fontFamily=Helvetica;fontSize=11;fontColor=default;labelBackgroundColor=default;" parent="InHQhLC0djkmLk5vjAGZ-2" vertex="1">
          <mxGeometry y="26" width="180" height="8" as="geometry" />
        </mxCell>
        <mxCell id="InHQhLC0djkmLk5vjAGZ-5" value="&lt;font style=&quot;font-size: 12px;&quot;&gt;+ create(): Camera&lt;/font&gt;" style="text;strokeColor=none;fillColor=none;align=left;verticalAlign=top;spacingLeft=4;spacingRight=4;overflow=hidden;rotatable=0;points=[[0,0.5],[1,0.5]];portConstraint=eastwest;whiteSpace=wrap;html=1;fontFamily=Helvetica;fontSize=11;fontColor=default;labelBackgroundColor=default;" parent="InHQhLC0djkmLk5vjAGZ-2" vertex="1">
          <mxGeometry y="34" width="180" height="26" as="geometry" />
        </mxCell>
        <mxCell id="EL84oEiA5ySslWerlNba-1" value="&lt;font style=&quot;font-size: 12px;&quot;&gt;CameraBuilder&lt;/font&gt;" style="swimlane;fontStyle=1;align=center;verticalAlign=top;childLayout=stackLayout;horizontal=1;startSize=26;horizontalStack=0;resizeParent=1;resizeParentMax=0;resizeLast=0;collapsible=1;marginBottom=0;whiteSpace=wrap;html=1;fontFamily=Helvetica;fontSize=11;fontColor=default;labelBackgroundColor=default;" parent="1" vertex="1">
          <mxGeometry x="-690" y="-660.75" width="160" height="60" as="geometry" />
        </mxCell>
        <mxCell id="EL84oEiA5ySslWerlNba-2" value="" style="line;strokeWidth=1;fillColor=none;align=left;verticalAlign=middle;spacingTop=-1;spacingLeft=3;spacingRight=3;rotatable=0;labelPosition=right;points=[];portConstraint=eastwest;strokeColor=inherit;fontFamily=Helvetica;fontSize=11;fontColor=default;labelBackgroundColor=default;" parent="EL84oEiA5ySslWerlNba-1" vertex="1">
          <mxGeometry y="26" width="160" height="8" as="geometry" />
        </mxCell>
        <mxCell id="EL84oEiA5ySslWerlNba-3" value="&lt;font style=&quot;font-size: 12px;&quot;&gt;+ build()&lt;/font&gt;" style="text;strokeColor=none;fillColor=none;align=left;verticalAlign=top;spacingLeft=4;spacingRight=4;overflow=hidden;rotatable=0;points=[[0,0.5],[1,0.5]];portConstraint=eastwest;whiteSpace=wrap;html=1;fontFamily=Helvetica;fontSize=11;fontColor=default;labelBackgroundColor=default;" parent="EL84oEiA5ySslWerlNba-1" vertex="1">
          <mxGeometry y="34" width="160" height="26" as="geometry" />
        </mxCell>
        <mxCell id="9l8I6MiLiaKry9ogqb1s-1" value="" style="endArrow=open;html=1;endSize=12;startArrow=diamondThin;startSize=14;startFill=0;edgeStyle=orthogonalEdgeStyle;align=left;verticalAlign=bottom;rounded=0;" parent="1" source="InHQhLC0djkmLk5vjAGZ-2" target="EL84oEiA5ySslWerlNba-1" edge="1">
          <mxGeometry x="0.2429" y="125" relative="1" as="geometry">
            <mxPoint x="-730" y="-580.7500000000001" as="sourcePoint" />
            <mxPoint x="-570" y="-580.7500000000001" as="targetPoint" />
            <mxPoint as="offset" />
          </mxGeometry>
        </mxCell>
        <mxCell id="soNsP1nrS6MGEwE5gFpr-8" value="&lt;font style=&quot;font-size: 12px;&quot;&gt;SceneDirector&lt;/font&gt;" style="swimlane;fontStyle=1;align=center;verticalAlign=top;childLayout=stackLayout;horizontal=1;startSize=26;horizontalStack=0;resizeParent=1;resizeParentMax=0;resizeLast=0;collapsible=1;marginBottom=0;whiteSpace=wrap;html=1;fontFamily=Helvetica;fontSize=11;fontColor=default;labelBackgroundColor=default;" parent="1" vertex="1">
          <mxGeometry x="-100" y="-779.25" width="160" height="60" as="geometry" />
        </mxCell>
        <mxCell id="soNsP1nrS6MGEwE5gFpr-9" value="" style="line;strokeWidth=1;fillColor=none;align=left;verticalAlign=middle;spacingTop=-1;spacingLeft=3;spacingRight=3;rotatable=0;labelPosition=right;points=[];portConstraint=eastwest;strokeColor=inherit;fontFamily=Helvetica;fontSize=11;fontColor=default;labelBackgroundColor=default;" parent="soNsP1nrS6MGEwE5gFpr-8" vertex="1">
          <mxGeometry y="26" width="160" height="8" as="geometry" />
        </mxCell>
        <mxCell id="soNsP1nrS6MGEwE5gFpr-10" value="&lt;div style=&quot;text-align: center;&quot;&gt;&lt;span style=&quot;font-size: 12px; background-color: light-dark(#ffffff, var(--ge-dark-color, #121212)); color: light-dark(rgb(0, 0, 0), rgb(255, 255, 255));&quot;&gt;+ create(): Scene&lt;/span&gt;&lt;/div&gt;" style="text;strokeColor=none;fillColor=none;align=left;verticalAlign=top;spacingLeft=4;spacingRight=4;overflow=hidden;rotatable=0;points=[[0,0.5],[1,0.5]];portConstraint=eastwest;whiteSpace=wrap;html=1;fontFamily=Helvetica;fontSize=11;fontColor=default;labelBackgroundColor=default;" parent="soNsP1nrS6MGEwE5gFpr-8" vertex="1">
          <mxGeometry y="34" width="160" height="26" as="geometry" />
        </mxCell>
        <mxCell id="soNsP1nrS6MGEwE5gFpr-11" value="&lt;font style=&quot;font-size: 12px;&quot;&gt;SceneBuilder&lt;/font&gt;" style="swimlane;fontStyle=1;align=center;verticalAlign=top;childLayout=stackLayout;horizontal=1;startSize=26;horizontalStack=0;resizeParent=1;resizeParentMax=0;resizeLast=0;collapsible=1;marginBottom=0;whiteSpace=wrap;html=1;fontFamily=Helvetica;fontSize=11;fontColor=default;labelBackgroundColor=default;" parent="1" vertex="1">
          <mxGeometry x="-100" y="-640" width="160" height="60" as="geometry" />
        </mxCell>
        <mxCell id="soNsP1nrS6MGEwE5gFpr-12" value="" style="line;strokeWidth=1;fillColor=none;align=left;verticalAlign=middle;spacingTop=-1;spacingLeft=3;spacingRight=3;rotatable=0;labelPosition=right;points=[];portConstraint=eastwest;strokeColor=inherit;fontFamily=Helvetica;fontSize=11;fontColor=default;labelBackgroundColor=default;" parent="soNsP1nrS6MGEwE5gFpr-11" vertex="1">
          <mxGeometry y="26" width="160" height="8" as="geometry" />
        </mxCell>
        <mxCell id="soNsP1nrS6MGEwE5gFpr-13" value="&lt;font style=&quot;font-size: 12px;&quot;&gt;+ build()&lt;/font&gt;" style="text;strokeColor=none;fillColor=none;align=left;verticalAlign=top;spacingLeft=4;spacingRight=4;overflow=hidden;rotatable=0;points=[[0,0.5],[1,0.5]];portConstraint=eastwest;whiteSpace=wrap;html=1;fontFamily=Helvetica;fontSize=11;fontColor=default;labelBackgroundColor=default;" parent="soNsP1nrS6MGEwE5gFpr-11" vertex="1">
          <mxGeometry y="34" width="160" height="26" as="geometry" />
        </mxCell>
        <mxCell id="soNsP1nrS6MGEwE5gFpr-14" value="" style="endArrow=open;html=1;endSize=12;startArrow=diamondThin;startSize=14;startFill=0;edgeStyle=orthogonalEdgeStyle;align=left;verticalAlign=bottom;rounded=0;" parent="1" source="soNsP1nrS6MGEwE5gFpr-8" target="soNsP1nrS6MGEwE5gFpr-11" edge="1">
          <mxGeometry x="0.2429" y="125" relative="1" as="geometry">
            <mxPoint x="-140" y="-560.0000000000001" as="sourcePoint" />
            <mxPoint x="20" y="-560.0000000000001" as="targetPoint" />
            <mxPoint as="offset" />
          </mxGeometry>
        </mxCell>
        <mxCell id="wG5N-X-KkEXGidf3OUgP-2" value="&lt;span style=&quot;font-size: 12px;&quot;&gt;AbstractMeshModelImplementation&lt;/span&gt;" style="swimlane;fontStyle=1;align=center;verticalAlign=top;childLayout=stackLayout;horizontal=1;startSize=26;horizontalStack=0;resizeParent=1;resizeParentMax=0;resizeLast=0;collapsible=1;marginBottom=0;whiteSpace=wrap;html=1;fontFamily=Helvetica;fontSize=11;fontColor=default;labelBackgroundColor=default;" parent="1" vertex="1">
          <mxGeometry x="290" y="-320" width="230" height="112" as="geometry" />
        </mxCell>
        <mxCell id="wG5N-X-KkEXGidf3OUgP-4" value="" style="line;strokeWidth=1;fillColor=none;align=left;verticalAlign=middle;spacingTop=-1;spacingLeft=3;spacingRight=3;rotatable=0;labelPosition=right;points=[];portConstraint=eastwest;strokeColor=inherit;fontFamily=Helvetica;fontSize=11;fontColor=default;labelBackgroundColor=default;" parent="wG5N-X-KkEXGidf3OUgP-2" vertex="1">
          <mxGeometry y="26" width="230" height="8" as="geometry" />
        </mxCell>
        <mxCell id="wG5N-X-KkEXGidf3OUgP-5" value="&lt;font style=&quot;font-size: 12px;&quot;&gt;+ transform(TransformRequest)&lt;/font&gt;" style="text;strokeColor=none;fillColor=none;align=left;verticalAlign=top;spacingLeft=4;spacingRight=4;overflow=hidden;rotatable=0;points=[[0,0.5],[1,0.5]];portConstraint=eastwest;whiteSpace=wrap;html=1;fontFamily=Helvetica;fontSize=11;fontColor=default;labelBackgroundColor=default;" parent="wG5N-X-KkEXGidf3OUgP-2" vertex="1">
          <mxGeometry y="34" width="230" height="26" as="geometry" />
        </mxCell>
        <mxCell id="Hq7AZVbVP9MDkz0-afTN-4" value="&lt;font style=&quot;font-size: 12px;&quot;&gt;+ addPoint()&lt;/font&gt;" style="text;strokeColor=none;fillColor=none;align=left;verticalAlign=top;spacingLeft=4;spacingRight=4;overflow=hidden;rotatable=0;points=[[0,0.5],[1,0.5]];portConstraint=eastwest;whiteSpace=wrap;html=1;fontFamily=Helvetica;fontSize=11;fontColor=default;labelBackgroundColor=default;" parent="wG5N-X-KkEXGidf3OUgP-2" vertex="1">
          <mxGeometry y="60" width="230" height="26" as="geometry" />
        </mxCell>
        <mxCell id="Hq7AZVbVP9MDkz0-afTN-5" value="&lt;font style=&quot;font-size: 12px;&quot;&gt;+ getPoints()&lt;/font&gt;" style="text;strokeColor=none;fillColor=none;align=left;verticalAlign=top;spacingLeft=4;spacingRight=4;overflow=hidden;rotatable=0;points=[[0,0.5],[1,0.5]];portConstraint=eastwest;whiteSpace=wrap;html=1;fontFamily=Helvetica;fontSize=11;fontColor=default;labelBackgroundColor=default;" parent="wG5N-X-KkEXGidf3OUgP-2" vertex="1">
          <mxGeometry y="86" width="230" height="26" as="geometry" />
        </mxCell>
        <mxCell id="wG5N-X-KkEXGidf3OUgP-7" value="" style="endArrow=open;html=1;endSize=12;startArrow=diamondThin;startSize=14;startFill=1;edgeStyle=orthogonalEdgeStyle;align=left;verticalAlign=bottom;rounded=0;" parent="1" source="wG5N-X-KkEXGidf3OUgP-1" target="wG5N-X-KkEXGidf3OUgP-2" edge="1">
          <mxGeometry x="-1" y="3" relative="1" as="geometry">
            <mxPoint x="760" y="-10.000000000000114" as="sourcePoint" />
            <mxPoint x="920" y="-10.000000000000114" as="targetPoint" />
            <Array as="points">
              <mxPoint x="340" y="-451" />
            </Array>
          </mxGeometry>
        </mxCell>
        <mxCell id="wG5N-X-KkEXGidf3OUgP-12" value="&lt;font style=&quot;font-size: 12px;&quot;&gt;MeshModelImplementation&lt;/font&gt;" style="swimlane;fontStyle=1;align=center;verticalAlign=top;childLayout=stackLayout;horizontal=1;startSize=26;horizontalStack=0;resizeParent=1;resizeParentMax=0;resizeLast=0;collapsible=1;marginBottom=0;whiteSpace=wrap;html=1;fontFamily=Helvetica;fontSize=11;fontColor=default;labelBackgroundColor=default;" parent="1" vertex="1">
          <mxGeometry x="310" y="-132" width="190" height="112" as="geometry" />
        </mxCell>
        <mxCell id="Hq7AZVbVP9MDkz0-afTN-2" value="- edges: List&amp;lt;Edge&amp;gt;" style="text;strokeColor=none;fillColor=none;align=left;verticalAlign=top;spacingLeft=4;spacingRight=4;overflow=hidden;rotatable=0;points=[[0,0.5],[1,0.5]];portConstraint=eastwest;whiteSpace=wrap;html=1;fontSize=12;" parent="wG5N-X-KkEXGidf3OUgP-12" vertex="1">
          <mxGeometry y="26" width="190" height="26" as="geometry" />
        </mxCell>
        <mxCell id="Hq7AZVbVP9MDkz0-afTN-1" value="- points: List&amp;lt;Point&amp;gt;" style="text;strokeColor=none;fillColor=none;align=left;verticalAlign=top;spacingLeft=4;spacingRight=4;overflow=hidden;rotatable=0;points=[[0,0.5],[1,0.5]];portConstraint=eastwest;whiteSpace=wrap;html=1;fontSize=12;" parent="wG5N-X-KkEXGidf3OUgP-12" vertex="1">
          <mxGeometry y="52" width="190" height="26" as="geometry" />
        </mxCell>
        <mxCell id="wG5N-X-KkEXGidf3OUgP-14" value="" style="line;strokeWidth=1;fillColor=none;align=left;verticalAlign=middle;spacingTop=-1;spacingLeft=3;spacingRight=3;rotatable=0;labelPosition=right;points=[];portConstraint=eastwest;strokeColor=inherit;fontFamily=Helvetica;fontSize=11;fontColor=default;labelBackgroundColor=default;" parent="wG5N-X-KkEXGidf3OUgP-12" vertex="1">
          <mxGeometry y="78" width="190" height="8" as="geometry" />
        </mxCell>
        <mxCell id="wG5N-X-KkEXGidf3OUgP-15" value="&lt;font style=&quot;font-size: 12px;&quot;&gt;+ transform()&lt;/font&gt;" style="text;strokeColor=none;fillColor=none;align=left;verticalAlign=top;spacingLeft=4;spacingRight=4;overflow=hidden;rotatable=0;points=[[0,0.5],[1,0.5]];portConstraint=eastwest;whiteSpace=wrap;html=1;fontFamily=Helvetica;fontSize=11;fontColor=default;labelBackgroundColor=default;" parent="wG5N-X-KkEXGidf3OUgP-12" vertex="1">
          <mxGeometry y="86" width="190" height="26" as="geometry" />
        </mxCell>
        <mxCell id="wG5N-X-KkEXGidf3OUgP-22" value="" style="endArrow=block;endSize=16;endFill=0;html=1;rounded=0;" parent="1" source="wG5N-X-KkEXGidf3OUgP-12" target="wG5N-X-KkEXGidf3OUgP-2" edge="1">
          <mxGeometry width="160" relative="1" as="geometry">
            <mxPoint x="640" y="-160.0000000000001" as="sourcePoint" />
            <mxPoint x="800" y="-160.0000000000001" as="targetPoint" />
            <Array as="points" />
          </mxGeometry>
        </mxCell>
        <mxCell id="RoPdo0o82Oh-xpY75AFl-17" value="&lt;div style=&quot;text-align: left;&quot;&gt;&lt;span style=&quot;font-size: 12px; background-color: light-dark(#ffffff, var(--ge-dark-color, #121212)); color: light-dark(rgb(0, 0, 0), rgb(255, 255, 255));&quot;&gt;AbstractCameraImplementation&lt;/span&gt;&lt;/div&gt;" style="swimlane;fontStyle=1;align=center;verticalAlign=top;childLayout=stackLayout;horizontal=1;startSize=26;horizontalStack=0;resizeParent=1;resizeParentMax=0;resizeLast=0;collapsible=1;marginBottom=0;whiteSpace=wrap;html=1;fontFamily=Helvetica;fontSize=11;fontColor=default;labelBackgroundColor=default;" parent="1" vertex="1">
          <mxGeometry x="930" y="-308" width="190" height="60" as="geometry" />
        </mxCell>
        <mxCell id="RoPdo0o82Oh-xpY75AFl-18" value="" style="line;strokeWidth=1;fillColor=none;align=left;verticalAlign=middle;spacingTop=-1;spacingLeft=3;spacingRight=3;rotatable=0;labelPosition=right;points=[];portConstraint=eastwest;strokeColor=inherit;fontFamily=Helvetica;fontSize=11;fontColor=default;labelBackgroundColor=default;" parent="RoPdo0o82Oh-xpY75AFl-17" vertex="1">
          <mxGeometry y="26" width="190" height="8" as="geometry" />
        </mxCell>
        <mxCell id="RoPdo0o82Oh-xpY75AFl-19" value="&lt;font style=&quot;font-size: 12px;&quot;&gt;+ transform()&lt;/font&gt;" style="text;strokeColor=none;fillColor=none;align=left;verticalAlign=top;spacingLeft=4;spacingRight=4;overflow=hidden;rotatable=0;points=[[0,0.5],[1,0.5]];portConstraint=eastwest;whiteSpace=wrap;html=1;fontFamily=Helvetica;fontSize=11;fontColor=default;labelBackgroundColor=default;" parent="RoPdo0o82Oh-xpY75AFl-17" vertex="1">
          <mxGeometry y="34" width="190" height="26" as="geometry" />
        </mxCell>
        <mxCell id="RoPdo0o82Oh-xpY75AFl-35" value="" style="endArrow=open;html=1;endSize=12;startArrow=diamondThin;startSize=14;startFill=1;edgeStyle=orthogonalEdgeStyle;align=left;verticalAlign=bottom;rounded=0;fontFamily=Helvetica;fontSize=12;fontColor=default;" parent="1" source="RoPdo0o82Oh-xpY75AFl-33" target="RoPdo0o82Oh-xpY75AFl-17" edge="1">
          <mxGeometry x="-0.8479" y="10" relative="1" as="geometry">
            <mxPoint x="1030" y="-190.0000000000001" as="sourcePoint" />
            <mxPoint x="1190" y="-190.0000000000001" as="targetPoint" />
            <Array as="points">
              <mxPoint x="1010" y="-447" />
            </Array>
            <mxPoint as="offset" />
          </mxGeometry>
        </mxCell>
        <mxCell id="RoPdo0o82Oh-xpY75AFl-37" value="&lt;font style=&quot;font-size: 12px;&quot;&gt;PerspectiveCameraImplementation&lt;/font&gt;" style="swimlane;fontStyle=1;align=center;verticalAlign=top;childLayout=stackLayout;horizontal=1;startSize=26;horizontalStack=0;resizeParent=1;resizeParentMax=0;resizeLast=0;collapsible=1;marginBottom=0;whiteSpace=wrap;html=1;fontFamily=Helvetica;fontSize=11;fontColor=default;labelBackgroundColor=default;" parent="1" vertex="1">
          <mxGeometry x="910" y="-108" width="230" height="112" as="geometry" />
        </mxCell>
        <mxCell id="RoPdo0o82Oh-xpY75AFl-44" value="&lt;font style=&quot;font-size: 12px;&quot;&gt;- position: Point&lt;/font&gt;" style="text;strokeColor=none;fillColor=none;align=left;verticalAlign=top;spacingLeft=4;spacingRight=4;overflow=hidden;rotatable=0;points=[[0,0.5],[1,0.5]];portConstraint=eastwest;whiteSpace=wrap;html=1;fontFamily=Helvetica;fontSize=11;fontColor=default;labelBackgroundColor=default;" parent="RoPdo0o82Oh-xpY75AFl-37" vertex="1">
          <mxGeometry y="26" width="230" height="26" as="geometry" />
        </mxCell>
        <mxCell id="RoPdo0o82Oh-xpY75AFl-45" value="&lt;font style=&quot;font-size: 12px;&quot;&gt;- direction: Vector&lt;/font&gt;" style="text;strokeColor=none;fillColor=none;align=left;verticalAlign=top;spacingLeft=4;spacingRight=4;overflow=hidden;rotatable=0;points=[[0,0.5],[1,0.5]];portConstraint=eastwest;whiteSpace=wrap;html=1;fontFamily=Helvetica;fontSize=11;fontColor=default;labelBackgroundColor=default;" parent="RoPdo0o82Oh-xpY75AFl-37" vertex="1">
          <mxGeometry y="52" width="230" height="26" as="geometry" />
        </mxCell>
        <mxCell id="RoPdo0o82Oh-xpY75AFl-39" value="" style="line;strokeWidth=1;fillColor=none;align=left;verticalAlign=middle;spacingTop=-1;spacingLeft=3;spacingRight=3;rotatable=0;labelPosition=right;points=[];portConstraint=eastwest;strokeColor=inherit;fontFamily=Helvetica;fontSize=11;fontColor=default;labelBackgroundColor=default;" parent="RoPdo0o82Oh-xpY75AFl-37" vertex="1">
          <mxGeometry y="78" width="230" height="8" as="geometry" />
        </mxCell>
        <mxCell id="RoPdo0o82Oh-xpY75AFl-40" value="&lt;font style=&quot;font-size: 12px;&quot;&gt;+ transform()&lt;/font&gt;" style="text;strokeColor=none;fillColor=none;align=left;verticalAlign=top;spacingLeft=4;spacingRight=4;overflow=hidden;rotatable=0;points=[[0,0.5],[1,0.5]];portConstraint=eastwest;whiteSpace=wrap;html=1;fontFamily=Helvetica;fontSize=11;fontColor=default;labelBackgroundColor=default;" parent="RoPdo0o82Oh-xpY75AFl-37" vertex="1">
          <mxGeometry y="86" width="230" height="26" as="geometry" />
        </mxCell>
        <mxCell id="RoPdo0o82Oh-xpY75AFl-46" value="" style="endArrow=open;html=1;endSize=12;startArrow=diamondThin;startSize=14;startFill=1;edgeStyle=orthogonalEdgeStyle;align=left;verticalAlign=bottom;rounded=0;fontFamily=Helvetica;fontSize=12;fontColor=default;" parent="1" source="RoPdo0o82Oh-xpY75AFl-44" target="cPvdEGlNGaqBh6omg6_h-73" edge="1">
          <mxGeometry x="-0.8067" y="-110" relative="1" as="geometry">
            <mxPoint x="1060" y="189.9999999999999" as="sourcePoint" />
            <mxPoint x="1220" y="189.9999999999999" as="targetPoint" />
            <Array as="points">
              <mxPoint x="1230" y="-69" />
              <mxPoint x="1230" y="170" />
              <mxPoint x="250" y="170" />
            </Array>
            <mxPoint as="offset" />
          </mxGeometry>
        </mxCell>
        <mxCell id="RoPdo0o82Oh-xpY75AFl-49" value="" style="endArrow=block;endSize=16;endFill=0;html=1;rounded=0;fontFamily=Helvetica;fontSize=12;fontColor=default;" parent="1" source="RoPdo0o82Oh-xpY75AFl-37" target="RoPdo0o82Oh-xpY75AFl-17" edge="1">
          <mxGeometry width="160" relative="1" as="geometry">
            <mxPoint x="1050" y="-188.2500000000001" as="sourcePoint" />
            <mxPoint x="1210" y="-188.2500000000001" as="targetPoint" />
            <Array as="points" />
          </mxGeometry>
        </mxCell>
        <mxCell id="SluWU2ijYfoVzkfLN9AI-1" value="&lt;font style=&quot;font-size: 12px;&quot;&gt;DirectorSolution&lt;/font&gt;" style="swimlane;fontStyle=1;align=center;verticalAlign=top;childLayout=stackLayout;horizontal=1;startSize=26;horizontalStack=0;resizeParent=1;resizeParentMax=0;resizeLast=0;collapsible=1;marginBottom=0;whiteSpace=wrap;html=1;fontFamily=Helvetica;fontSize=11;fontColor=default;labelBackgroundColor=default;pointerEvents=0;fillColor=none;gradientColor=none;" parent="1" vertex="1">
          <mxGeometry x="-110" y="-1180" width="170" height="34" as="geometry" />
        </mxCell>
        <mxCell id="SluWU2ijYfoVzkfLN9AI-3" value="" style="line;strokeWidth=1;fillColor=none;align=left;verticalAlign=middle;spacingTop=-1;spacingLeft=3;spacingRight=3;rotatable=0;labelPosition=right;points=[];portConstraint=eastwest;strokeColor=inherit;fontFamily=Helvetica;fontSize=11;fontColor=default;labelBackgroundColor=default;pointerEvents=0;" parent="SluWU2ijYfoVzkfLN9AI-1" vertex="1">
          <mxGeometry y="26" width="170" height="8" as="geometry" />
        </mxCell>
        <mxCell id="bEU1QXEmUX0ItJ249fvr-1" value="&lt;font style=&quot;font-size: 12px;&quot;&gt;AbstractBaseDirector&lt;/font&gt;" style="swimlane;fontStyle=1;align=center;verticalAlign=top;childLayout=stackLayout;horizontal=1;startSize=26;horizontalStack=0;resizeParent=1;resizeParentMax=0;resizeLast=0;collapsible=1;marginBottom=0;whiteSpace=wrap;html=1;fontFamily=Helvetica;fontSize=11;fontColor=default;labelBackgroundColor=default;pointerEvents=0;fillColor=none;gradientColor=none;" parent="1" vertex="1">
          <mxGeometry x="-343.5" y="-986" width="180" height="60" as="geometry" />
        </mxCell>
        <mxCell id="bEU1QXEmUX0ItJ249fvr-3" value="" style="line;strokeWidth=1;fillColor=none;align=left;verticalAlign=middle;spacingTop=-1;spacingLeft=3;spacingRight=3;rotatable=0;labelPosition=right;points=[];portConstraint=eastwest;strokeColor=inherit;fontFamily=Helvetica;fontSize=11;fontColor=default;labelBackgroundColor=default;pointerEvents=0;" parent="bEU1QXEmUX0ItJ249fvr-1" vertex="1">
          <mxGeometry y="26" width="180" height="8" as="geometry" />
        </mxCell>
        <mxCell id="bEU1QXEmUX0ItJ249fvr-9" value="&lt;font style=&quot;font-size: 12px;&quot;&gt;+ create(): AbstractBaseObject&lt;/font&gt;" style="text;strokeColor=none;fillColor=none;align=left;verticalAlign=top;spacingLeft=4;spacingRight=4;overflow=hidden;rotatable=0;points=[[0,0.5],[1,0.5]];portConstraint=eastwest;whiteSpace=wrap;html=1;fontFamily=Helvetica;fontSize=11;fontColor=default;labelBackgroundColor=default;" parent="bEU1QXEmUX0ItJ249fvr-1" vertex="1">
          <mxGeometry y="34" width="180" height="26" as="geometry" />
        </mxCell>
        <mxCell id="bEU1QXEmUX0ItJ249fvr-10" value="1" style="endArrow=open;html=1;endSize=12;startArrow=diamondThin;startSize=14;startFill=0;edgeStyle=orthogonalEdgeStyle;align=left;verticalAlign=bottom;rounded=0;fontFamily=Helvetica;fontSize=12;fontColor=default;" parent="1" source="SluWU2ijYfoVzkfLN9AI-1" target="bEU1QXEmUX0ItJ249fvr-1" edge="1">
          <mxGeometry x="-1" y="3" relative="1" as="geometry">
            <mxPoint x="-120" y="-950.0000000000001" as="sourcePoint" />
            <mxPoint x="40" y="-950.0000000000001" as="targetPoint" />
            <Array as="points">
              <mxPoint x="-254" y="-1160" />
            </Array>
          </mxGeometry>
        </mxCell>
        <mxCell id="bEU1QXEmUX0ItJ249fvr-12" value="&lt;font style=&quot;font-size: 12px;&quot;&gt;LoadSceneService&lt;/font&gt;" style="swimlane;fontStyle=1;align=center;verticalAlign=top;childLayout=stackLayout;horizontal=1;startSize=26;horizontalStack=0;resizeParent=1;resizeParentMax=0;resizeLast=0;collapsible=1;marginBottom=0;whiteSpace=wrap;html=1;fontFamily=Helvetica;fontSize=11;fontColor=default;labelBackgroundColor=default;pointerEvents=0;fillColor=none;gradientColor=none;" parent="1" vertex="1">
          <mxGeometry x="115" y="-1360" width="170" height="86" as="geometry" />
        </mxCell>
        <mxCell id="bEU1QXEmUX0ItJ249fvr-13" value="&lt;font style=&quot;font-size: 12px;&quot;&gt;+ field: type&lt;/font&gt;" style="text;strokeColor=none;fillColor=none;align=left;verticalAlign=top;spacingLeft=4;spacingRight=4;overflow=hidden;rotatable=0;points=[[0,0.5],[1,0.5]];portConstraint=eastwest;whiteSpace=wrap;html=1;fontFamily=Helvetica;fontSize=12;fontColor=default;labelBackgroundColor=default;" parent="bEU1QXEmUX0ItJ249fvr-12" vertex="1">
          <mxGeometry y="26" width="170" height="26" as="geometry" />
        </mxCell>
        <mxCell id="bEU1QXEmUX0ItJ249fvr-14" value="" style="line;strokeWidth=1;fillColor=none;align=left;verticalAlign=middle;spacingTop=-1;spacingLeft=3;spacingRight=3;rotatable=0;labelPosition=right;points=[];portConstraint=eastwest;strokeColor=inherit;fontFamily=Helvetica;fontSize=11;fontColor=default;labelBackgroundColor=default;pointerEvents=0;" parent="bEU1QXEmUX0ItJ249fvr-12" vertex="1">
          <mxGeometry y="52" width="170" height="8" as="geometry" />
        </mxCell>
        <mxCell id="bEU1QXEmUX0ItJ249fvr-15" value="&lt;font style=&quot;font-size: 12px;&quot;&gt;+ method(type): type&lt;/font&gt;" style="text;strokeColor=none;fillColor=none;align=left;verticalAlign=top;spacingLeft=4;spacingRight=4;overflow=hidden;rotatable=0;points=[[0,0.5],[1,0.5]];portConstraint=eastwest;whiteSpace=wrap;html=1;fontFamily=Helvetica;fontSize=12;fontColor=default;labelBackgroundColor=default;" parent="bEU1QXEmUX0ItJ249fvr-12" vertex="1">
          <mxGeometry y="60" width="170" height="26" as="geometry" />
        </mxCell>
        <mxCell id="AtqXoVSQou1-4tC9ObSO-1" value="" style="endArrow=open;html=1;endSize=12;startArrow=diamondThin;startSize=14;startFill=0;edgeStyle=orthogonalEdgeStyle;align=left;verticalAlign=bottom;rounded=0;fontFamily=Helvetica;fontSize=12;fontColor=default;" parent="1" source="bEU1QXEmUX0ItJ249fvr-12" target="soNsP1nrS6MGEwE5gFpr-8" edge="1">
          <mxGeometry x="-1" y="3" relative="1" as="geometry">
            <mxPoint x="410" y="-920.0000000000001" as="sourcePoint" />
            <mxPoint x="570" y="-920.0000000000001" as="targetPoint" />
            <Array as="points">
              <mxPoint x="190" y="-1000" />
              <mxPoint x="-20" y="-1000" />
            </Array>
          </mxGeometry>
        </mxCell>
        <mxCell id="AtqXoVSQou1-4tC9ObSO-2" value="" style="endArrow=block;endSize=16;endFill=0;html=1;rounded=0;fontFamily=Helvetica;fontSize=12;fontColor=default;" parent="1" source="cPvdEGlNGaqBh6omg6_h-228" target="bEU1QXEmUX0ItJ249fvr-1" edge="1">
          <mxGeometry width="160" relative="1" as="geometry">
            <mxPoint x="-460" y="-810.0000000000001" as="sourcePoint" />
            <mxPoint x="-300" y="-810.0000000000001" as="targetPoint" />
            <Array as="points">
              <mxPoint x="-1035" y="-850" />
              <mxPoint x="-253" y="-850" />
            </Array>
          </mxGeometry>
        </mxCell>
        <mxCell id="AtqXoVSQou1-4tC9ObSO-32" value="TXTCameraLoader" style="swimlane;fontStyle=0;childLayout=stackLayout;horizontal=1;startSize=26;fillColor=none;horizontalStack=0;resizeParent=1;resizeParentMax=0;resizeLast=0;collapsible=1;marginBottom=0;html=1;fontSize=12;" parent="1" vertex="1">
          <mxGeometry x="-845" y="-161" width="140" height="78" as="geometry" />
        </mxCell>
        <mxCell id="AtqXoVSQou1-4tC9ObSO-33" value="scanPoints()" style="text;strokeColor=none;fillColor=none;align=left;verticalAlign=top;spacingLeft=4;spacingRight=4;overflow=hidden;rotatable=0;points=[[0,0.5],[1,0.5]];portConstraint=eastwest;whiteSpace=wrap;html=1;fontSize=12;" parent="AtqXoVSQou1-4tC9ObSO-32" vertex="1">
          <mxGeometry y="26" width="140" height="26" as="geometry" />
        </mxCell>
        <mxCell id="AtqXoVSQou1-4tC9ObSO-34" value="&lt;div&gt;scanEdges()&lt;/div&gt;" style="text;strokeColor=none;fillColor=none;align=left;verticalAlign=top;spacingLeft=4;spacingRight=4;overflow=hidden;rotatable=0;points=[[0,0.5],[1,0.5]];portConstraint=eastwest;whiteSpace=wrap;html=1;fontSize=12;" parent="AtqXoVSQou1-4tC9ObSO-32" vertex="1">
          <mxGeometry y="52" width="140" height="26" as="geometry" />
        </mxCell>
        <mxCell id="AtqXoVSQou1-4tC9ObSO-35" value="AbstractCameraLoader" style="swimlane;fontStyle=0;childLayout=stackLayout;horizontal=1;startSize=26;fillColor=none;horizontalStack=0;resizeParent=1;resizeParentMax=0;resizeLast=0;collapsible=1;marginBottom=0;html=1;fontSize=12;" parent="1" vertex="1">
          <mxGeometry x="-860" y="-292" width="170" height="78" as="geometry" />
        </mxCell>
        <mxCell id="AtqXoVSQou1-4tC9ObSO-36" value="scanPoints(FILE): Points" style="text;strokeColor=none;fillColor=none;align=left;verticalAlign=top;spacingLeft=4;spacingRight=4;overflow=hidden;rotatable=0;points=[[0,0.5],[1,0.5]];portConstraint=eastwest;whiteSpace=wrap;html=1;fontSize=12;" parent="AtqXoVSQou1-4tC9ObSO-35" vertex="1">
          <mxGeometry y="26" width="170" height="26" as="geometry" />
        </mxCell>
        <mxCell id="AtqXoVSQou1-4tC9ObSO-37" value="&lt;div&gt;scanEdges(FILE): Edges&lt;/div&gt;" style="text;strokeColor=none;fillColor=none;align=left;verticalAlign=top;spacingLeft=4;spacingRight=4;overflow=hidden;rotatable=0;points=[[0,0.5],[1,0.5]];portConstraint=eastwest;whiteSpace=wrap;html=1;fontSize=12;" parent="AtqXoVSQou1-4tC9ObSO-35" vertex="1">
          <mxGeometry y="52" width="170" height="26" as="geometry" />
        </mxCell>
        <mxCell id="AtqXoVSQou1-4tC9ObSO-38" value="CameraLoaderSolution&lt;div&gt;(Factory method)&lt;/div&gt;" style="swimlane;fontStyle=0;childLayout=stackLayout;horizontal=1;startSize=40;fillColor=none;horizontalStack=0;resizeParent=1;resizeParentMax=0;resizeLast=0;collapsible=1;marginBottom=0;html=1;fontSize=12;" parent="1" vertex="1">
          <mxGeometry x="-720" y="-426" width="350" height="90" as="geometry" />
        </mxCell>
        <mxCell id="AtqXoVSQou1-4tC9ObSO-39" value="create&lt;span style=&quot;text-align: center; text-wrap-mode: nowrap;&quot;&gt;Camera&lt;/span&gt;LoaderCreator(fileName): Abstract&lt;span style=&quot;text-align: center; text-wrap-mode: nowrap;&quot;&gt;Camera&lt;/span&gt;Loader" style="text;strokeColor=none;fillColor=none;align=left;verticalAlign=top;spacingLeft=4;spacingRight=4;overflow=hidden;rotatable=0;points=[[0,0.5],[1,0.5]];portConstraint=eastwest;whiteSpace=wrap;html=1;fontSize=12;" parent="AtqXoVSQou1-4tC9ObSO-38" vertex="1">
          <mxGeometry y="40" width="350" height="50" as="geometry" />
        </mxCell>
        <mxCell id="AtqXoVSQou1-4tC9ObSO-40" value="AbstractCameraLoaderCreator" style="swimlane;fontStyle=0;childLayout=stackLayout;horizontal=1;startSize=26;fillColor=none;horizontalStack=0;resizeParent=1;resizeParentMax=0;resizeLast=0;collapsible=1;marginBottom=0;html=1;fontSize=12;" parent="1" vertex="1">
          <mxGeometry x="-640" y="-279" width="190" height="52" as="geometry" />
        </mxCell>
        <mxCell id="AtqXoVSQou1-4tC9ObSO-41" value="create&lt;span style=&quot;text-align: center; text-wrap-mode: nowrap;&quot;&gt;Camera&lt;/span&gt;Loader()" style="text;strokeColor=none;fillColor=none;align=left;verticalAlign=top;spacingLeft=4;spacingRight=4;overflow=hidden;rotatable=0;points=[[0,0.5],[1,0.5]];portConstraint=eastwest;whiteSpace=wrap;html=1;fontSize=12;" parent="AtqXoVSQou1-4tC9ObSO-40" vertex="1">
          <mxGeometry y="26" width="190" height="26" as="geometry" />
        </mxCell>
        <mxCell id="AtqXoVSQou1-4tC9ObSO-42" value="" style="endArrow=open;endFill=1;endSize=12;html=1;rounded=0;fontSize=12;" parent="1" source="AtqXoVSQou1-4tC9ObSO-38" target="AtqXoVSQou1-4tC9ObSO-40" edge="1">
          <mxGeometry width="160" relative="1" as="geometry">
            <mxPoint x="-410" y="-332" as="sourcePoint" />
            <mxPoint x="20" y="-342" as="targetPoint" />
          </mxGeometry>
        </mxCell>
        <mxCell id="AtqXoVSQou1-4tC9ObSO-43" value="" style="endArrow=block;endSize=16;endFill=0;html=1;rounded=0;fontSize=12;" parent="1" source="AtqXoVSQou1-4tC9ObSO-32" target="AtqXoVSQou1-4tC9ObSO-35" edge="1">
          <mxGeometry width="160" relative="1" as="geometry">
            <mxPoint x="-690" y="-71" as="sourcePoint" />
            <mxPoint x="-530" y="-71" as="targetPoint" />
            <Array as="points" />
          </mxGeometry>
        </mxCell>
        <mxCell id="AtqXoVSQou1-4tC9ObSO-44" value="" style="endArrow=open;endFill=1;endSize=12;html=1;rounded=0;fontSize=12;" parent="1" source="AtqXoVSQou1-4tC9ObSO-40" target="AtqXoVSQou1-4tC9ObSO-35" edge="1">
          <mxGeometry width="160" relative="1" as="geometry">
            <mxPoint x="-440" y="-50.99999999999999" as="sourcePoint" />
            <mxPoint x="-370" y="-265.0000000000002" as="targetPoint" />
          </mxGeometry>
        </mxCell>
        <mxCell id="AtqXoVSQou1-4tC9ObSO-45" value="TXTCameralLoaderCreator" style="swimlane;fontStyle=0;childLayout=stackLayout;horizontal=1;startSize=26;fillColor=none;horizontalStack=0;resizeParent=1;resizeParentMax=0;resizeLast=0;collapsible=1;marginBottom=0;html=1;fontSize=12;" parent="1" vertex="1">
          <mxGeometry x="-630" y="-148" width="170" height="52" as="geometry" />
        </mxCell>
        <mxCell id="AtqXoVSQou1-4tC9ObSO-46" value="create&lt;span style=&quot;text-align: center; text-wrap-mode: nowrap;&quot;&gt;Camera&lt;/span&gt;Loader()" style="text;strokeColor=none;fillColor=none;align=left;verticalAlign=top;spacingLeft=4;spacingRight=4;overflow=hidden;rotatable=0;points=[[0,0.5],[1,0.5]];portConstraint=eastwest;whiteSpace=wrap;html=1;fontSize=12;" parent="AtqXoVSQou1-4tC9ObSO-45" vertex="1">
          <mxGeometry y="26" width="170" height="26" as="geometry" />
        </mxCell>
        <mxCell id="AtqXoVSQou1-4tC9ObSO-47" value="" style="endArrow=block;endSize=16;endFill=0;html=1;rounded=0;fontSize=12;" parent="1" source="AtqXoVSQou1-4tC9ObSO-45" target="AtqXoVSQou1-4tC9ObSO-40" edge="1">
          <mxGeometry width="160" relative="1" as="geometry">
            <mxPoint x="-650" y="-111" as="sourcePoint" />
            <mxPoint x="-490" y="-111" as="targetPoint" />
          </mxGeometry>
        </mxCell>
        <mxCell id="AtqXoVSQou1-4tC9ObSO-48" value="" style="html=1;verticalAlign=bottom;labelBackgroundColor=none;endArrow=open;endFill=0;dashed=1;rounded=0;fontSize=12;" parent="1" source="AtqXoVSQou1-4tC9ObSO-45" target="AtqXoVSQou1-4tC9ObSO-32" edge="1">
          <mxGeometry width="160" relative="1" as="geometry">
            <mxPoint x="-190" y="-158" as="sourcePoint" />
            <mxPoint x="-30" y="-158" as="targetPoint" />
          </mxGeometry>
        </mxCell>
        <mxCell id="AtqXoVSQou1-4tC9ObSO-49" value="1" style="endArrow=open;html=1;endSize=12;startArrow=diamondThin;startSize=14;startFill=1;edgeStyle=orthogonalEdgeStyle;align=left;verticalAlign=bottom;rounded=0;fontFamily=Helvetica;fontSize=12;fontColor=default;" parent="1" source="EL84oEiA5ySslWerlNba-1" target="AtqXoVSQou1-4tC9ObSO-38" edge="1">
          <mxGeometry x="-1" y="3" relative="1" as="geometry">
            <mxPoint x="-560" y="-545.71" as="sourcePoint" />
            <mxPoint x="-400" y="-545.71" as="targetPoint" />
          </mxGeometry>
        </mxCell>
        <mxCell id="ijFdt0kmVho1ybQM2Piw-2" value="&lt;font style=&quot;font-size: 12px;&quot;&gt;AbstractBaseBuilder&lt;/font&gt;" style="swimlane;fontStyle=1;align=center;verticalAlign=top;childLayout=stackLayout;horizontal=1;startSize=26;horizontalStack=0;resizeParent=1;resizeParentMax=0;resizeLast=0;collapsible=1;marginBottom=0;whiteSpace=wrap;html=1;fontFamily=Helvetica;fontSize=11;fontColor=default;labelBackgroundColor=default;" parent="1" vertex="1">
          <mxGeometry x="-920" y="-778.5" width="170" height="60" as="geometry" />
        </mxCell>
        <mxCell id="ijFdt0kmVho1ybQM2Piw-4" value="" style="line;strokeWidth=1;fillColor=none;align=left;verticalAlign=middle;spacingTop=-1;spacingLeft=3;spacingRight=3;rotatable=0;labelPosition=right;points=[];portConstraint=eastwest;strokeColor=inherit;fontFamily=Helvetica;fontSize=11;fontColor=default;labelBackgroundColor=default;" parent="ijFdt0kmVho1ybQM2Piw-2" vertex="1">
          <mxGeometry y="26" width="170" height="8" as="geometry" />
        </mxCell>
        <mxCell id="ijFdt0kmVho1ybQM2Piw-8" value="&lt;font style=&quot;font-size: 12px;&quot;&gt;+ get() - строит фигуру&lt;/font&gt;" style="text;strokeColor=none;fillColor=none;align=left;verticalAlign=top;spacingLeft=4;spacingRight=4;overflow=hidden;rotatable=0;points=[[0,0.5],[1,0.5]];portConstraint=eastwest;whiteSpace=wrap;html=1;fontFamily=Helvetica;fontSize=11;fontColor=default;labelBackgroundColor=default;" parent="ijFdt0kmVho1ybQM2Piw-2" vertex="1">
          <mxGeometry y="34" width="170" height="26" as="geometry" />
        </mxCell>
        <mxCell id="ijFdt0kmVho1ybQM2Piw-6" value="" style="endArrow=block;endSize=16;endFill=0;html=1;rounded=0;exitX=0.25;exitY=0;exitDx=0;exitDy=0;" parent="1" source="EL84oEiA5ySslWerlNba-1" target="ijFdt0kmVho1ybQM2Piw-2" edge="1">
          <mxGeometry width="160" relative="1" as="geometry">
            <mxPoint x="-910" y="-742.0000000000001" as="sourcePoint" />
            <mxPoint x="-750" y="-742.0000000000001" as="targetPoint" />
            <Array as="points">
              <mxPoint x="-650" y="-670" />
              <mxPoint x="-835" y="-670" />
            </Array>
          </mxGeometry>
        </mxCell>
        <mxCell id="ijFdt0kmVho1ybQM2Piw-7" value="" style="endArrow=block;endSize=16;endFill=0;html=1;rounded=0;entryX=0.287;entryY=1.093;entryDx=0;entryDy=0;entryPerimeter=0;exitX=0.75;exitY=0;exitDx=0;exitDy=0;" parent="1" source="cPvdEGlNGaqBh6omg6_h-233" target="ijFdt0kmVho1ybQM2Piw-8" edge="1">
          <mxGeometry width="160" relative="1" as="geometry">
            <mxPoint x="-1287" y="-770.7900000000001" as="sourcePoint" />
            <mxPoint x="-1127" y="-770.7900000000001" as="targetPoint" />
            <Array as="points">
              <mxPoint x="-992" y="-670" />
              <mxPoint x="-870" y="-670" />
            </Array>
          </mxGeometry>
        </mxCell>
        <mxCell id="YfvDT_I1cS60cdu6LrY5-5" value="&lt;span style=&quot;font-size: 12px;&quot;&gt;BaseObjectComposite&lt;/span&gt;" style="swimlane;fontStyle=1;align=center;verticalAlign=top;childLayout=stackLayout;horizontal=1;startSize=26;horizontalStack=0;resizeParent=1;resizeParentMax=0;resizeLast=0;collapsible=1;marginBottom=0;whiteSpace=wrap;html=1;fontFamily=Helvetica;fontSize=11;fontColor=default;labelBackgroundColor=default;" parent="1" vertex="1">
          <mxGeometry x="1040" y="-486" width="300" height="60" as="geometry" />
        </mxCell>
        <mxCell id="YfvDT_I1cS60cdu6LrY5-11" value="&lt;span style=&quot;font-size: 12px;&quot;&gt;- components: List&amp;lt;shared_ptr&amp;lt;&lt;/span&gt;&lt;span style=&quot;font-size: 12px; text-align: center; text-wrap-mode: nowrap;&quot;&gt;AbstractBaseObject&lt;/span&gt;&lt;span style=&quot;font-size: 12px;&quot;&gt;&amp;gt;&amp;gt;&lt;/span&gt;" style="text;strokeColor=none;fillColor=none;align=left;verticalAlign=top;spacingLeft=4;spacingRight=4;overflow=hidden;rotatable=0;points=[[0,0.5],[1,0.5]];portConstraint=eastwest;whiteSpace=wrap;html=1;fontFamily=Helvetica;fontSize=11;fontColor=default;labelBackgroundColor=none;" parent="YfvDT_I1cS60cdu6LrY5-5" vertex="1">
          <mxGeometry y="26" width="300" height="26" as="geometry" />
        </mxCell>
        <mxCell id="YfvDT_I1cS60cdu6LrY5-7" value="" style="line;strokeWidth=1;fillColor=none;align=left;verticalAlign=middle;spacingTop=-1;spacingLeft=3;spacingRight=3;rotatable=0;labelPosition=right;points=[];portConstraint=eastwest;strokeColor=inherit;fontFamily=Helvetica;fontSize=11;fontColor=default;labelBackgroundColor=default;" parent="YfvDT_I1cS60cdu6LrY5-5" vertex="1">
          <mxGeometry y="52" width="300" height="8" as="geometry" />
        </mxCell>
        <mxCell id="YfvDT_I1cS60cdu6LrY5-10" value="1..*" style="endArrow=open;html=1;endSize=12;startArrow=diamondThin;startSize=14;startFill=0;edgeStyle=orthogonalEdgeStyle;align=left;verticalAlign=bottom;rounded=0;" parent="1" source="YfvDT_I1cS60cdu6LrY5-5" target="XKCMbLRjZycL2p7mwECD-9" edge="1">
          <mxGeometry x="-0.9245" relative="1" as="geometry">
            <mxPoint x="1100" y="-640.0000000000001" as="sourcePoint" />
            <mxPoint x="1260" y="-640.0000000000001" as="targetPoint" />
            <Array as="points">
              <mxPoint x="1240" y="-570" />
              <mxPoint x="890" y="-570" />
            </Array>
            <mxPoint as="offset" />
          </mxGeometry>
        </mxCell>
        <mxCell id="MgFEorn5SetkvFqvPVox-2" value="" style="html=1;verticalAlign=bottom;labelBackgroundColor=none;endArrow=none;endFill=0;endSize=12;align=left;rounded=0;startSize=14;exitX=0.5;exitY=0;exitDx=0;exitDy=0;" parent="1" source="XKCMbLRjZycL2p7mwECD-22" edge="1">
          <mxGeometry x="-1" relative="1" as="geometry">
            <mxPoint x="740" y="-580" as="sourcePoint" />
            <mxPoint x="830" y="-520" as="targetPoint" />
            <Array as="points">
              <mxPoint x="845" y="-520" />
            </Array>
          </mxGeometry>
        </mxCell>
        <mxCell id="MgFEorn5SetkvFqvPVox-3" value="" style="html=1;verticalAlign=bottom;labelBackgroundColor=none;endArrow=none;endFill=0;endSize=12;align=left;rounded=0;startSize=14;entryX=0.5;entryY=0;entryDx=0;entryDy=0;" parent="1" target="YfvDT_I1cS60cdu6LrY5-5" edge="1">
          <mxGeometry x="-1" relative="1" as="geometry">
            <mxPoint x="840" y="-520" as="sourcePoint" />
            <mxPoint x="1010" y="-580" as="targetPoint" />
            <Array as="points">
              <mxPoint x="1190" y="-520" />
            </Array>
          </mxGeometry>
        </mxCell>
        <mxCell id="MgFEorn5SetkvFqvPVox-7" value="1" style="endArrow=open;html=1;endSize=12;startArrow=diamondThin;startSize=14;startFill=0;edgeStyle=orthogonalEdgeStyle;align=left;verticalAlign=bottom;rounded=0;" parent="1" source="c2rE2XwYI8c6K55yIRtU-3" target="3kRf3ehpMCgD7gB9vPQS-1" edge="1">
          <mxGeometry x="-1" y="3" relative="1" as="geometry">
            <mxPoint x="1515" y="-1620" as="sourcePoint" />
            <mxPoint x="1675" y="-1620" as="targetPoint" />
            <Array as="points">
              <mxPoint x="1370" y="-1680" />
              <mxPoint x="1370" y="-980" />
              <mxPoint x="1760" y="-980" />
            </Array>
          </mxGeometry>
        </mxCell>
        <mxCell id="MgFEorn5SetkvFqvPVox-12" value="" style="html=1;verticalAlign=bottom;labelBackgroundColor=none;endArrow=none;endFill=0;endSize=12;align=left;rounded=0;startSize=14;dashed=1;" parent="1" source="bEU1QXEmUX0ItJ249fvr-12" edge="1">
          <mxGeometry x="-1" relative="1" as="geometry">
            <mxPoint x="520" y="-1100" as="sourcePoint" />
            <mxPoint x="200" y="-1430" as="targetPoint" />
          </mxGeometry>
        </mxCell>
        <mxCell id="MgFEorn5SetkvFqvPVox-13" value="&lt;font style=&quot;font-size: 12px;&quot;&gt;CompositeDirector&lt;/font&gt;" style="swimlane;fontStyle=1;align=center;verticalAlign=top;childLayout=stackLayout;horizontal=1;startSize=26;horizontalStack=0;resizeParent=1;resizeParentMax=0;resizeLast=0;collapsible=1;marginBottom=0;whiteSpace=wrap;html=1;fontFamily=Helvetica;fontSize=11;fontColor=default;labelBackgroundColor=default;" parent="1" vertex="1">
          <mxGeometry x="-490" y="-800" width="190" height="60" as="geometry" />
        </mxCell>
        <mxCell id="MgFEorn5SetkvFqvPVox-15" value="" style="line;strokeWidth=1;fillColor=none;align=left;verticalAlign=middle;spacingTop=-1;spacingLeft=3;spacingRight=3;rotatable=0;labelPosition=right;points=[];portConstraint=eastwest;strokeColor=inherit;fontFamily=Helvetica;fontSize=11;fontColor=default;labelBackgroundColor=default;" parent="MgFEorn5SetkvFqvPVox-13" vertex="1">
          <mxGeometry y="26" width="190" height="8" as="geometry" />
        </mxCell>
        <mxCell id="MgFEorn5SetkvFqvPVox-81" value="&lt;font style=&quot;font-size: 12px;&quot;&gt;+ create(): BaseObjectComposite&lt;/font&gt;" style="text;strokeColor=none;fillColor=none;align=left;verticalAlign=top;spacingLeft=4;spacingRight=4;overflow=hidden;rotatable=0;points=[[0,0.5],[1,0.5]];portConstraint=eastwest;whiteSpace=wrap;html=1;fontFamily=Helvetica;fontSize=11;fontColor=default;labelBackgroundColor=default;" parent="MgFEorn5SetkvFqvPVox-13" vertex="1">
          <mxGeometry y="34" width="190" height="26" as="geometry" />
        </mxCell>
        <mxCell id="MgFEorn5SetkvFqvPVox-17" value="&lt;font style=&quot;font-size: 12px;&quot;&gt;ReaderSolution&lt;/font&gt;" style="swimlane;fontStyle=1;align=center;verticalAlign=top;childLayout=stackLayout;horizontal=1;startSize=26;horizontalStack=0;resizeParent=1;resizeParentMax=0;resizeLast=0;collapsible=1;marginBottom=0;whiteSpace=wrap;html=1;fontFamily=Helvetica;fontSize=11;fontColor=default;labelBackgroundColor=default;" parent="1" vertex="1">
          <mxGeometry x="-2960" y="-1710" width="170" height="60" as="geometry" />
        </mxCell>
        <mxCell id="MgFEorn5SetkvFqvPVox-19" value="" style="line;strokeWidth=1;fillColor=none;align=left;verticalAlign=middle;spacingTop=-1;spacingLeft=3;spacingRight=3;rotatable=0;labelPosition=right;points=[];portConstraint=eastwest;strokeColor=inherit;fontFamily=Helvetica;fontSize=11;fontColor=default;labelBackgroundColor=default;" parent="MgFEorn5SetkvFqvPVox-17" vertex="1">
          <mxGeometry y="26" width="170" height="8" as="geometry" />
        </mxCell>
        <mxCell id="MgFEorn5SetkvFqvPVox-20" value="&lt;font style=&quot;font-size: 12px;&quot;&gt;+ create(id): ReaderCreator&lt;/font&gt;" style="text;strokeColor=none;fillColor=none;align=left;verticalAlign=top;spacingLeft=4;spacingRight=4;overflow=hidden;rotatable=0;points=[[0,0.5],[1,0.5]];portConstraint=eastwest;whiteSpace=wrap;html=1;fontFamily=Helvetica;fontSize=11;fontColor=default;labelBackgroundColor=default;" parent="MgFEorn5SetkvFqvPVox-17" vertex="1">
          <mxGeometry y="34" width="170" height="26" as="geometry" />
        </mxCell>
        <mxCell id="MgFEorn5SetkvFqvPVox-21" value="&lt;font style=&quot;font-size: 12px;&quot;&gt;ReaderCreator&lt;/font&gt;" style="swimlane;fontStyle=1;align=center;verticalAlign=top;childLayout=stackLayout;horizontal=1;startSize=26;horizontalStack=0;resizeParent=1;resizeParentMax=0;resizeLast=0;collapsible=1;marginBottom=0;whiteSpace=wrap;html=1;fontFamily=Helvetica;fontSize=11;fontColor=default;labelBackgroundColor=default;" parent="1" vertex="1">
          <mxGeometry x="-2730.63" y="-1710" width="200.63" height="60" as="geometry" />
        </mxCell>
        <mxCell id="MgFEorn5SetkvFqvPVox-23" value="" style="line;strokeWidth=1;fillColor=none;align=left;verticalAlign=middle;spacingTop=-1;spacingLeft=3;spacingRight=3;rotatable=0;labelPosition=right;points=[];portConstraint=eastwest;strokeColor=inherit;fontFamily=Helvetica;fontSize=11;fontColor=default;labelBackgroundColor=default;" parent="MgFEorn5SetkvFqvPVox-21" vertex="1">
          <mxGeometry y="26" width="200.63" height="8" as="geometry" />
        </mxCell>
        <mxCell id="MgFEorn5SetkvFqvPVox-24" value="&lt;font style=&quot;font-size: 12px;&quot;&gt;+ create(): AbstractReader&lt;/font&gt;" style="text;strokeColor=none;fillColor=none;align=left;verticalAlign=top;spacingLeft=4;spacingRight=4;overflow=hidden;rotatable=0;points=[[0,0.5],[1,0.5]];portConstraint=eastwest;whiteSpace=wrap;html=1;fontFamily=Helvetica;fontSize=11;fontColor=default;labelBackgroundColor=default;" parent="MgFEorn5SetkvFqvPVox-21" vertex="1">
          <mxGeometry y="34" width="200.63" height="26" as="geometry" />
        </mxCell>
        <mxCell id="MgFEorn5SetkvFqvPVox-25" value="&lt;font style=&quot;font-size: 12px;&quot;&gt;AbstractReader&lt;/font&gt;" style="swimlane;fontStyle=1;align=center;verticalAlign=top;childLayout=stackLayout;horizontal=1;startSize=26;horizontalStack=0;resizeParent=1;resizeParentMax=0;resizeLast=0;collapsible=1;marginBottom=0;whiteSpace=wrap;html=1;fontFamily=Helvetica;fontSize=11;fontColor=default;labelBackgroundColor=default;" parent="1" vertex="1">
          <mxGeometry x="-2460" y="-1710" width="170" height="138" as="geometry" />
        </mxCell>
        <mxCell id="MgFEorn5SetkvFqvPVox-111" value="&lt;font style=&quot;font-size: 12px;&quot;&gt;- file: File&lt;/font&gt;" style="text;strokeColor=none;fillColor=none;align=left;verticalAlign=top;spacingLeft=4;spacingRight=4;overflow=hidden;rotatable=0;points=[[0,0.5],[1,0.5]];portConstraint=eastwest;whiteSpace=wrap;html=1;fontFamily=Helvetica;fontSize=11;fontColor=default;labelBackgroundColor=default;" parent="MgFEorn5SetkvFqvPVox-25" vertex="1">
          <mxGeometry y="26" width="170" height="26" as="geometry" />
        </mxCell>
        <mxCell id="MgFEorn5SetkvFqvPVox-27" value="" style="line;strokeWidth=1;fillColor=none;align=left;verticalAlign=middle;spacingTop=-1;spacingLeft=3;spacingRight=3;rotatable=0;labelPosition=right;points=[];portConstraint=eastwest;strokeColor=inherit;fontFamily=Helvetica;fontSize=11;fontColor=default;labelBackgroundColor=default;" parent="MgFEorn5SetkvFqvPVox-25" vertex="1">
          <mxGeometry y="52" width="170" height="8" as="geometry" />
        </mxCell>
        <mxCell id="MgFEorn5SetkvFqvPVox-28" value="&lt;font style=&quot;font-size: 12px;&quot;&gt;+ scanPoint(): Point&lt;/font&gt;" style="text;strokeColor=none;fillColor=none;align=left;verticalAlign=top;spacingLeft=4;spacingRight=4;overflow=hidden;rotatable=0;points=[[0,0.5],[1,0.5]];portConstraint=eastwest;whiteSpace=wrap;html=1;fontFamily=Helvetica;fontSize=11;fontColor=default;labelBackgroundColor=default;" parent="MgFEorn5SetkvFqvPVox-25" vertex="1">
          <mxGeometry y="60" width="170" height="26" as="geometry" />
        </mxCell>
        <mxCell id="MgFEorn5SetkvFqvPVox-32" value="&lt;font style=&quot;font-size: 12px;&quot;&gt;+ scanEdge(): Edge&lt;/font&gt;" style="text;strokeColor=none;fillColor=none;align=left;verticalAlign=top;spacingLeft=4;spacingRight=4;overflow=hidden;rotatable=0;points=[[0,0.5],[1,0.5]];portConstraint=eastwest;whiteSpace=wrap;html=1;fontFamily=Helvetica;fontSize=11;fontColor=default;labelBackgroundColor=default;" parent="MgFEorn5SetkvFqvPVox-25" vertex="1">
          <mxGeometry y="86" width="170" height="26" as="geometry" />
        </mxCell>
        <mxCell id="MgFEorn5SetkvFqvPVox-33" value="&lt;font style=&quot;font-size: 12px;&quot;&gt;+ scanLine(): String&lt;/font&gt;" style="text;strokeColor=none;fillColor=none;align=left;verticalAlign=top;spacingLeft=4;spacingRight=4;overflow=hidden;rotatable=0;points=[[0,0.5],[1,0.5]];portConstraint=eastwest;whiteSpace=wrap;html=1;fontFamily=Helvetica;fontSize=11;fontColor=default;labelBackgroundColor=default;" parent="MgFEorn5SetkvFqvPVox-25" vertex="1">
          <mxGeometry y="112" width="170" height="26" as="geometry" />
        </mxCell>
        <mxCell id="MgFEorn5SetkvFqvPVox-34" value="&lt;font style=&quot;font-size: 12px;&quot;&gt;TXTReader&lt;/font&gt;" style="swimlane;fontStyle=1;align=center;verticalAlign=top;childLayout=stackLayout;horizontal=1;startSize=26;horizontalStack=0;resizeParent=1;resizeParentMax=0;resizeLast=0;collapsible=1;marginBottom=0;whiteSpace=wrap;html=1;fontFamily=Helvetica;fontSize=11;fontColor=default;labelBackgroundColor=default;" parent="1" vertex="1">
          <mxGeometry x="-2460" y="-1510" width="170" height="34" as="geometry" />
        </mxCell>
        <mxCell id="MgFEorn5SetkvFqvPVox-36" value="" style="line;strokeWidth=1;fillColor=none;align=left;verticalAlign=middle;spacingTop=-1;spacingLeft=3;spacingRight=3;rotatable=0;labelPosition=right;points=[];portConstraint=eastwest;strokeColor=inherit;fontFamily=Helvetica;fontSize=11;fontColor=default;labelBackgroundColor=default;" parent="MgFEorn5SetkvFqvPVox-34" vertex="1">
          <mxGeometry y="26" width="170" height="8" as="geometry" />
        </mxCell>
        <mxCell id="MgFEorn5SetkvFqvPVox-38" value="" style="endArrow=block;endSize=16;endFill=0;html=1;rounded=0;" parent="1" source="MgFEorn5SetkvFqvPVox-34" target="MgFEorn5SetkvFqvPVox-25" edge="1">
          <mxGeometry width="160" relative="1" as="geometry">
            <mxPoint x="-2460" y="-1460" as="sourcePoint" />
            <mxPoint x="-2300" y="-1460" as="targetPoint" />
          </mxGeometry>
        </mxCell>
        <mxCell id="MgFEorn5SetkvFqvPVox-39" value="" style="endArrow=open;html=1;endSize=12;startArrow=diamondThin;startSize=14;startFill=1;edgeStyle=orthogonalEdgeStyle;align=left;verticalAlign=bottom;rounded=0;" parent="1" source="MgFEorn5SetkvFqvPVox-17" target="MgFEorn5SetkvFqvPVox-21" edge="1">
          <mxGeometry x="-1" y="3" relative="1" as="geometry">
            <mxPoint x="-2500" y="-1520" as="sourcePoint" />
            <mxPoint x="-2340" y="-1520" as="targetPoint" />
          </mxGeometry>
        </mxCell>
        <mxCell id="MgFEorn5SetkvFqvPVox-41" value="" style="endArrow=open;html=1;endSize=12;startArrow=diamondThin;startSize=14;startFill=1;edgeStyle=orthogonalEdgeStyle;align=left;verticalAlign=bottom;rounded=0;" parent="1" source="MgFEorn5SetkvFqvPVox-21" target="MgFEorn5SetkvFqvPVox-25" edge="1">
          <mxGeometry x="-1" y="3" relative="1" as="geometry">
            <mxPoint x="-2490.63" y="-1520" as="sourcePoint" />
            <mxPoint x="-2330.63" y="-1520" as="targetPoint" />
            <Array as="points">
              <mxPoint x="-2520.63" y="-1680" />
              <mxPoint x="-2520.63" y="-1680" />
            </Array>
          </mxGeometry>
        </mxCell>
        <mxCell id="MgFEorn5SetkvFqvPVox-42" value="&lt;font style=&quot;font-size: 12px;&quot;&gt;BinReader&lt;/font&gt;" style="swimlane;fontStyle=1;align=center;verticalAlign=top;childLayout=stackLayout;horizontal=1;startSize=26;horizontalStack=0;resizeParent=1;resizeParentMax=0;resizeLast=0;collapsible=1;marginBottom=0;whiteSpace=wrap;html=1;fontFamily=Helvetica;fontSize=11;fontColor=default;labelBackgroundColor=default;" parent="1" vertex="1">
          <mxGeometry x="-2260" y="-1510" width="170" height="34" as="geometry" />
        </mxCell>
        <mxCell id="MgFEorn5SetkvFqvPVox-44" value="" style="line;strokeWidth=1;fillColor=none;align=left;verticalAlign=middle;spacingTop=-1;spacingLeft=3;spacingRight=3;rotatable=0;labelPosition=right;points=[];portConstraint=eastwest;strokeColor=inherit;fontFamily=Helvetica;fontSize=11;fontColor=default;labelBackgroundColor=default;" parent="MgFEorn5SetkvFqvPVox-42" vertex="1">
          <mxGeometry y="26" width="170" height="8" as="geometry" />
        </mxCell>
        <mxCell id="MgFEorn5SetkvFqvPVox-47" value="" style="endArrow=block;endSize=16;endFill=0;html=1;rounded=0;" parent="1" source="MgFEorn5SetkvFqvPVox-42" target="MgFEorn5SetkvFqvPVox-25" edge="1">
          <mxGeometry width="160" relative="1" as="geometry">
            <mxPoint x="-2365" y="-1500" as="sourcePoint" />
            <mxPoint x="-2365" y="-1588" as="targetPoint" />
            <Array as="points">
              <mxPoint x="-2175" y="-1530" />
              <mxPoint x="-2375" y="-1530" />
            </Array>
          </mxGeometry>
        </mxCell>
        <mxCell id="MgFEorn5SetkvFqvPVox-48" value="&lt;font style=&quot;font-size: 12px;&quot;&gt;ReaderConcreteCreator&lt;/font&gt;" style="swimlane;fontStyle=1;align=center;verticalAlign=top;childLayout=stackLayout;horizontal=1;startSize=26;horizontalStack=0;resizeParent=1;resizeParentMax=0;resizeLast=0;collapsible=1;marginBottom=0;whiteSpace=wrap;html=1;fontFamily=Helvetica;fontSize=11;fontColor=default;labelBackgroundColor=default;" parent="1" vertex="1">
          <mxGeometry x="-2715.31" y="-1562" width="170" height="34" as="geometry" />
        </mxCell>
        <mxCell id="MgFEorn5SetkvFqvPVox-50" value="" style="line;strokeWidth=1;fillColor=none;align=left;verticalAlign=middle;spacingTop=-1;spacingLeft=3;spacingRight=3;rotatable=0;labelPosition=right;points=[];portConstraint=eastwest;strokeColor=inherit;fontFamily=Helvetica;fontSize=11;fontColor=default;labelBackgroundColor=default;" parent="MgFEorn5SetkvFqvPVox-48" vertex="1">
          <mxGeometry y="26" width="170" height="8" as="geometry" />
        </mxCell>
        <mxCell id="MgFEorn5SetkvFqvPVox-52" value="" style="endArrow=block;endSize=16;endFill=0;html=1;rounded=0;" parent="1" source="MgFEorn5SetkvFqvPVox-48" target="MgFEorn5SetkvFqvPVox-21" edge="1">
          <mxGeometry width="160" relative="1" as="geometry">
            <mxPoint x="-2405.63" y="-1500" as="sourcePoint" />
            <mxPoint x="-2405.63" y="-1588" as="targetPoint" />
          </mxGeometry>
        </mxCell>
        <mxCell id="MgFEorn5SetkvFqvPVox-53" value="&lt;font style=&quot;font-size: 12px;&quot;&gt;LoadService&lt;/font&gt;" style="swimlane;fontStyle=1;align=center;verticalAlign=top;childLayout=stackLayout;horizontal=1;startSize=26;horizontalStack=0;resizeParent=1;resizeParentMax=0;resizeLast=0;collapsible=1;marginBottom=0;whiteSpace=wrap;html=1;fontFamily=Helvetica;fontSize=11;fontColor=default;labelBackgroundColor=default;" parent="1" vertex="1">
          <mxGeometry x="-3100" y="-2030" width="170" height="60" as="geometry" />
        </mxCell>
        <mxCell id="MgFEorn5SetkvFqvPVox-54" value="" style="line;strokeWidth=1;fillColor=none;align=left;verticalAlign=middle;spacingTop=-1;spacingLeft=3;spacingRight=3;rotatable=0;labelPosition=right;points=[];portConstraint=eastwest;strokeColor=inherit;fontFamily=Helvetica;fontSize=11;fontColor=default;labelBackgroundColor=default;" parent="MgFEorn5SetkvFqvPVox-53" vertex="1">
          <mxGeometry y="26" width="170" height="8" as="geometry" />
        </mxCell>
        <mxCell id="MgFEorn5SetkvFqvPVox-55" value="&lt;font style=&quot;font-size: 12px;&quot;&gt;+ load():&amp;nbsp;&lt;/font&gt;&lt;span style=&quot;font-size: 12px; text-align: center; text-wrap-mode: nowrap;&quot;&gt;AbstractBaseObject&lt;/span&gt;" style="text;strokeColor=none;fillColor=none;align=left;verticalAlign=top;spacingLeft=4;spacingRight=4;overflow=hidden;rotatable=0;points=[[0,0.5],[1,0.5]];portConstraint=eastwest;whiteSpace=wrap;html=1;fontFamily=Helvetica;fontSize=11;fontColor=default;labelBackgroundColor=none;" parent="MgFEorn5SetkvFqvPVox-53" vertex="1">
          <mxGeometry y="34" width="170" height="26" as="geometry" />
        </mxCell>
        <mxCell id="MgFEorn5SetkvFqvPVox-56" value="" style="endArrow=open;html=1;endSize=12;startArrow=diamondThin;startSize=14;startFill=0;edgeStyle=orthogonalEdgeStyle;align=left;verticalAlign=bottom;rounded=0;" parent="1" source="MgFEorn5SetkvFqvPVox-53" target="MgFEorn5SetkvFqvPVox-17" edge="1">
          <mxGeometry x="-1" y="163" relative="1" as="geometry">
            <mxPoint x="-2480" y="-1560" as="sourcePoint" />
            <mxPoint x="-2320" y="-1560" as="targetPoint" />
            <mxPoint x="-8" y="-50" as="offset" />
            <Array as="points">
              <mxPoint x="-2880" y="-2000" />
            </Array>
          </mxGeometry>
        </mxCell>
        <mxCell id="MgFEorn5SetkvFqvPVox-57" value="&lt;font style=&quot;font-size: 12px;&quot;&gt;ObjectSolution&lt;/font&gt;&lt;div&gt;&lt;span style=&quot;font-size: 12px;&quot;&gt;(солюшн на то, что создаём)&lt;/span&gt;&lt;/div&gt;" style="swimlane;fontStyle=1;align=center;verticalAlign=top;childLayout=stackLayout;horizontal=1;startSize=40;horizontalStack=0;resizeParent=1;resizeParentMax=0;resizeLast=0;collapsible=1;marginBottom=0;whiteSpace=wrap;html=1;fontFamily=Helvetica;fontSize=11;fontColor=default;labelBackgroundColor=default;" parent="1" vertex="1">
          <mxGeometry x="-3310" y="-1717" width="230" height="74" as="geometry" />
        </mxCell>
        <mxCell id="MgFEorn5SetkvFqvPVox-58" value="" style="line;strokeWidth=1;fillColor=none;align=left;verticalAlign=middle;spacingTop=-1;spacingLeft=3;spacingRight=3;rotatable=0;labelPosition=right;points=[];portConstraint=eastwest;strokeColor=inherit;fontFamily=Helvetica;fontSize=11;fontColor=default;labelBackgroundColor=default;" parent="MgFEorn5SetkvFqvPVox-57" vertex="1">
          <mxGeometry y="40" width="230" height="8" as="geometry" />
        </mxCell>
        <mxCell id="MgFEorn5SetkvFqvPVox-59" value="&lt;font style=&quot;font-size: 12px;&quot;&gt;+ create(id): ObjectCreator&lt;/font&gt;" style="text;strokeColor=none;fillColor=none;align=left;verticalAlign=top;spacingLeft=4;spacingRight=4;overflow=hidden;rotatable=0;points=[[0,0.5],[1,0.5]];portConstraint=eastwest;whiteSpace=wrap;html=1;fontFamily=Helvetica;fontSize=11;fontColor=default;labelBackgroundColor=default;" parent="MgFEorn5SetkvFqvPVox-57" vertex="1">
          <mxGeometry y="48" width="230" height="26" as="geometry" />
        </mxCell>
        <mxCell id="MgFEorn5SetkvFqvPVox-60" value="&lt;font style=&quot;font-size: 12px;&quot;&gt;ObjectCreator&lt;/font&gt;" style="swimlane;fontStyle=1;align=center;verticalAlign=top;childLayout=stackLayout;horizontal=1;startSize=26;horizontalStack=0;resizeParent=1;resizeParentMax=0;resizeLast=0;collapsible=1;marginBottom=0;whiteSpace=wrap;html=1;fontFamily=Helvetica;fontSize=11;fontColor=default;labelBackgroundColor=default;" parent="1" vertex="1">
          <mxGeometry x="-3730" y="-1710" width="300" height="60" as="geometry" />
        </mxCell>
        <mxCell id="MgFEorn5SetkvFqvPVox-61" value="" style="line;strokeWidth=1;fillColor=none;align=left;verticalAlign=middle;spacingTop=-1;spacingLeft=3;spacingRight=3;rotatable=0;labelPosition=right;points=[];portConstraint=eastwest;strokeColor=inherit;fontFamily=Helvetica;fontSize=11;fontColor=default;labelBackgroundColor=default;" parent="MgFEorn5SetkvFqvPVox-60" vertex="1">
          <mxGeometry y="26" width="300" height="8" as="geometry" />
        </mxCell>
        <mxCell id="MgFEorn5SetkvFqvPVox-62" value="&lt;div style=&quot;text-align: center;&quot;&gt;&lt;span style=&quot;font-size: 12px; background-color: light-dark(#ffffff, var(--ge-dark-color, #121212)); color: light-dark(rgb(0, 0, 0), rgb(255, 255, 255));&quot;&gt;+ create&lt;/span&gt;&lt;span style=&quot;font-size: 12px; background-color: light-dark(#ffffff, var(--ge-dark-color, #121212)); color: light-dark(rgb(0, 0, 0), rgb(255, 255, 255));&quot;&gt;(): AbstractBaseObject&lt;/span&gt;&lt;/div&gt;" style="text;strokeColor=none;fillColor=none;align=left;verticalAlign=top;spacingLeft=4;spacingRight=4;overflow=hidden;rotatable=0;points=[[0,0.5],[1,0.5]];portConstraint=eastwest;whiteSpace=wrap;html=1;fontFamily=Helvetica;fontSize=11;fontColor=default;labelBackgroundColor=default;fontStyle=0" parent="MgFEorn5SetkvFqvPVox-60" vertex="1">
          <mxGeometry y="34" width="300" height="26" as="geometry" />
        </mxCell>
        <mxCell id="MgFEorn5SetkvFqvPVox-71" value="" style="endArrow=open;html=1;endSize=12;startArrow=diamondThin;startSize=14;startFill=1;edgeStyle=orthogonalEdgeStyle;align=left;verticalAlign=bottom;rounded=0;" parent="1" source="MgFEorn5SetkvFqvPVox-57" target="MgFEorn5SetkvFqvPVox-60" edge="1">
          <mxGeometry x="-1" y="3" relative="1" as="geometry">
            <mxPoint x="-2620" y="-1520" as="sourcePoint" />
            <mxPoint x="-2460" y="-1520" as="targetPoint" />
          </mxGeometry>
        </mxCell>
        <mxCell id="MgFEorn5SetkvFqvPVox-75" value="" style="endArrow=block;endSize=16;endFill=0;html=1;rounded=0;entryX=0.087;entryY=0.941;entryDx=0;entryDy=0;entryPerimeter=0;" parent="1" source="MgFEorn5SetkvFqvPVox-103" target="MgFEorn5SetkvFqvPVox-62" edge="1">
          <mxGeometry width="160" relative="1" as="geometry">
            <mxPoint x="-4065" y="-1500" as="sourcePoint" />
            <mxPoint x="-4065" y="-1588" as="targetPoint" />
            <Array as="points" />
          </mxGeometry>
        </mxCell>
        <mxCell id="MgFEorn5SetkvFqvPVox-79" value="" style="endArrow=block;endSize=16;endFill=0;html=1;rounded=0;fontFamily=Helvetica;fontSize=12;fontColor=default;" parent="1" edge="1">
          <mxGeometry width="160" relative="1" as="geometry">
            <mxPoint x="-610" y="-800" as="sourcePoint" />
            <mxPoint x="-253" y="-926" as="targetPoint" />
            <Array as="points">
              <mxPoint x="-610" y="-850" />
              <mxPoint x="-253" y="-850" />
            </Array>
          </mxGeometry>
        </mxCell>
        <mxCell id="MgFEorn5SetkvFqvPVox-80" value="" style="endArrow=block;endSize=16;endFill=0;html=1;rounded=0;fontFamily=Helvetica;fontSize=12;fontColor=default;" parent="1" source="MgFEorn5SetkvFqvPVox-13" target="bEU1QXEmUX0ItJ249fvr-1" edge="1">
          <mxGeometry width="160" relative="1" as="geometry">
            <mxPoint x="-600" y="-790" as="sourcePoint" />
            <mxPoint x="-243" y="-916" as="targetPoint" />
            <Array as="points">
              <mxPoint x="-395" y="-850" />
              <mxPoint x="-253" y="-850" />
            </Array>
          </mxGeometry>
        </mxCell>
        <mxCell id="MgFEorn5SetkvFqvPVox-87" value="" style="endArrow=open;html=1;endSize=12;startArrow=diamondThin;startSize=14;startFill=0;edgeStyle=orthogonalEdgeStyle;align=left;verticalAlign=bottom;rounded=0;fontSize=12;" parent="1" source="MgFEorn5SetkvFqvPVox-103" target="MgFEorn5SetkvFqvPVox-106" edge="1">
          <mxGeometry x="0.1667" y="75" relative="1" as="geometry">
            <mxPoint x="-3830" y="-1320" as="sourcePoint" />
            <mxPoint x="-3670" y="-1320" as="targetPoint" />
            <mxPoint y="1" as="offset" />
          </mxGeometry>
        </mxCell>
        <mxCell id="MgFEorn5SetkvFqvPVox-100" value="&lt;font style=&quot;font-size: 12px;&quot;&gt;CompositeDirector&lt;/font&gt;" style="swimlane;fontStyle=1;align=center;verticalAlign=top;childLayout=stackLayout;horizontal=1;startSize=26;horizontalStack=0;resizeParent=1;resizeParentMax=0;resizeLast=0;collapsible=1;marginBottom=0;whiteSpace=wrap;html=1;fontFamily=Helvetica;fontSize=11;fontColor=default;labelBackgroundColor=default;" parent="1" vertex="1">
          <mxGeometry x="-3280" y="-1476" width="190" height="60" as="geometry" />
        </mxCell>
        <mxCell id="MgFEorn5SetkvFqvPVox-101" value="" style="line;strokeWidth=1;fillColor=none;align=left;verticalAlign=middle;spacingTop=-1;spacingLeft=3;spacingRight=3;rotatable=0;labelPosition=right;points=[];portConstraint=eastwest;strokeColor=inherit;fontFamily=Helvetica;fontSize=11;fontColor=default;labelBackgroundColor=default;" parent="MgFEorn5SetkvFqvPVox-100" vertex="1">
          <mxGeometry y="26" width="190" height="8" as="geometry" />
        </mxCell>
        <mxCell id="MgFEorn5SetkvFqvPVox-102" value="&lt;font style=&quot;font-size: 12px;&quot;&gt;+ create(): BaseObjectComposite&lt;/font&gt;" style="text;strokeColor=none;fillColor=none;align=left;verticalAlign=top;spacingLeft=4;spacingRight=4;overflow=hidden;rotatable=0;points=[[0,0.5],[1,0.5]];portConstraint=eastwest;whiteSpace=wrap;html=1;fontFamily=Helvetica;fontSize=11;fontColor=default;labelBackgroundColor=default;" parent="MgFEorn5SetkvFqvPVox-100" vertex="1">
          <mxGeometry y="34" width="190" height="26" as="geometry" />
        </mxCell>
        <mxCell id="MgFEorn5SetkvFqvPVox-103" value="&lt;font style=&quot;font-size: 12px;&quot;&gt;MeshModelDirector&lt;/font&gt;" style="swimlane;fontStyle=1;align=center;verticalAlign=top;childLayout=stackLayout;horizontal=1;startSize=26;horizontalStack=0;resizeParent=1;resizeParentMax=0;resizeLast=0;collapsible=1;marginBottom=0;whiteSpace=wrap;html=1;fontFamily=Helvetica;fontSize=11;fontColor=default;labelBackgroundColor=none;" parent="1" vertex="1">
          <mxGeometry x="-3820" y="-1476" width="230" height="60" as="geometry" />
        </mxCell>
        <mxCell id="MgFEorn5SetkvFqvPVox-104" value="" style="line;strokeWidth=1;fillColor=none;align=left;verticalAlign=middle;spacingTop=-1;spacingLeft=3;spacingRight=3;rotatable=0;labelPosition=right;points=[];portConstraint=eastwest;strokeColor=inherit;fontFamily=Helvetica;fontSize=11;fontColor=default;labelBackgroundColor=default;" parent="MgFEorn5SetkvFqvPVox-103" vertex="1">
          <mxGeometry y="26" width="230" height="8" as="geometry" />
        </mxCell>
        <mxCell id="MgFEorn5SetkvFqvPVox-105" value="&lt;span style=&quot;font-size: 12px;&quot;&gt;+ create():&amp;nbsp;&lt;/span&gt;&lt;span style=&quot;font-size: 12px; text-align: center; background-color: rgb(255, 255, 255);&quot;&gt;AbstractBaseObject&lt;/span&gt;" style="text;strokeColor=none;fillColor=none;align=left;verticalAlign=top;spacingLeft=4;spacingRight=4;overflow=hidden;rotatable=0;points=[[0,0.5],[1,0.5]];portConstraint=eastwest;whiteSpace=wrap;html=1;fontFamily=Helvetica;fontSize=11;fontColor=default;labelBackgroundColor=none;" parent="MgFEorn5SetkvFqvPVox-103" vertex="1">
          <mxGeometry y="34" width="230" height="26" as="geometry" />
        </mxCell>
        <mxCell id="MgFEorn5SetkvFqvPVox-106" value="&lt;font style=&quot;font-size: 12px;&quot;&gt;MeshModelBuilder&lt;/font&gt;" style="swimlane;fontStyle=1;align=center;verticalAlign=top;childLayout=stackLayout;horizontal=1;startSize=26;horizontalStack=0;resizeParent=1;resizeParentMax=0;resizeLast=0;collapsible=1;marginBottom=0;whiteSpace=wrap;html=1;fontFamily=Helvetica;fontSize=11;fontColor=default;labelBackgroundColor=none;" parent="1" vertex="1">
          <mxGeometry x="-3800" y="-1361" width="190" height="164" as="geometry" />
        </mxCell>
        <mxCell id="90Wxe2k2Dpvid-h5t9Xc-69" value="- reader: AbstractReader" style="text;strokeColor=none;fillColor=none;align=left;verticalAlign=top;spacingLeft=4;spacingRight=4;overflow=hidden;rotatable=0;points=[[0,0.5],[1,0.5]];portConstraint=eastwest;whiteSpace=wrap;html=1;fontSize=12;" parent="MgFEorn5SetkvFqvPVox-106" vertex="1">
          <mxGeometry y="26" width="190" height="26" as="geometry" />
        </mxCell>
        <mxCell id="MgFEorn5SetkvFqvPVox-107" value="" style="line;strokeWidth=1;fillColor=none;align=left;verticalAlign=middle;spacingTop=-1;spacingLeft=3;spacingRight=3;rotatable=0;labelPosition=right;points=[];portConstraint=eastwest;strokeColor=inherit;fontFamily=Helvetica;fontSize=11;fontColor=default;labelBackgroundColor=default;" parent="MgFEorn5SetkvFqvPVox-106" vertex="1">
          <mxGeometry y="52" width="190" height="8" as="geometry" />
        </mxCell>
        <mxCell id="MgFEorn5SetkvFqvPVox-109" value="+ buildPoints(Reader)" style="text;strokeColor=none;fillColor=none;align=left;verticalAlign=top;spacingLeft=4;spacingRight=4;overflow=hidden;rotatable=0;points=[[0,0.5],[1,0.5]];portConstraint=eastwest;whiteSpace=wrap;html=1;fontSize=12;" parent="MgFEorn5SetkvFqvPVox-106" vertex="1">
          <mxGeometry y="60" width="190" height="26" as="geometry" />
        </mxCell>
        <mxCell id="MgFEorn5SetkvFqvPVox-110" value="+ buildEdges(Reader)" style="text;strokeColor=none;fillColor=none;align=left;verticalAlign=top;spacingLeft=4;spacingRight=4;overflow=hidden;rotatable=0;points=[[0,0.5],[1,0.5]];portConstraint=eastwest;whiteSpace=wrap;html=1;fontSize=12;" parent="MgFEorn5SetkvFqvPVox-106" vertex="1">
          <mxGeometry y="86" width="190" height="26" as="geometry" />
        </mxCell>
        <mxCell id="MgFEorn5SetkvFqvPVox-97" value="&lt;font style=&quot;font-size: 12px;&quot;&gt;+ get() - возвращает фигуру&lt;/font&gt;" style="text;strokeColor=none;fillColor=none;align=left;verticalAlign=top;spacingLeft=4;spacingRight=4;overflow=hidden;rotatable=0;points=[[0,0.5],[1,0.5]];portConstraint=eastwest;whiteSpace=wrap;html=1;fontFamily=Helvetica;fontSize=11;fontColor=default;labelBackgroundColor=default;" parent="MgFEorn5SetkvFqvPVox-106" vertex="1">
          <mxGeometry y="112" width="190" height="26" as="geometry" />
        </mxCell>
        <mxCell id="90Wxe2k2Dpvid-h5t9Xc-66" value="&lt;font style=&quot;font-size: 12px;&quot;&gt;- create()&lt;/font&gt;" style="text;strokeColor=none;fillColor=none;align=left;verticalAlign=top;spacingLeft=4;spacingRight=4;overflow=hidden;rotatable=0;points=[[0,0.5],[1,0.5]];portConstraint=eastwest;whiteSpace=wrap;html=1;fontFamily=Helvetica;fontSize=11;fontColor=default;labelBackgroundColor=default;" parent="MgFEorn5SetkvFqvPVox-106" vertex="1">
          <mxGeometry y="138" width="190" height="26" as="geometry" />
        </mxCell>
        <mxCell id="MgFEorn5SetkvFqvPVox-112" value="" style="endArrow=open;html=1;endSize=12;startArrow=diamondThin;startSize=14;startFill=0;edgeStyle=orthogonalEdgeStyle;align=left;verticalAlign=bottom;rounded=0;" parent="1" source="MgFEorn5SetkvFqvPVox-53" target="MgFEorn5SetkvFqvPVox-57" edge="1">
          <mxGeometry x="-1" y="3" relative="1" as="geometry">
            <mxPoint x="-3120" y="-1590" as="sourcePoint" />
            <mxPoint x="-2960" y="-1590" as="targetPoint" />
            <Array as="points">
              <mxPoint x="-3200" y="-2000" />
            </Array>
          </mxGeometry>
        </mxCell>
        <mxCell id="MgFEorn5SetkvFqvPVox-113" value="" style="endArrow=block;endSize=16;endFill=0;html=1;rounded=0;" parent="1" source="MgFEorn5SetkvFqvPVox-100" target="MgFEorn5SetkvFqvPVox-60" edge="1">
          <mxGeometry width="160" relative="1" as="geometry">
            <mxPoint x="-3807" y="-1500" as="sourcePoint" />
            <mxPoint x="-3960" y="-1653" as="targetPoint" />
            <Array as="points">
              <mxPoint x="-3185" y="-1550" />
              <mxPoint x="-3580" y="-1550" />
            </Array>
          </mxGeometry>
        </mxCell>
        <mxCell id="Hq7AZVbVP9MDkz0-afTN-11" value="&lt;span style=&quot;font-size: 12px;&quot;&gt;PolygonMeshModelImplementation&lt;/span&gt;" style="swimlane;fontStyle=1;align=center;verticalAlign=top;childLayout=stackLayout;horizontal=1;startSize=26;horizontalStack=0;resizeParent=1;resizeParentMax=0;resizeLast=0;collapsible=1;marginBottom=0;whiteSpace=wrap;html=1;fontFamily=Helvetica;fontSize=11;fontColor=default;labelBackgroundColor=default;" parent="1" vertex="1">
          <mxGeometry x="595" y="-132" width="170" height="112" as="geometry" />
        </mxCell>
        <mxCell id="Hq7AZVbVP9MDkz0-afTN-12" value="- edges: Mtr" style="text;strokeColor=none;fillColor=none;align=left;verticalAlign=top;spacingLeft=4;spacingRight=4;overflow=hidden;rotatable=0;points=[[0,0.5],[1,0.5]];portConstraint=eastwest;whiteSpace=wrap;html=1;fontSize=12;" parent="Hq7AZVbVP9MDkz0-afTN-11" vertex="1">
          <mxGeometry y="26" width="170" height="26" as="geometry" />
        </mxCell>
        <mxCell id="Hq7AZVbVP9MDkz0-afTN-13" value="- points: List&amp;lt;Point&amp;gt;" style="text;strokeColor=none;fillColor=none;align=left;verticalAlign=top;spacingLeft=4;spacingRight=4;overflow=hidden;rotatable=0;points=[[0,0.5],[1,0.5]];portConstraint=eastwest;whiteSpace=wrap;html=1;fontSize=12;" parent="Hq7AZVbVP9MDkz0-afTN-11" vertex="1">
          <mxGeometry y="52" width="170" height="26" as="geometry" />
        </mxCell>
        <mxCell id="Hq7AZVbVP9MDkz0-afTN-14" value="" style="line;strokeWidth=1;fillColor=none;align=left;verticalAlign=middle;spacingTop=-1;spacingLeft=3;spacingRight=3;rotatable=0;labelPosition=right;points=[];portConstraint=eastwest;strokeColor=inherit;fontFamily=Helvetica;fontSize=11;fontColor=default;labelBackgroundColor=default;" parent="Hq7AZVbVP9MDkz0-afTN-11" vertex="1">
          <mxGeometry y="78" width="170" height="8" as="geometry" />
        </mxCell>
        <mxCell id="Hq7AZVbVP9MDkz0-afTN-15" value="&lt;font style=&quot;font-size: 12px;&quot;&gt;+ transform()&lt;/font&gt;" style="text;strokeColor=none;fillColor=none;align=left;verticalAlign=top;spacingLeft=4;spacingRight=4;overflow=hidden;rotatable=0;points=[[0,0.5],[1,0.5]];portConstraint=eastwest;whiteSpace=wrap;html=1;fontFamily=Helvetica;fontSize=11;fontColor=default;labelBackgroundColor=default;" parent="Hq7AZVbVP9MDkz0-afTN-11" vertex="1">
          <mxGeometry y="86" width="170" height="26" as="geometry" />
        </mxCell>
        <mxCell id="Hq7AZVbVP9MDkz0-afTN-16" value="&lt;font style=&quot;font-size: 12px;&quot;&gt;DrawVisitor&lt;/font&gt;" style="swimlane;fontStyle=1;align=center;verticalAlign=top;childLayout=stackLayout;horizontal=1;startSize=26;horizontalStack=0;resizeParent=1;resizeParentMax=0;resizeLast=0;collapsible=1;marginBottom=0;whiteSpace=wrap;html=1;fontFamily=Helvetica;fontSize=11;fontColor=default;labelBackgroundColor=default;" parent="1" vertex="1">
          <mxGeometry x="1705" y="-1146" width="170" height="34" as="geometry" />
        </mxCell>
        <mxCell id="Hq7AZVbVP9MDkz0-afTN-18" value="" style="line;strokeWidth=1;fillColor=none;align=left;verticalAlign=middle;spacingTop=-1;spacingLeft=3;spacingRight=3;rotatable=0;labelPosition=right;points=[];portConstraint=eastwest;strokeColor=inherit;fontFamily=Helvetica;fontSize=11;fontColor=default;labelBackgroundColor=default;" parent="Hq7AZVbVP9MDkz0-afTN-16" vertex="1">
          <mxGeometry y="26" width="170" height="8" as="geometry" />
        </mxCell>
        <mxCell id="Hq7AZVbVP9MDkz0-afTN-20" value="" style="endArrow=block;endSize=16;endFill=0;html=1;rounded=0;" parent="1" source="Hq7AZVbVP9MDkz0-afTN-16" target="gnXy6fIS7-A-US88n-Kp-5" edge="1">
          <mxGeometry width="160" relative="1" as="geometry">
            <mxPoint x="1610" y="-940.0000000000001" as="sourcePoint" />
            <mxPoint x="1770" y="-940.0000000000001" as="targetPoint" />
          </mxGeometry>
        </mxCell>
        <mxCell id="Hq7AZVbVP9MDkz0-afTN-22" value="" style="endArrow=block;endSize=16;endFill=0;html=1;rounded=0;" parent="1" source="Hq7AZVbVP9MDkz0-afTN-11" target="wG5N-X-KkEXGidf3OUgP-2" edge="1">
          <mxGeometry width="160" relative="1" as="geometry">
            <mxPoint x="415" y="-120" as="sourcePoint" />
            <mxPoint x="415" y="-198" as="targetPoint" />
            <Array as="points" />
          </mxGeometry>
        </mxCell>
        <mxCell id="Hq7AZVbVP9MDkz0-afTN-23" value="&lt;font style=&quot;font-size: 12px;&quot;&gt;ConcreteReaderSolution&lt;/font&gt;&lt;div&gt;&lt;font style=&quot;font-size: 12px;&quot;&gt;(скорее всего не надо)&lt;/font&gt;&lt;/div&gt;" style="swimlane;fontStyle=1;align=center;verticalAlign=top;childLayout=stackLayout;horizontal=1;startSize=42;horizontalStack=0;resizeParent=1;resizeParentMax=0;resizeLast=0;collapsible=1;marginBottom=0;whiteSpace=wrap;html=1;fontFamily=Helvetica;fontSize=11;fontColor=default;labelBackgroundColor=default;" parent="1" vertex="1">
          <mxGeometry x="-2960" y="-1562" width="170" height="50" as="geometry" />
        </mxCell>
        <mxCell id="Hq7AZVbVP9MDkz0-afTN-24" value="" style="line;strokeWidth=1;fillColor=none;align=left;verticalAlign=middle;spacingTop=-1;spacingLeft=3;spacingRight=3;rotatable=0;labelPosition=right;points=[];portConstraint=eastwest;strokeColor=inherit;fontFamily=Helvetica;fontSize=11;fontColor=default;labelBackgroundColor=default;" parent="Hq7AZVbVP9MDkz0-afTN-23" vertex="1">
          <mxGeometry y="42" width="170" height="8" as="geometry" />
        </mxCell>
        <mxCell id="Hq7AZVbVP9MDkz0-afTN-25" value="" style="endArrow=block;endSize=16;endFill=0;html=1;rounded=0;" parent="1" source="Hq7AZVbVP9MDkz0-afTN-23" target="MgFEorn5SetkvFqvPVox-17" edge="1">
          <mxGeometry width="160" relative="1" as="geometry">
            <mxPoint x="-2645" y="-1552" as="sourcePoint" />
            <mxPoint x="-2645" y="-1640" as="targetPoint" />
          </mxGeometry>
        </mxCell>
        <mxCell id="90Wxe2k2Dpvid-h5t9Xc-13" value="&lt;font style=&quot;font-size: 12px;&quot;&gt;MeshModel&lt;/font&gt;" style="swimlane;fontStyle=1;align=center;verticalAlign=top;childLayout=stackLayout;horizontal=1;startSize=26;horizontalStack=0;resizeParent=1;resizeParentMax=0;resizeLast=0;collapsible=1;marginBottom=0;whiteSpace=wrap;html=1;fontFamily=Helvetica;fontSize=11;fontColor=default;labelBackgroundColor=default;" parent="1" vertex="1">
          <mxGeometry x="-4205" y="-1398" width="280" height="86" as="geometry" />
        </mxCell>
        <mxCell id="90Wxe2k2Dpvid-h5t9Xc-14" value="&lt;font style=&quot;font-size: 12px;&quot;&gt;- impl: shared_ptr&amp;lt;MeshModelImplementation&amp;gt;&lt;/font&gt;" style="text;strokeColor=none;fillColor=none;align=left;verticalAlign=top;spacingLeft=4;spacingRight=4;overflow=hidden;rotatable=0;points=[[0,0.5],[1,0.5]];portConstraint=eastwest;whiteSpace=wrap;html=1;fontFamily=Helvetica;fontSize=11;fontColor=default;labelBackgroundColor=default;" parent="90Wxe2k2Dpvid-h5t9Xc-13" vertex="1">
          <mxGeometry y="26" width="280" height="26" as="geometry" />
        </mxCell>
        <mxCell id="90Wxe2k2Dpvid-h5t9Xc-15" value="&lt;font style=&quot;font-size: 12px;&quot;&gt;- isVisible: Bool&lt;/font&gt;" style="text;strokeColor=none;fillColor=none;align=left;verticalAlign=top;spacingLeft=4;spacingRight=4;overflow=hidden;rotatable=0;points=[[0,0.5],[1,0.5]];portConstraint=eastwest;whiteSpace=wrap;html=1;fontFamily=Helvetica;fontSize=11;fontColor=default;labelBackgroundColor=default;" parent="90Wxe2k2Dpvid-h5t9Xc-13" vertex="1">
          <mxGeometry y="52" width="280" height="26" as="geometry" />
        </mxCell>
        <mxCell id="90Wxe2k2Dpvid-h5t9Xc-16" value="" style="line;strokeWidth=1;fillColor=none;align=left;verticalAlign=middle;spacingTop=-1;spacingLeft=3;spacingRight=3;rotatable=0;labelPosition=right;points=[];portConstraint=eastwest;strokeColor=inherit;fontFamily=Helvetica;fontSize=11;fontColor=default;labelBackgroundColor=default;" parent="90Wxe2k2Dpvid-h5t9Xc-13" vertex="1">
          <mxGeometry y="78" width="280" height="8" as="geometry" />
        </mxCell>
        <mxCell id="90Wxe2k2Dpvid-h5t9Xc-17" value="" style="endArrow=block;endSize=16;endFill=0;html=1;rounded=0;" parent="1" source="90Wxe2k2Dpvid-h5t9Xc-13" target="90Wxe2k2Dpvid-h5t9Xc-47" edge="1">
          <mxGeometry width="160" relative="1" as="geometry">
            <mxPoint x="-3981" y="-1438" as="sourcePoint" />
            <mxPoint x="-3634" y="-1578" as="targetPoint" />
            <Array as="points" />
          </mxGeometry>
        </mxCell>
        <mxCell id="90Wxe2k2Dpvid-h5t9Xc-18" value="&lt;font style=&quot;font-size: 12px;&quot;&gt;MeshModelImplementation&lt;/font&gt;" style="swimlane;fontStyle=1;align=center;verticalAlign=top;childLayout=stackLayout;horizontal=1;startSize=26;horizontalStack=0;resizeParent=1;resizeParentMax=0;resizeLast=0;collapsible=1;marginBottom=0;whiteSpace=wrap;html=1;fontFamily=Helvetica;fontSize=11;fontColor=default;labelBackgroundColor=default;" parent="1" vertex="1">
          <mxGeometry x="-3990" y="-1060" width="190" height="112" as="geometry" />
        </mxCell>
        <mxCell id="90Wxe2k2Dpvid-h5t9Xc-20" value="- points: List&amp;lt;Point&amp;gt;" style="text;strokeColor=none;fillColor=none;align=left;verticalAlign=top;spacingLeft=4;spacingRight=4;overflow=hidden;rotatable=0;points=[[0,0.5],[1,0.5]];portConstraint=eastwest;whiteSpace=wrap;html=1;fontSize=12;" parent="90Wxe2k2Dpvid-h5t9Xc-18" vertex="1">
          <mxGeometry y="26" width="190" height="26" as="geometry" />
        </mxCell>
        <mxCell id="90Wxe2k2Dpvid-h5t9Xc-19" value="- edges: List&amp;lt;Edge&amp;gt;" style="text;strokeColor=none;fillColor=none;align=left;verticalAlign=top;spacingLeft=4;spacingRight=4;overflow=hidden;rotatable=0;points=[[0,0.5],[1,0.5]];portConstraint=eastwest;whiteSpace=wrap;html=1;fontSize=12;" parent="90Wxe2k2Dpvid-h5t9Xc-18" vertex="1">
          <mxGeometry y="52" width="190" height="26" as="geometry" />
        </mxCell>
        <mxCell id="90Wxe2k2Dpvid-h5t9Xc-21" value="" style="line;strokeWidth=1;fillColor=none;align=left;verticalAlign=middle;spacingTop=-1;spacingLeft=3;spacingRight=3;rotatable=0;labelPosition=right;points=[];portConstraint=eastwest;strokeColor=inherit;fontFamily=Helvetica;fontSize=11;fontColor=default;labelBackgroundColor=default;" parent="90Wxe2k2Dpvid-h5t9Xc-18" vertex="1">
          <mxGeometry y="78" width="190" height="8" as="geometry" />
        </mxCell>
        <mxCell id="90Wxe2k2Dpvid-h5t9Xc-22" value="&lt;font style=&quot;font-size: 12px;&quot;&gt;+ transform()&lt;/font&gt;" style="text;strokeColor=none;fillColor=none;align=left;verticalAlign=top;spacingLeft=4;spacingRight=4;overflow=hidden;rotatable=0;points=[[0,0.5],[1,0.5]];portConstraint=eastwest;whiteSpace=wrap;html=1;fontFamily=Helvetica;fontSize=11;fontColor=default;labelBackgroundColor=default;" parent="90Wxe2k2Dpvid-h5t9Xc-18" vertex="1">
          <mxGeometry y="86" width="190" height="26" as="geometry" />
        </mxCell>
        <mxCell id="90Wxe2k2Dpvid-h5t9Xc-24" value="&lt;span style=&quot;font-size: 12px;&quot;&gt;PolygonMeshModelImplementation&lt;/span&gt;" style="swimlane;fontStyle=1;align=center;verticalAlign=top;childLayout=stackLayout;horizontal=1;startSize=26;horizontalStack=0;resizeParent=1;resizeParentMax=0;resizeLast=0;collapsible=1;marginBottom=0;whiteSpace=wrap;html=1;fontFamily=Helvetica;fontSize=11;fontColor=default;labelBackgroundColor=default;" parent="1" vertex="1">
          <mxGeometry x="-4290" y="-1060" width="240" height="112" as="geometry" />
        </mxCell>
        <mxCell id="90Wxe2k2Dpvid-h5t9Xc-26" value="- points: List&amp;lt;Point&amp;gt;" style="text;strokeColor=none;fillColor=none;align=left;verticalAlign=top;spacingLeft=4;spacingRight=4;overflow=hidden;rotatable=0;points=[[0,0.5],[1,0.5]];portConstraint=eastwest;whiteSpace=wrap;html=1;fontSize=12;" parent="90Wxe2k2Dpvid-h5t9Xc-24" vertex="1">
          <mxGeometry y="26" width="240" height="26" as="geometry" />
        </mxCell>
        <mxCell id="90Wxe2k2Dpvid-h5t9Xc-25" value="- faces: List&amp;lt;Triangle&amp;lt;Edge&amp;gt;&amp;gt;" style="text;strokeColor=none;fillColor=none;align=left;verticalAlign=top;spacingLeft=4;spacingRight=4;overflow=hidden;rotatable=0;points=[[0,0.5],[1,0.5]];portConstraint=eastwest;whiteSpace=wrap;html=1;fontSize=12;" parent="90Wxe2k2Dpvid-h5t9Xc-24" vertex="1">
          <mxGeometry y="52" width="240" height="26" as="geometry" />
        </mxCell>
        <mxCell id="90Wxe2k2Dpvid-h5t9Xc-27" value="" style="line;strokeWidth=1;fillColor=none;align=left;verticalAlign=middle;spacingTop=-1;spacingLeft=3;spacingRight=3;rotatable=0;labelPosition=right;points=[];portConstraint=eastwest;strokeColor=inherit;fontFamily=Helvetica;fontSize=11;fontColor=default;labelBackgroundColor=default;" parent="90Wxe2k2Dpvid-h5t9Xc-24" vertex="1">
          <mxGeometry y="78" width="240" height="8" as="geometry" />
        </mxCell>
        <mxCell id="90Wxe2k2Dpvid-h5t9Xc-28" value="&lt;font style=&quot;font-size: 12px;&quot;&gt;+ transform()&lt;/font&gt;" style="text;strokeColor=none;fillColor=none;align=left;verticalAlign=top;spacingLeft=4;spacingRight=4;overflow=hidden;rotatable=0;points=[[0,0.5],[1,0.5]];portConstraint=eastwest;whiteSpace=wrap;html=1;fontFamily=Helvetica;fontSize=11;fontColor=default;labelBackgroundColor=default;" parent="90Wxe2k2Dpvid-h5t9Xc-24" vertex="1">
          <mxGeometry y="86" width="240" height="26" as="geometry" />
        </mxCell>
        <mxCell id="90Wxe2k2Dpvid-h5t9Xc-35" value="" style="endArrow=open;html=1;endSize=12;startArrow=diamondThin;startSize=14;startFill=1;edgeStyle=orthogonalEdgeStyle;align=left;verticalAlign=bottom;rounded=0;" parent="1" source="90Wxe2k2Dpvid-h5t9Xc-14" target="90Wxe2k2Dpvid-h5t9Xc-93" edge="1">
          <mxGeometry x="-1" y="3" relative="1" as="geometry">
            <mxPoint x="-3710" y="-1230.1100000000001" as="sourcePoint" />
            <mxPoint x="-4190" y="-1202" as="targetPoint" />
            <Array as="points">
              <mxPoint x="-4240" y="-1359" />
              <mxPoint x="-4240" y="-1218" />
            </Array>
          </mxGeometry>
        </mxCell>
        <mxCell id="90Wxe2k2Dpvid-h5t9Xc-45" value="" style="endArrow=block;endSize=16;endFill=0;html=1;rounded=0;" parent="1" source="90Wxe2k2Dpvid-h5t9Xc-24" target="90Wxe2k2Dpvid-h5t9Xc-93" edge="1">
          <mxGeometry width="160" relative="1" as="geometry">
            <mxPoint x="-4280" y="-1110" as="sourcePoint" />
            <mxPoint x="-4055" y="-1591" as="targetPoint" />
            <Array as="points">
              <mxPoint x="-4170" y="-1090" />
              <mxPoint x="-4065" y="-1090" />
            </Array>
          </mxGeometry>
        </mxCell>
        <mxCell id="90Wxe2k2Dpvid-h5t9Xc-47" value="&lt;div style=&quot;font-size: 12px; text-wrap-mode: nowrap;&quot;&gt;AbstractBaseObject&lt;/div&gt;" style="swimlane;fontStyle=1;align=center;verticalAlign=top;childLayout=stackLayout;horizontal=1;startSize=28;horizontalStack=0;resizeParent=1;resizeParentMax=0;resizeLast=0;collapsible=1;marginBottom=0;whiteSpace=wrap;html=1;fontFamily=Helvetica;fontSize=11;fontColor=default;labelBackgroundColor=none;fillColor=default;" parent="1" vertex="1">
          <mxGeometry x="-4150" y="-1802" width="170" height="244" as="geometry" />
        </mxCell>
        <mxCell id="90Wxe2k2Dpvid-h5t9Xc-48" value="&lt;font style=&quot;font-size: 12px;&quot;&gt;- id: ID&lt;/font&gt;" style="text;strokeColor=none;fillColor=none;align=left;verticalAlign=top;spacingLeft=4;spacingRight=4;overflow=hidden;rotatable=0;points=[[0,0.5],[1,0.5]];portConstraint=eastwest;whiteSpace=wrap;html=1;fontFamily=Helvetica;fontSize=11;fontColor=default;labelBackgroundColor=default;" parent="90Wxe2k2Dpvid-h5t9Xc-47" vertex="1">
          <mxGeometry y="28" width="170" height="26" as="geometry" />
        </mxCell>
        <mxCell id="90Wxe2k2Dpvid-h5t9Xc-49" value="" style="line;strokeWidth=1;fillColor=none;align=left;verticalAlign=middle;spacingTop=-1;spacingLeft=3;spacingRight=3;rotatable=0;labelPosition=right;points=[];portConstraint=eastwest;strokeColor=inherit;fontFamily=Helvetica;fontSize=11;fontColor=default;labelBackgroundColor=default;" parent="90Wxe2k2Dpvid-h5t9Xc-47" vertex="1">
          <mxGeometry y="54" width="170" height="8" as="geometry" />
        </mxCell>
        <mxCell id="90Wxe2k2Dpvid-h5t9Xc-50" value="+ iterator()" style="text;strokeColor=none;fillColor=none;align=left;verticalAlign=top;spacingLeft=4;spacingRight=4;overflow=hidden;rotatable=0;points=[[0,0.5],[1,0.5]];portConstraint=eastwest;whiteSpace=wrap;html=1;fontSize=12;" parent="90Wxe2k2Dpvid-h5t9Xc-47" vertex="1">
          <mxGeometry y="62" width="170" height="26" as="geometry" />
        </mxCell>
        <mxCell id="90Wxe2k2Dpvid-h5t9Xc-51" value="+ add(AbstractBaseObject)" style="text;strokeColor=none;fillColor=none;align=left;verticalAlign=top;spacingLeft=4;spacingRight=4;overflow=hidden;rotatable=0;points=[[0,0.5],[1,0.5]];portConstraint=eastwest;whiteSpace=wrap;html=1;fontSize=12;" parent="90Wxe2k2Dpvid-h5t9Xc-47" vertex="1">
          <mxGeometry y="88" width="170" height="26" as="geometry" />
        </mxCell>
        <mxCell id="90Wxe2k2Dpvid-h5t9Xc-52" value="+ remove(Iterator)" style="text;strokeColor=none;fillColor=none;align=left;verticalAlign=top;spacingLeft=4;spacingRight=4;overflow=hidden;rotatable=0;points=[[0,0.5],[1,0.5]];portConstraint=eastwest;whiteSpace=wrap;html=1;fontSize=12;" parent="90Wxe2k2Dpvid-h5t9Xc-47" vertex="1">
          <mxGeometry y="114" width="170" height="26" as="geometry" />
        </mxCell>
        <mxCell id="90Wxe2k2Dpvid-h5t9Xc-53" value="+ transform(SomeData)&lt;div&gt;скорее всего не нужно&lt;/div&gt;&lt;div&gt;т.к. есть Visitor&lt;/div&gt;" style="text;strokeColor=none;fillColor=none;align=left;verticalAlign=top;spacingLeft=4;spacingRight=4;overflow=hidden;rotatable=0;points=[[0,0.5],[1,0.5]];portConstraint=eastwest;whiteSpace=wrap;html=1;fontSize=12;" parent="90Wxe2k2Dpvid-h5t9Xc-47" vertex="1">
          <mxGeometry y="140" width="170" height="52" as="geometry" />
        </mxCell>
        <mxCell id="90Wxe2k2Dpvid-h5t9Xc-54" value="+ accept(Visitor)" style="text;strokeColor=none;fillColor=none;align=left;verticalAlign=top;spacingLeft=4;spacingRight=4;overflow=hidden;rotatable=0;points=[[0,0.5],[1,0.5]];portConstraint=eastwest;whiteSpace=wrap;html=1;fontSize=12;" parent="90Wxe2k2Dpvid-h5t9Xc-47" vertex="1">
          <mxGeometry y="192" width="170" height="26" as="geometry" />
        </mxCell>
        <mxCell id="90Wxe2k2Dpvid-h5t9Xc-55" value="+ isComposite()" style="text;strokeColor=none;fillColor=none;align=left;verticalAlign=top;spacingLeft=4;spacingRight=4;overflow=hidden;rotatable=0;points=[[0,0.5],[1,0.5]];portConstraint=eastwest;whiteSpace=wrap;html=1;fontSize=12;" parent="90Wxe2k2Dpvid-h5t9Xc-47" vertex="1">
          <mxGeometry y="218" width="170" height="26" as="geometry" />
        </mxCell>
        <mxCell id="90Wxe2k2Dpvid-h5t9Xc-56" value="" style="endArrow=open;html=1;endSize=12;startArrow=diamondThin;startSize=14;startFill=0;edgeStyle=orthogonalEdgeStyle;align=left;verticalAlign=bottom;rounded=0;fontSize=12;" parent="1" source="90Wxe2k2Dpvid-h5t9Xc-57" target="90Wxe2k2Dpvid-h5t9Xc-60" edge="1">
          <mxGeometry x="0.1667" y="75" relative="1" as="geometry">
            <mxPoint x="-3560" y="-1319" as="sourcePoint" />
            <mxPoint x="-3400" y="-1319" as="targetPoint" />
            <mxPoint y="1" as="offset" />
          </mxGeometry>
        </mxCell>
        <mxCell id="90Wxe2k2Dpvid-h5t9Xc-57" value="&lt;font style=&quot;font-size: 12px;&quot;&gt;PolygonMeshModelDirector&lt;/font&gt;" style="swimlane;fontStyle=1;align=center;verticalAlign=top;childLayout=stackLayout;horizontal=1;startSize=26;horizontalStack=0;resizeParent=1;resizeParentMax=0;resizeLast=0;collapsible=1;marginBottom=0;whiteSpace=wrap;html=1;fontFamily=Helvetica;fontSize=11;fontColor=default;labelBackgroundColor=none;" parent="1" vertex="1">
          <mxGeometry x="-3550" y="-1476" width="230" height="60" as="geometry" />
        </mxCell>
        <mxCell id="90Wxe2k2Dpvid-h5t9Xc-58" value="" style="line;strokeWidth=1;fillColor=none;align=left;verticalAlign=middle;spacingTop=-1;spacingLeft=3;spacingRight=3;rotatable=0;labelPosition=right;points=[];portConstraint=eastwest;strokeColor=inherit;fontFamily=Helvetica;fontSize=11;fontColor=default;labelBackgroundColor=default;" parent="90Wxe2k2Dpvid-h5t9Xc-57" vertex="1">
          <mxGeometry y="26" width="230" height="8" as="geometry" />
        </mxCell>
        <mxCell id="90Wxe2k2Dpvid-h5t9Xc-59" value="&lt;span style=&quot;font-size: 12px;&quot;&gt;+ create():&amp;nbsp;&lt;/span&gt;&lt;span style=&quot;font-size: 12px; text-align: center; background-color: rgb(255, 255, 255);&quot;&gt;AbstractBaseObject&lt;/span&gt;" style="text;strokeColor=none;fillColor=none;align=left;verticalAlign=top;spacingLeft=4;spacingRight=4;overflow=hidden;rotatable=0;points=[[0,0.5],[1,0.5]];portConstraint=eastwest;whiteSpace=wrap;html=1;fontFamily=Helvetica;fontSize=11;fontColor=default;labelBackgroundColor=none;fontStyle=0" parent="90Wxe2k2Dpvid-h5t9Xc-57" vertex="1">
          <mxGeometry y="34" width="230" height="26" as="geometry" />
        </mxCell>
        <mxCell id="90Wxe2k2Dpvid-h5t9Xc-60" value="&lt;font style=&quot;font-size: 12px;&quot;&gt;PolygonMeshModelBuilder&lt;/font&gt;" style="swimlane;fontStyle=1;align=center;verticalAlign=top;childLayout=stackLayout;horizontal=1;startSize=26;horizontalStack=0;resizeParent=1;resizeParentMax=0;resizeLast=0;collapsible=1;marginBottom=0;whiteSpace=wrap;html=1;fontFamily=Helvetica;fontSize=11;fontColor=default;labelBackgroundColor=none;" parent="1" vertex="1">
          <mxGeometry x="-3530" y="-1360" width="190" height="164" as="geometry" />
        </mxCell>
        <mxCell id="90Wxe2k2Dpvid-h5t9Xc-70" value="- reader: AbstractReader" style="text;strokeColor=none;fillColor=none;align=left;verticalAlign=top;spacingLeft=4;spacingRight=4;overflow=hidden;rotatable=0;points=[[0,0.5],[1,0.5]];portConstraint=eastwest;whiteSpace=wrap;html=1;fontSize=12;" parent="90Wxe2k2Dpvid-h5t9Xc-60" vertex="1">
          <mxGeometry y="26" width="190" height="26" as="geometry" />
        </mxCell>
        <mxCell id="90Wxe2k2Dpvid-h5t9Xc-61" value="" style="line;strokeWidth=1;fillColor=none;align=left;verticalAlign=middle;spacingTop=-1;spacingLeft=3;spacingRight=3;rotatable=0;labelPosition=right;points=[];portConstraint=eastwest;strokeColor=inherit;fontFamily=Helvetica;fontSize=11;fontColor=default;labelBackgroundColor=default;" parent="90Wxe2k2Dpvid-h5t9Xc-60" vertex="1">
          <mxGeometry y="52" width="190" height="8" as="geometry" />
        </mxCell>
        <mxCell id="90Wxe2k2Dpvid-h5t9Xc-62" value="+ buildPoints(Reader)" style="text;strokeColor=none;fillColor=none;align=left;verticalAlign=top;spacingLeft=4;spacingRight=4;overflow=hidden;rotatable=0;points=[[0,0.5],[1,0.5]];portConstraint=eastwest;whiteSpace=wrap;html=1;fontSize=12;" parent="90Wxe2k2Dpvid-h5t9Xc-60" vertex="1">
          <mxGeometry y="60" width="190" height="26" as="geometry" />
        </mxCell>
        <mxCell id="90Wxe2k2Dpvid-h5t9Xc-63" value="+ buildFaces(Reader)" style="text;strokeColor=none;fillColor=none;align=left;verticalAlign=top;spacingLeft=4;spacingRight=4;overflow=hidden;rotatable=0;points=[[0,0.5],[1,0.5]];portConstraint=eastwest;whiteSpace=wrap;html=1;fontSize=12;" parent="90Wxe2k2Dpvid-h5t9Xc-60" vertex="1">
          <mxGeometry y="86" width="190" height="26" as="geometry" />
        </mxCell>
        <mxCell id="90Wxe2k2Dpvid-h5t9Xc-64" value="&lt;font style=&quot;font-size: 12px;&quot;&gt;+ get() - возвращает фигуру&lt;/font&gt;" style="text;strokeColor=none;fillColor=none;align=left;verticalAlign=top;spacingLeft=4;spacingRight=4;overflow=hidden;rotatable=0;points=[[0,0.5],[1,0.5]];portConstraint=eastwest;whiteSpace=wrap;html=1;fontFamily=Helvetica;fontSize=11;fontColor=default;labelBackgroundColor=default;" parent="90Wxe2k2Dpvid-h5t9Xc-60" vertex="1">
          <mxGeometry y="112" width="190" height="26" as="geometry" />
        </mxCell>
        <mxCell id="90Wxe2k2Dpvid-h5t9Xc-68" value="&lt;font style=&quot;font-size: 12px;&quot;&gt;- create()&lt;/font&gt;" style="text;strokeColor=none;fillColor=none;align=left;verticalAlign=top;spacingLeft=4;spacingRight=4;overflow=hidden;rotatable=0;points=[[0,0.5],[1,0.5]];portConstraint=eastwest;whiteSpace=wrap;html=1;fontFamily=Helvetica;fontSize=11;fontColor=default;labelBackgroundColor=default;" parent="90Wxe2k2Dpvid-h5t9Xc-60" vertex="1">
          <mxGeometry y="138" width="190" height="26" as="geometry" />
        </mxCell>
        <mxCell id="90Wxe2k2Dpvid-h5t9Xc-65" value="" style="endArrow=block;endSize=16;endFill=0;html=1;rounded=0;" parent="1" source="90Wxe2k2Dpvid-h5t9Xc-57" target="MgFEorn5SetkvFqvPVox-60" edge="1">
          <mxGeometry width="160" relative="1" as="geometry">
            <mxPoint x="-3695" y="-1466" as="sourcePoint" />
            <mxPoint x="-3694" y="-1642" as="targetPoint" />
            <Array as="points">
              <mxPoint x="-3435" y="-1550" />
              <mxPoint x="-3580" y="-1550" />
            </Array>
          </mxGeometry>
        </mxCell>
        <mxCell id="90Wxe2k2Dpvid-h5t9Xc-72" value="" style="endArrow=open;endFill=1;endSize=12;html=1;rounded=0;" parent="1" source="MgFEorn5SetkvFqvPVox-106" target="90Wxe2k2Dpvid-h5t9Xc-18" edge="1">
          <mxGeometry width="160" relative="1" as="geometry">
            <mxPoint x="-3770" y="-1290" as="sourcePoint" />
            <mxPoint x="-3680" y="-1290" as="targetPoint" />
            <Array as="points">
              <mxPoint x="-3705" y="-1004" />
            </Array>
          </mxGeometry>
        </mxCell>
        <mxCell id="90Wxe2k2Dpvid-h5t9Xc-73" value="" style="endArrow=open;endFill=1;endSize=12;html=1;rounded=0;" parent="1" source="90Wxe2k2Dpvid-h5t9Xc-60" target="90Wxe2k2Dpvid-h5t9Xc-24" edge="1">
          <mxGeometry width="160" relative="1" as="geometry">
            <mxPoint x="-3790" y="-1249" as="sourcePoint" />
            <mxPoint x="-3960" y="-1212" as="targetPoint" />
            <Array as="points">
              <mxPoint x="-3435" y="-890" />
              <mxPoint x="-4170" y="-890" />
            </Array>
          </mxGeometry>
        </mxCell>
        <mxCell id="90Wxe2k2Dpvid-h5t9Xc-74" value="" style="endArrow=open;endFill=1;endSize=12;html=1;rounded=0;" parent="1" source="MgFEorn5SetkvFqvPVox-60" target="90Wxe2k2Dpvid-h5t9Xc-47" edge="1">
          <mxGeometry width="160" relative="1" as="geometry">
            <mxPoint x="-3755" y="-1740" as="sourcePoint" />
            <mxPoint x="-3925" y="-1662" as="targetPoint" />
            <Array as="points" />
          </mxGeometry>
        </mxCell>
        <mxCell id="90Wxe2k2Dpvid-h5t9Xc-82" value="" style="endArrow=open;html=1;endSize=12;startArrow=diamondThin;startSize=14;startFill=0;edgeStyle=orthogonalEdgeStyle;align=left;verticalAlign=bottom;rounded=0;fontSize=12;" parent="1" source="MgFEorn5SetkvFqvPVox-100" target="MgFEorn5SetkvFqvPVox-57" edge="1">
          <mxGeometry x="0.1667" y="75" relative="1" as="geometry">
            <mxPoint x="-3425" y="-1406" as="sourcePoint" />
            <mxPoint x="-3425" y="-1350" as="targetPoint" />
            <mxPoint y="1" as="offset" />
            <Array as="points">
              <mxPoint x="-3130" y="-1520" />
              <mxPoint x="-3130" y="-1520" />
            </Array>
          </mxGeometry>
        </mxCell>
        <mxCell id="90Wxe2k2Dpvid-h5t9Xc-83" value="&lt;span style=&quot;font-size: 12px;&quot;&gt;BaseObjectComposite&lt;/span&gt;" style="swimlane;fontStyle=1;align=center;verticalAlign=top;childLayout=stackLayout;horizontal=1;startSize=26;horizontalStack=0;resizeParent=1;resizeParentMax=0;resizeLast=0;collapsible=1;marginBottom=0;whiteSpace=wrap;html=1;fontFamily=Helvetica;fontSize=11;fontColor=default;labelBackgroundColor=default;" parent="1" vertex="1">
          <mxGeometry x="-4610" y="-1398" width="300" height="60" as="geometry" />
        </mxCell>
        <mxCell id="90Wxe2k2Dpvid-h5t9Xc-84" value="&lt;span style=&quot;font-size: 12px;&quot;&gt;- components: List&amp;lt;shared_ptr&amp;lt;&lt;/span&gt;&lt;span style=&quot;font-size: 12px; text-align: center; text-wrap-mode: nowrap;&quot;&gt;AbstractBaseObject&lt;/span&gt;&lt;span style=&quot;font-size: 12px;&quot;&gt;&amp;gt;&amp;gt;&lt;/span&gt;" style="text;strokeColor=none;fillColor=none;align=left;verticalAlign=top;spacingLeft=4;spacingRight=4;overflow=hidden;rotatable=0;points=[[0,0.5],[1,0.5]];portConstraint=eastwest;whiteSpace=wrap;html=1;fontFamily=Helvetica;fontSize=11;fontColor=default;labelBackgroundColor=none;" parent="90Wxe2k2Dpvid-h5t9Xc-83" vertex="1">
          <mxGeometry y="26" width="300" height="26" as="geometry" />
        </mxCell>
        <mxCell id="90Wxe2k2Dpvid-h5t9Xc-85" value="" style="line;strokeWidth=1;fillColor=none;align=left;verticalAlign=middle;spacingTop=-1;spacingLeft=3;spacingRight=3;rotatable=0;labelPosition=right;points=[];portConstraint=eastwest;strokeColor=inherit;fontFamily=Helvetica;fontSize=11;fontColor=default;labelBackgroundColor=default;" parent="90Wxe2k2Dpvid-h5t9Xc-83" vertex="1">
          <mxGeometry y="52" width="300" height="8" as="geometry" />
        </mxCell>
        <mxCell id="90Wxe2k2Dpvid-h5t9Xc-86" value="" style="endArrow=block;endSize=16;endFill=0;html=1;rounded=0;" parent="1" source="90Wxe2k2Dpvid-h5t9Xc-83" target="90Wxe2k2Dpvid-h5t9Xc-47" edge="1">
          <mxGeometry width="160" relative="1" as="geometry">
            <mxPoint x="-4440" y="-1388" as="sourcePoint" />
            <mxPoint x="-4055" y="-1548" as="targetPoint" />
            <Array as="points">
              <mxPoint x="-4460" y="-1440" />
              <mxPoint x="-4065" y="-1440" />
            </Array>
          </mxGeometry>
        </mxCell>
        <mxCell id="90Wxe2k2Dpvid-h5t9Xc-88" value="1..*" style="endArrow=open;html=1;endSize=12;startArrow=diamondThin;startSize=14;startFill=0;edgeStyle=orthogonalEdgeStyle;align=left;verticalAlign=bottom;rounded=0;fontSize=12;" parent="1" source="90Wxe2k2Dpvid-h5t9Xc-83" target="90Wxe2k2Dpvid-h5t9Xc-47" edge="1">
          <mxGeometry x="-0.9578" y="30" relative="1" as="geometry">
            <mxPoint x="-3695" y="-1406" as="sourcePoint" />
            <mxPoint x="-3695" y="-1351" as="targetPoint" />
            <mxPoint as="offset" />
            <Array as="points">
              <mxPoint x="-4640" y="-1368" />
              <mxPoint x="-4640" y="-1690" />
            </Array>
          </mxGeometry>
        </mxCell>
        <mxCell id="90Wxe2k2Dpvid-h5t9Xc-90" value="запрашивает&lt;div&gt;у солюшна&lt;/div&gt;&lt;div&gt;конкретный билдер&lt;/div&gt;" style="text;html=1;align=center;verticalAlign=middle;resizable=0;points=[];autosize=1;strokeColor=none;fillColor=none;" parent="1" vertex="1">
          <mxGeometry x="-3140" y="-1547" width="130" height="60" as="geometry" />
        </mxCell>
        <mxCell id="90Wxe2k2Dpvid-h5t9Xc-93" value="&lt;span style=&quot;font-size: 12px;&quot;&gt;AbstractMeshModelImplementation&lt;/span&gt;" style="swimlane;fontStyle=1;align=center;verticalAlign=top;childLayout=stackLayout;horizontal=1;startSize=26;horizontalStack=0;resizeParent=1;resizeParentMax=0;resizeLast=0;collapsible=1;marginBottom=0;whiteSpace=wrap;html=1;fontFamily=Helvetica;fontSize=11;fontColor=default;labelBackgroundColor=default;" parent="1" vertex="1">
          <mxGeometry x="-4180" y="-1274" width="230" height="86" as="geometry" />
        </mxCell>
        <mxCell id="90Wxe2k2Dpvid-h5t9Xc-94" value="" style="line;strokeWidth=1;fillColor=none;align=left;verticalAlign=middle;spacingTop=-1;spacingLeft=3;spacingRight=3;rotatable=0;labelPosition=right;points=[];portConstraint=eastwest;strokeColor=inherit;fontFamily=Helvetica;fontSize=11;fontColor=default;labelBackgroundColor=default;" parent="90Wxe2k2Dpvid-h5t9Xc-93" vertex="1">
          <mxGeometry y="26" width="230" height="8" as="geometry" />
        </mxCell>
        <mxCell id="90Wxe2k2Dpvid-h5t9Xc-97" value="&lt;font style=&quot;font-size: 12px;&quot;&gt;+ setData(List&amp;lt;Point&amp;gt;, List&amp;lt;Edge&amp;gt;)&lt;/font&gt;" style="text;strokeColor=none;fillColor=none;align=left;verticalAlign=top;spacingLeft=4;spacingRight=4;overflow=hidden;rotatable=0;points=[[0,0.5],[1,0.5]];portConstraint=eastwest;whiteSpace=wrap;html=1;fontFamily=Helvetica;fontSize=11;fontColor=default;labelBackgroundColor=default;" parent="90Wxe2k2Dpvid-h5t9Xc-93" vertex="1">
          <mxGeometry y="34" width="230" height="26" as="geometry" />
        </mxCell>
        <mxCell id="90Wxe2k2Dpvid-h5t9Xc-95" value="&lt;font style=&quot;font-size: 12px;&quot;&gt;+ transform(TransformRequest)&lt;/font&gt;" style="text;strokeColor=none;fillColor=none;align=left;verticalAlign=top;spacingLeft=4;spacingRight=4;overflow=hidden;rotatable=0;points=[[0,0.5],[1,0.5]];portConstraint=eastwest;whiteSpace=wrap;html=1;fontFamily=Helvetica;fontSize=11;fontColor=default;labelBackgroundColor=default;" parent="90Wxe2k2Dpvid-h5t9Xc-93" vertex="1">
          <mxGeometry y="60" width="230" height="26" as="geometry" />
        </mxCell>
        <mxCell id="90Wxe2k2Dpvid-h5t9Xc-98" value="" style="endArrow=block;endSize=16;endFill=0;html=1;rounded=0;" parent="1" source="90Wxe2k2Dpvid-h5t9Xc-18" target="90Wxe2k2Dpvid-h5t9Xc-93" edge="1">
          <mxGeometry width="160" relative="1" as="geometry">
            <mxPoint x="-4352" y="-1030" as="sourcePoint" />
            <mxPoint x="-4333" y="-1170" as="targetPoint" />
            <Array as="points">
              <mxPoint x="-3895" y="-1090" />
              <mxPoint x="-4065" y="-1090" />
            </Array>
          </mxGeometry>
        </mxCell>
      </root>
    </mxGraphModel>
  </diagram>
</mxfile>
